<?xml version="1.0" encoding="UTF-8"?>
<svg viewBox="0 0 751 451" version="1.1" xmlns="http://www.w3.org/2000/svg" xmlns:xlink="http://www.w3.org/1999/xlink">
    <defs>
        <polygon id="path-1" points="0 450.281741 749.142857 450.281741 749.142857 0 0 0"></polygon>
    </defs>
    <g id="Layouts" stroke="none" stroke-width="1" fill="none" fill-rule="evenodd">
        <g id="Desktop-HD" transform="translate(-576.000000, -632.000000)">
            <g id="Clay-working" transform="translate(576.000000, 631.000000)">
                <ellipse id="Oval" fill="#FFFFFF" cx="375.412088" cy="209.533698" rx="119.093407" ry="118.969035"></ellipse>
                <g id="Group-172" stroke-width="1" transform="translate(0.824176, 0.823315)">
                    <path d="M379.376456,428.052315 L743.274808,428.052315 C745.145687,428.052315 746.670412,429.567215 746.670412,431.444374 L746.670412,444.411587 C746.670412,446.288745 745.145687,447.811878 743.274808,447.811878 L379.376456,447.811878" id="Stroke-1" stroke="#0D0E1F" stroke-width="6"></path>
                    <path d="M386.728846,447.811878 L6.02472527,447.811878 C4.06813187,447.811878 2.47252747,446.288745 2.47252747,444.411587 L2.47252747,431.444374 C2.47252747,429.567215 4.06813187,428.052315 6.02472527,428.052315 L386.728846,428.052315" id="Stroke-3" stroke="#0D0E1F" stroke-width="6"></path>
                    <polyline id="Stroke-5" stroke="#0D0E1F" stroke-width="5" points="406.439835 428.052315 394.901374 395.877161 374.571429 395.877161 354.242308 395.877161 342.703846 428.052315"></polyline>
                    <path d="M492.978297,395.877078 L256.165385,395.877078 C250.399451,395.877078 245.725549,391.208058 245.725549,385.448146 L245.725549,249.052823 C245.725549,243.292911 250.399451,238.623891 256.165385,238.623891 L492.978297,238.623891 C498.743407,238.623891 503.417308,243.292911 503.417308,249.052823 L503.417308,385.448146 C503.417308,391.208058 498.743407,395.877078 492.978297,395.877078 Z" id="Stroke-7" stroke="#0D0E1F" stroke-width="5"></path>
                    <path d="M483.568681,260.030084 L466.260989,260.030084 C464.099176,260.030084 462.346154,258.278893 462.346154,256.119337 C462.346154,253.959781 464.099176,252.20859 466.260989,252.20859 L483.568681,252.20859 C485.730495,252.20859 487.483516,253.959781 487.483516,256.119337 C487.483516,258.278893 485.730495,260.030084 483.568681,260.030084" id="Fill-9" fill="#0D0E1F"></path>
                    <path d="M266.879258,369.256831 L266.879258,300.646689 C266.879258,297.468692 261.934203,297.462929 261.934203,300.646689 L261.934203,369.256831 C261.934203,372.434827 266.879258,372.44059 266.879258,369.256831" id="Fill-11" fill="#0D0E1F"></path>
                    <path d="M264.406731,286.650332 C267.588049,286.650332 267.593819,281.710441 264.406731,281.710441 C261.224588,281.710441 261.219643,286.650332 264.406731,286.650332" id="Fill-13" fill="#0D0E1F"></path>
                    <path d="M264.406731,274.026441 C267.588049,274.026441 267.593819,269.08655 264.406731,269.08655 C261.224588,269.08655 261.219643,274.026441 264.406731,274.026441" id="Fill-15" fill="#0D0E1F"></path>
                    <path d="M264.406731,261.40255 C267.588049,261.40255 267.593819,256.462659 264.406731,256.462659 C261.224588,256.462659 261.219643,261.40255 264.406731,261.40255" id="Fill-17" fill="#0D0E1F"></path>
                    <path d="M412.209066,375.568364 L473.198077,375.568364 C476.379396,375.568364 476.385165,370.628474 473.198077,370.628474 L412.209066,370.628474 C409.026923,370.628474 409.021978,375.568364 412.209066,375.568364" id="Fill-19" fill="#0D0E1F"></path>
                    <path d="M483.088187,375.020036 C486.269505,375.020036 486.275275,370.080146 483.088187,370.080146 C479.906044,370.080146 479.901099,375.020036 483.088187,375.020036" id="Fill-21" fill="#0D0E1F"></path>
                    <path d="M225.561429,426.673427 L175.011429,426.673427 L175.011429,361.977325 C175.011429,359.173937 177.287802,356.900764 180.094121,356.900764 L220.478736,356.900764 C223.285879,356.900764 225.561429,359.173937 225.561429,361.977325 L225.561429,426.673427 Z" id="Stroke-23" stroke="#0D0E1F" stroke-width="6" stroke-linejoin="round"></path>
                    <line x1="175.011841" y1="380.501833" x2="225.561841" y2="380.501833" id="Stroke-25" stroke="#0D0E1F" stroke-width="6" stroke-linejoin="round"></line>
                    <line x1="175.011841" y1="400.810547" x2="225.561841" y2="400.810547" id="Stroke-27" stroke="#0D0E1F" stroke-width="6" stroke-linejoin="round"></line>
                    <path d="M184.077775,415.767713 C186.729148,415.767713 186.734093,411.651137 184.077775,411.651137 C181.426401,411.651137 181.421456,415.767713 184.077775,415.767713" id="Fill-29" fill="#0D0E1F"></path>
                    <path d="M192.45717,415.767713 C195.108544,415.767713 195.113489,411.651137 192.45717,411.651137 C189.805797,411.651137 189.800852,415.767713 192.45717,415.767713" id="Fill-31" fill="#0D0E1F"></path>
                    <polyline id="Stroke-33" stroke="#0D0E1F" stroke-width="6" stroke-linejoin="round" points="192.432198 356.897471 188.945934 328.657762 187.478901 316.811081 179.912967 317.748837 181.38 329.596342 184.750879 356.897471"></polyline>
                    <line x1="181.377445" y1="329.593789" x2="188.944203" y2="328.66015" id="Stroke-35" stroke="#0D0E1F" stroke-width="6" stroke-linejoin="round"></line>
                    <path d="M216.292253,356.897471 L219.407637,338.784538 L220.87467,330.255817 C221.311484,327.73565 219.613681,325.339803 217.091703,324.904269 L211.001044,323.866068 C208.479066,323.430535 206.080714,325.125741 205.652143,327.645908 L204.18511,336.17463 L200.62467,356.897471" id="Stroke-37" stroke="#0D0E1F" stroke-width="6" stroke-linejoin="round"></path>
                    <line x1="204.185522" y1="336.177099" x2="219.408874" y2="338.787008" id="Stroke-39" stroke="#0D0E1F" stroke-width="6" stroke-linejoin="round"></line>
                    <path d="M89.2347527,329.748984 C93.0811813,329.806616 96.9276099,329.865895 100.774863,329.92435 C102.366346,329.948227 102.36717,327.478281 100.774863,327.454405 C96.9276099,327.39595 93.0811813,327.336671 89.2347527,327.279039 C87.6432692,327.255163 87.6424451,329.725108 89.2347527,329.748984" id="Fill-41" fill="#0D0E1F"></path>
                    <path d="M94.3194231,337.627534 L101.221896,337.627534 C101.868874,337.627534 102.48783,337.06027 102.458159,336.392561 C102.427665,335.723206 101.915027,335.157588 101.221896,335.157588 L94.3194231,335.157588 C93.6724451,335.157588 93.0526648,335.724852 93.0831593,336.392561 C93.1128297,337.061916 93.6262912,337.627534 94.3194231,337.627534" id="Fill-43" fill="#0D0E1F"></path>
                    <path d="M95.5556868,338.965421 L101.943049,338.965421 C102.590027,338.965421 103.208984,338.398157 103.179313,337.730448 C103.148819,337.061093 102.636181,336.495475 101.943049,336.495475 L95.5556868,336.495475 C94.9087088,336.495475 94.2889286,337.06274 94.3194231,337.730448 C94.3490934,338.399803 94.8625549,338.965421 95.5556868,338.965421" id="Fill-45" fill="#0D0E1F"></path>
                    <path d="M111.215027,381.057406 L119.044698,381.057406 C119.691676,381.057406 120.310632,380.490142 120.280962,379.822434 C120.250467,379.153078 119.73783,378.587461 119.044698,378.587461 L111.215027,378.587461 C110.568049,378.587461 109.948269,379.154725 109.978764,379.822434 C110.008434,380.491789 110.521896,381.057406 111.215027,381.057406" id="Fill-47" fill="#0D0E1F"></path>
                    <path d="M100.154258,267.160898 C102.202335,268.482319 104.251236,269.805387 106.299313,271.127631 C106.843269,271.479186 107.688049,271.256891 107.990522,270.684687 C108.315247,270.070494 108.128159,269.369853 107.547115,268.995244 C105.499038,267.672177 103.450962,266.350756 101.40206,265.027689 C100.858104,264.676133 100.013324,264.899252 99.7108516,265.470632 C99.3861264,266.084826 99.5732143,266.785467 100.154258,267.160898" id="Fill-49" fill="#0D0E1F"></path>
                    <path d="M105.286484,261.349446 C106.919176,263.88114 109.101593,266.022583 111.673846,267.595938 C112.226044,267.933497 113.058462,267.734255 113.365879,267.152995 C113.684011,266.550328 113.510934,265.824164 112.922473,265.463552 C112.627418,265.283246 112.337308,265.096353 112.052967,264.900404 C111.917802,264.80737 111.783462,264.712689 111.650769,264.615537 C111.584835,264.566962 111.518901,264.518386 111.452967,264.468987 C111.414231,264.440171 111.147198,264.273038 111.39033,264.422058 C111.118352,264.254102 110.870275,264.003814 110.63044,263.793869 C110.37,263.566634 110.116978,263.332812 109.870549,263.091581 C109.388407,262.621468 108.931813,262.124186 108.504066,261.604674 C108.399396,261.47706 108.294725,261.35027 108.195824,261.219362 C108.357363,261.434248 108.213132,261.239945 108.179341,261.195486 C108.130714,261.129621 108.082088,261.062933 108.033462,260.997067 C107.820824,260.704791 107.617253,260.405927 107.421099,260.102124 C107.071648,259.559559 106.307637,259.287042 105.72989,259.65918 C105.186758,260.009089 104.911484,260.768186 105.286484,261.349446" id="Fill-51" fill="#0D0E1F"></path>
                    <path d="M106.230577,260.686184 C107.020137,261.425521 107.771786,262.204377 108.479753,263.021929 C108.823434,263.41959 109.154753,263.827131 109.480302,264.239612 C109.574258,264.359816 109.338544,264.055189 109.479478,264.239612 C109.515742,264.288187 109.552005,264.33594 109.588269,264.383692 C109.669038,264.491546 109.750632,264.600224 109.829753,264.708901 C109.998709,264.93943 110.163544,265.171604 110.325907,265.406249 C110.693489,265.936464 111.427005,266.229564 112.017115,265.849193 C112.545412,265.509164 112.854478,264.727838 112.461346,264.15975 C111.151731,262.270242 109.656676,260.511641 107.979478,258.939932 C107.507225,258.497812 106.692115,258.43771 106.230577,258.939932 C105.789643,259.419925 105.727005,260.214424 106.230577,260.686184" id="Fill-53" fill="#0D0E1F"></path>
                    <path d="M129.089753,218.813694 C129.981511,221.355268 131.340577,223.673723 133.124918,225.691668 C133.555137,226.177424 134.441126,226.162605 134.873819,225.691668 C135.350192,225.173803 135.33206,224.463282 134.873819,223.944594 C134.681786,223.728062 134.493874,223.507413 134.310907,223.282648 C134.265577,223.22584 134.220247,223.169031 134.174918,223.113046 C133.958984,222.841352 134.254038,223.22337 134.136181,223.061177 C134.050467,222.945089 133.96228,222.829825 133.87739,222.712091 C133.527115,222.227158 133.199918,221.726583 132.897445,221.211188 C132.604038,220.711435 132.333709,220.197687 132.08728,219.673235 C132.025467,219.542328 131.965302,219.410597 131.906786,219.27722 C131.894423,219.250051 131.779038,218.97918 131.840027,219.12573 C131.893599,219.253344 131.807885,219.043399 131.798819,219.021993 C131.683434,218.736302 131.576291,218.448142 131.474093,218.157512 C131.260632,217.549082 130.618599,217.079792 129.953489,217.294678 C129.351016,217.489803 128.860632,218.161628 129.089753,218.813694" id="Fill-55" fill="#0D0E1F"></path>
                    <path d="M136.661456,229.361596 C138.252115,229.361596 138.255412,226.89165 136.661456,226.89165 C135.069973,226.89165 135.0675,229.361596 136.661456,229.361596" id="Fill-57" fill="#0D0E1F"></path>
                    <path d="M640.471154,325.071978 L626.254121,325.071978 C623.57967,325.071978 621.412088,327.237297 621.412088,329.908954 L621.412088,428.052233 L645.313187,428.052233 L645.313187,329.908954 C645.313187,327.237297 643.145604,325.071978 640.471154,325.071978 Z" id="Stroke-59" stroke="#0D0E1F" stroke-width="6"></path>
                    <path d="M664.372253,343.459075 L650.15522,343.459075 C647.480769,343.459075 645.313187,345.625217 645.313187,348.296051 L645.313187,428.052233 L669.214286,428.052233 L669.214286,348.296051 C669.214286,345.625217 667.046703,343.459075 664.372253,343.459075 Z" id="Stroke-61" stroke="#0D0E1F" stroke-width="6"></path>
                    <path d="M688.273352,308.87984 L674.056319,308.87984 C671.381868,308.87984 669.214286,311.045982 669.214286,313.716816 L669.214286,428.052233 L693.115385,428.052233 L693.115385,313.716816 C693.115385,311.045982 690.947802,308.87984 688.273352,308.87984 Z" id="Stroke-63" stroke="#0D0E1F" stroke-width="6"></path>
                    <path d="M712.174451,329.188554 L697.957418,329.188554 C695.282967,329.188554 693.115385,331.353872 693.115385,334.02553 L693.115385,428.052233 L717.016484,428.052233 L717.016484,334.02553 C717.016484,331.353872 714.848901,329.188554 712.174451,329.188554 Z" id="Stroke-65" stroke="#0D0E1F" stroke-width="6"></path>
                    <line x1="621.412088" y1="361.709501" x2="645.313187" y2="361.709501" id="Stroke-67" stroke="#0D0E1F" stroke-width="6"></line>
                    <line x1="621.412088" y1="385.756066" x2="645.313187" y2="385.756066" id="Stroke-69" stroke="#0D0E1F" stroke-width="6"></line>
                    <path d="M657.263736,405.962689 L657.263736,405.962689 C654.75989,405.962689 652.730769,403.935687 652.730769,401.434455 L652.730769,369.942652 C652.730769,367.441421 654.75989,365.414419 657.263736,365.414419 C659.767582,365.414419 661.796703,367.441421 661.796703,369.942652 L661.796703,401.434455 C661.796703,403.935687 659.767582,405.962689 657.263736,405.962689" id="Fill-71" fill="#0D0E1F"></path>
                    <line x1="669.214286" y1="412.755038" x2="693.115385" y2="412.755038" id="Stroke-73" stroke="#0D0E1F" stroke-width="6"></line>
                    <mask id="mask-2" fill="white">
                        <use xlink:href="#path-1"></use>
                    </mask>
                    <g id="Clip-76"></g>
                    <polygon id="Fill-75" fill="#0D0E1F" mask="url(#mask-2)" points="700.739011 363.903636 709.186813 363.903636 709.186813 349.289792 700.739011 349.289792"></polygon>
                    <polygon id="Fill-77" fill="#0D0E1F" mask="url(#mask-2)" points="700.739011 403.834419 709.186813 403.834419 709.186813 371.449319 700.739011 371.449319"></polygon>
                    <path d="M681.71456,322.052882 L681.71456,350.868911 C681.71456,352.988124 685.011264,352.991417 685.011264,350.868911 L685.011264,322.052882 C685.011264,319.934492 681.71456,319.930375 681.71456,322.052882" id="Fill-78" fill="#0D0E1F" mask="url(#mask-2)"></path>
                    <path d="M683.087637,359.925377 C685.209066,359.925377 685.212363,356.632117 683.087637,356.632117 C680.967033,356.632117 680.962912,359.925377 683.087637,359.925377" id="Fill-79" fill="#0D0E1F" mask="url(#mask-2)"></path>
                    <path d="M683.087637,366.786885 C685.209066,366.786885 685.212363,363.493625 683.087637,363.493625 C680.967033,363.493625 680.962912,366.786885 683.087637,366.786885" id="Fill-80" fill="#0D0E1F" mask="url(#mask-2)"></path>
                    <path d="M635.28544,398.896175 L635.28544,406.580175 C635.28544,407.441362 636.043681,408.267148 636.933791,408.226805 C637.827198,408.186463 638.582143,407.503111 638.582143,406.580175 L638.582143,398.896175 C638.582143,398.034164 637.823901,397.209202 636.933791,397.249545 C636.041209,397.289064 635.28544,397.973239 635.28544,398.896175" id="Fill-81" fill="#0D0E1F" mask="url(#mask-2)"></path>
                    <path d="M636.659341,414.298754 C638.780769,414.298754 638.784066,411.005494 636.659341,411.005494 C634.537912,411.005494 634.534615,414.298754 636.659341,414.298754" id="Fill-82" fill="#0D0E1F" mask="url(#mask-2)"></path>
                    <path d="M629.85989,342.773253 L629.85989,344.831541 C629.85989,345.253902 630.043681,345.697668 630.342857,345.995709 C630.492033,346.156255 630.668407,346.269872 630.872802,346.336561 C631.06978,346.439475 631.281593,346.487228 631.508242,346.478171 C631.935165,346.459235 632.376923,346.319271 632.673626,345.995709 C632.969505,345.672969 633.156593,345.277778 633.156593,344.831541 L633.156593,342.773253 C633.156593,342.350893 632.972802,341.907126 632.673626,341.609086 C632.524451,341.448539 632.348077,341.334922 632.143681,341.268233 C631.946703,341.165319 631.73489,341.117566 631.508242,341.126623 C631.081319,341.145559 630.63956,341.285523 630.342857,341.609086 C630.046978,341.931825 629.85989,342.327016 629.85989,342.773253" id="Fill-83" fill="#0D0E1F" mask="url(#mask-2)"></path>
                    <path d="M631.508242,339.685821 C633.62967,339.685821 633.632967,336.392561 631.508242,336.392561 C629.386813,336.392561 629.383516,339.685821 631.508242,339.685821" id="Fill-84" fill="#0D0E1F" mask="url(#mask-2)"></path>
                    <line x1="427.593132" y1="206.96726" x2="427.593132" y2="238.623726" id="Stroke-85" stroke="#0D0E1F" stroke-width="6" stroke-linejoin="round" mask="url(#mask-2)"></line>
                    <line x1="321.549313" y1="238.623891" x2="321.549313" y2="206.967424" id="Stroke-86" stroke="#0D0E1F" stroke-width="7" stroke-linejoin="round" mask="url(#mask-2)"></line>
                    <path d="M321.549313,222.233169 C321.549313,222.233169 315.505632,211.728491 308.912225,217.217533 C302.318819,222.706575 310.835027,238.623726 315.230357,238.623726" id="Stroke-87" stroke="#0D0E1F" stroke-width="6" stroke-linejoin="round" mask="url(#mask-2)"></path>
                    <path d="M427.593132,222.233169 C427.593132,222.233169 433.637637,211.728491 440.231044,217.217533 C446.824451,222.706575 438.307418,238.623726 433.912088,238.623726" id="Stroke-88" stroke="#0D0E1F" stroke-width="6" stroke-linejoin="round" mask="url(#mask-2)"></path>
                    <path d="M347.92294,238.07474 L347.92294,238.07474 C345.64739,238.07474 343.80206,236.23216 343.80206,233.958164 L343.80206,230.39074 C343.80206,228.116743 345.64739,226.274164 347.92294,226.274164 C350.199313,226.274164 352.043819,228.116743 352.043819,230.39074 L352.043819,233.958164 C352.043819,236.23216 350.199313,238.07474 347.92294,238.07474" id="Fill-89" fill="#0D0E1F" mask="url(#mask-2)"></path>
                    <path d="M347.92294,238.07474 L347.92294,238.07474 C345.64739,238.07474 343.80206,236.23216 343.80206,233.958164 L343.80206,230.39074 C343.80206,228.116743 345.64739,226.274164 347.92294,226.274164 C350.199313,226.274164 352.043819,228.116743 352.043819,230.39074 L352.043819,233.958164 C352.043819,236.23216 350.199313,238.07474 347.92294,238.07474 Z" id="Stroke-90" stroke="#0D0E1F" stroke-width="5" mask="url(#mask-2)"></path>
                    <path d="M401.219505,238.07474 L401.219505,238.07474 C403.495879,238.07474 405.340385,236.23216 405.340385,233.958164 L405.340385,230.39074 C405.340385,228.116743 403.495879,226.274164 401.219505,226.274164 C398.943956,226.274164 397.098626,228.116743 397.098626,230.39074 L397.098626,233.958164 C397.098626,236.23216 398.943956,238.07474 401.219505,238.07474" id="Fill-91" fill="#0D0E1F" mask="url(#mask-2)"></path>
                    <path d="M401.219505,238.07474 L401.219505,238.07474 C403.495879,238.07474 405.340385,236.23216 405.340385,233.958164 L405.340385,230.39074 C405.340385,228.116743 403.495879,226.274164 401.219505,226.274164 C398.943956,226.274164 397.098626,228.116743 397.098626,230.39074 L397.098626,233.958164 C397.098626,236.23216 398.943956,238.07474 401.219505,238.07474 Z" id="Stroke-92" stroke="#0D0E1F" stroke-width="5" mask="url(#mask-2)"></path>
                    <path d="M314.570027,226.935039 C316.244753,228.844307 318.300247,230.442361 320.564258,231.595003 C321.139533,231.888926 321.931566,231.764605 322.255467,231.152059 C322.553819,230.588088 322.426896,229.775476 321.81206,229.462616 C321.275522,229.189276 320.751346,228.892882 320.242005,228.570966 C319.994753,228.414536 319.750797,228.252343 319.510962,228.084387 C319.390632,228.000409 319.271951,227.914784 319.153269,227.829159 C319.087335,227.780584 319.022225,227.732008 318.95794,227.682609 C318.907665,227.64556 318.713159,227.527826 318.936511,227.668613 C318.455192,227.364809 318.016731,226.912809 317.603819,226.524205 C317.153819,226.099374 316.726071,225.653137 316.318929,225.188788 C315.891181,224.701385 315.001071,224.719498 314.570027,225.188788 C314.092005,225.708299 314.114258,226.414704 314.570027,226.935039" id="Fill-93" fill="#0D0E1F" mask="url(#mask-2)"></path>
                    <path d="M430.343324,231.324214 C432.269423,230.500899 433.909533,228.999996 434.962005,227.196112 C435.288379,226.637905 435.109533,225.818706 434.518599,225.50667 C433.926841,225.194633 433.176016,225.353533 432.82739,225.949613 C432.711181,226.148855 432.588379,226.343981 432.456511,226.534167 C432.388104,226.632965 432.317225,226.730116 432.245522,226.827267 C432.120247,226.9944 432.391401,226.642844 432.296621,226.758932 C432.262005,226.801744 432.228214,226.84538 432.192775,226.886546 C431.898544,227.242218 431.576291,227.573191 431.230962,227.87864 C431.148544,227.951915 431.064478,228.022721 430.979588,228.091879 C430.937555,228.127282 430.893874,228.161038 430.851016,228.195617 C430.734808,228.289475 431.086731,228.019427 430.918599,228.142925 C430.733159,228.279595 430.543599,228.411325 430.349093,228.534823 C429.948544,228.78758 429.529863,229.005759 429.094698,229.191005 C428.830962,229.304622 428.599368,229.666058 428.526841,229.929518 C428.445247,230.225089 428.482335,230.618633 428.651291,230.881271 C428.821071,231.144732 429.074918,231.376083 429.390577,231.448535 C429.736731,231.527573 430.019423,231.461708 430.343324,231.324214" id="Fill-94" fill="#0D0E1F" mask="url(#mask-2)"></path>
                    <polyline id="Stroke-95" stroke="#0D0E1F" stroke-width="5" mask="url(#mask-2)" points="347.352692 417.4891 271.549121 417.4891 271.549121 428.052233"></polyline>
                    <polyline id="Stroke-96" stroke="#0D0E1F" stroke-width="5" mask="url(#mask-2)" points="401.790165 417.4891 477.593736 417.4891 477.593736 428.052233"></polyline>
                    <path d="M329.744423,395.877078 L331.08783,400.059519 C333.354313,407.131796 329.464203,414.706295 322.384533,416.970412 C315.304863,419.242761 307.722445,415.348481 305.44772,408.276204 L301.466951,395.877078" id="Stroke-97" stroke="#0D0E1F" stroke-width="5" mask="url(#mask-2)"></path>
                    <path d="M460.589093,395.877078 L461.100082,402.833268 C461.38772,410.2571 455.598709,416.510179 448.168764,416.796692 C440.741291,417.093086 434.489093,411.306827 434.194038,403.887111 L434.021786,395.877078" id="Stroke-98" stroke="#0D0E1F" stroke-width="5" mask="url(#mask-2)"></path>
                    <polygon id="Stroke-99" stroke="#0D0E1F" stroke-width="6" stroke-linejoin="round" mask="url(#mask-2)" points="529.541209 428.052233 585.585165 428.052233 585.585165 412.755038 529.541209 412.755038"></polygon>
                    <polygon id="Stroke-100" stroke="#0D0E1F" stroke-width="6" stroke-linejoin="round" mask="url(#mask-2)" points="532.013736 412.755038 583.112637 412.755038 583.112637 336.460896 532.013736 336.460896"></polygon>
                    <path d="M583.112885,350.868911 L591.766731,350.868911 C591.766731,350.868911 596.505742,352.653035 596.505742,356.152124 L596.505742,389.702215 C596.505742,389.702215 596.505742,398.896175 583.112885,398.896175" id="Stroke-101" stroke="#0D0E1F" stroke-width="6" stroke-linejoin="round" mask="url(#mask-2)"></path>
                    <path d="M532.838159,401.777778 L552.068654,401.777778 C554.190082,401.777778 554.193379,398.484517 552.068654,398.484517 L532.838159,398.484517 C530.716731,398.484517 530.713434,401.777778 532.838159,401.777778" id="Fill-102" fill="#0D0E1F" mask="url(#mask-2)"></path>
                    <path d="M558.524423,348.398965 L584.651621,348.398965 C586.773049,348.398965 586.776346,345.105705 584.651621,345.105705 L584.073874,345.105705 C581.953269,345.105705 581.949148,348.398965 584.073874,348.398965 L584.651621,348.398965 C586.773049,348.398965 586.776346,345.105705 584.651621,345.105705 L558.524423,345.105705 C556.403819,345.105705 556.399698,348.398965 558.524423,348.398965" id="Fill-103" fill="#0D0E1F" mask="url(#mask-2)"></path>
                    <path d="M358.12533,51.8363315 C358.12533,60.7964699 350.853626,68.0605792 341.884121,68.0605792 C332.914615,68.0605792 325.642912,60.7964699 325.642912,51.8363315 C325.642912,42.8761931 332.914615,35.6120838 341.884121,35.6120838 C350.853626,35.6120838 358.12533,42.8761931 358.12533,51.8363315 Z" id="Stroke-104" stroke="#0D0E1F" stroke-width="6" stroke-linejoin="round" mask="url(#mask-2)"></path>
                    <path d="M388.894698,59.3835789 L388.894698,44.2897428 L376.541951,44.2897428 C375.631236,40.0998922 373.978764,36.1891454 371.728764,32.6958193 L380.4675,23.9662091 L369.783709,13.2935752 L361.044148,22.0231854 C357.547995,19.7755352 353.633159,18.123965 349.438929,17.2150251 L349.438929,4.87517814 L334.329313,4.87517814 L334.329313,17.2150251 C330.135082,18.123965 326.221071,19.7755352 322.724093,22.0231854 L313.985357,13.2935752 L303.300742,23.9662091 L312.039478,32.6958193 C309.790302,36.1891454 308.137005,40.0998922 307.227115,44.2897428 L294.873544,44.2897428 L294.873544,59.3835789 L307.227115,59.3835789 C308.137005,63.5734295 309.790302,67.483353 312.039478,70.9766791 L303.300742,79.7062893 L313.985357,90.3789231 L322.724093,81.6501362 C326.221071,83.8969632 330.135082,85.5485333 334.329313,86.4574732 L334.329313,98.7973202 L349.438929,98.7973202 L349.438929,86.4574732 C353.633159,85.5485333 357.547995,83.8969632 361.044148,81.6501362 L369.783709,90.3789231 L380.4675,79.7062893 L371.728764,70.9766791 C373.978764,67.483353 375.631236,63.5734295 376.541951,59.3835789 L388.894698,59.3835789 Z" id="Stroke-105" stroke="#0D0E1F" stroke-width="6" stroke-linejoin="round" mask="url(#mask-2)"></path>
                    <path d="M432.996923,81.9757574 C431.931264,87.9093894 426.252692,91.8555388 420.312857,90.7918157 C414.373846,89.7272692 410.422747,84.0538047 411.488407,78.120996 C412.554066,72.1881872 418.232637,68.2412146 424.172473,69.305761 C430.111484,70.3694842 434.062582,76.0421253 432.996923,81.9757574 Z" id="Stroke-106" stroke="#0D0E1F" stroke-width="6" stroke-linejoin="round" mask="url(#mask-2)"></path>
                    <path d="M452.473764,90.6249297 L454.268819,80.6298842 L446.088874,79.1643832 C445.985027,76.281957 445.355357,73.4958587 444.281456,70.9164124 L451.105632,66.1724707 L445.300137,57.8372284 L438.475962,62.5803468 C436.42706,60.6776656 434.032005,59.1199534 431.3625,58.0200044 L432.830357,49.8486018 L422.824863,48.0554215 L421.357005,56.226824 C418.471566,56.3313851 415.683379,56.9595745 413.101236,58.0331774 L408.352335,51.2153049 L400.008379,57.0147366 L404.75728,63.8326091 C402.851786,65.8785472 401.291621,68.2719242 400.191346,70.9378186 L392.012225,69.4723177 L390.216346,79.4665399 L398.396291,80.9328641 C398.500962,83.8152903 399.129808,86.6005654 400.204533,89.180835 L393.379533,93.9239534 L399.185852,102.259196 L406.010027,97.5160772 C408.058104,99.4195818 410.453984,100.977294 413.122665,102.077243 L411.655632,110.247822 L421.660302,112.041003 L423.128159,103.8696 C426.013599,103.765862 428.801786,103.13685 431.384753,102.06407 L436.13283,108.881119 L444.476786,103.081687 L439.728709,96.2646383 C441.634203,94.2187002 443.19272,91.8253231 444.293819,89.1586055 L452.473764,90.6249297 Z" id="Stroke-107" stroke="#0D0E1F" stroke-width="6" stroke-linejoin="round" mask="url(#mask-2)"></path>
                    <path d="M683.035714,183.599271 L540.865385,183.599271 C535.74478,183.599271 531.593407,179.452233 531.593407,174.336976 L531.593407,88.3005464 C531.593407,83.1852896 535.74478,79.0382514 540.865385,79.0382514 L683.035714,79.0382514 C688.156319,79.0382514 692.307692,83.1852896 692.307692,88.3005464 L692.307692,174.336976 C692.307692,179.452233 688.156319,183.599271 683.035714,183.599271 Z" id="Stroke-108" stroke="#0D0E1F" stroke-width="6" stroke-linejoin="round" mask="url(#mask-2)"></path>
                    <path d="M329.81967,15.8861945 C328.617198,13.287812 327.414725,10.6894295 326.212253,8.09187031 C325.758132,7.111302 324.266374,6.79103242 323.392747,7.35335665 C322.381484,8.00459891 322.168022,9.12101421 322.653462,10.1690944 C323.855934,12.7674769 325.059231,15.3658594 326.261703,17.9634186 C326.715,18.9439869 328.206758,19.2650798 329.080385,18.7019322 C330.092473,18.05069 330.30511,16.9342747 329.81967,15.8861945" id="Fill-110" fill="#0D0E1F" mask="url(#mask-2)"></path>
                    <path d="M321.274863,4.11616393 C323.926236,4.11616393 323.930357,-0.000411657559 321.274863,-0.000411657559 C318.623489,-0.000411657559 318.618544,4.11616393 321.274863,4.11616393" id="Fill-111" fill="#0D0E1F" mask="url(#mask-2)"></path>
                    <path d="M374.556181,38.9723621 C375.44794,39.7866208 376.6875,40.0550215 377.825687,39.6071381 C378.815522,39.2160634 379.570467,38.5705843 380.398764,37.9176954 C381.772665,36.8342128 383.146566,35.7507301 384.519643,34.6672474 C384.906181,34.3634441 385.12294,33.6784459 385.12294,33.2124495 C385.12294,32.7077574 384.898764,32.1042674 384.519643,31.7568284 C384.127335,31.3962164 383.611401,31.1294623 383.0625,31.1541617 C382.481456,31.1796845 382.059478,31.3995097 381.606181,31.7568284 L378.419093,34.2704095 C377.905632,34.6746572 377.389698,35.0756117 376.879533,35.4831526 C376.535027,35.7597865 377.274313,35.2139286 376.832555,35.5152619 C376.745192,35.5745406 376.657005,35.630526 376.565522,35.6823949 C376.504533,35.7169741 376.44272,35.7499067 376.380082,35.7811927 C376.715522,35.6478157 376.784753,35.6181763 376.587775,35.6922747 C376.460852,35.7268539 376.341346,35.7614332 376.211126,35.7787228 C376.393269,35.7540233 376.575412,35.7301472 376.758379,35.7054477 C376.665247,35.7112109 376.581181,35.7103876 376.488049,35.7005078 C376.670192,35.7252073 376.852335,35.7490834 377.035302,35.7737829 C376.834203,35.7268539 376.914148,35.7696663 377.276786,35.9030434 C377.10206,35.7993056 377.16717,35.8519978 377.469643,36.0611199 C376.674313,35.3349559 375.331731,35.2172219 374.556181,36.0611199 C373.829258,36.8523257 373.706456,38.1967993 374.556181,38.9723621" id="Fill-112" fill="#0D0E1F" mask="url(#mask-2)"></path>
                    <path d="M389.612637,32.5892823 C392.264011,32.5892823 392.268956,28.4727067 389.612637,28.4727067 C386.961264,28.4727067 386.956319,32.5892823 389.612637,32.5892823" id="Fill-113" fill="#0D0E1F" mask="url(#mask-2)"></path>
                    <path d="M306.481978,63.9186455 C301.079505,66.715447 295.168516,68.6189515 289.12978,69.4150973 C288.026209,69.560824 287.069341,70.2573486 287.069341,71.4733851 C287.069341,72.4728896 288.018791,73.678223 289.12978,73.5316729 C295.934176,72.6342594 302.461648,70.6311337 308.561374,67.4728969 C310.916868,66.2535672 308.835824,62.7009625 306.481978,63.9186455" id="Fill-114" fill="#0D0E1F" mask="url(#mask-2)"></path>
                    <path d="M281.988874,73.5492095 C284.640247,73.5492095 284.645192,69.4326339 281.988874,69.4326339 C279.3375,69.4326339 279.333379,73.5492095 281.988874,73.5492095" id="Fill-115" fill="#0D0E1F" mask="url(#mask-2)"></path>
                    <path d="M354.691813,86.872177 C355.427802,88.6999366 356.163791,90.5285195 356.89978,92.3571024 C357.107473,92.8733209 357.347308,93.2948583 357.845934,93.5871352 C358.287692,93.8448328 358.938791,93.9543337 359.434121,93.7946106 C359.932747,93.6332408 360.413242,93.3244976 360.66544,92.8486215 C360.907747,92.3908583 361.075879,91.7651388 360.873132,91.2629166 C360.137143,89.4343337 359.401154,87.6057508 358.665989,85.7771679 C358.457473,85.2609494 358.217637,84.839412 357.719011,84.5471352 C357.277253,84.2894375 356.626154,84.1799366 356.130824,84.3396597 C355.633022,84.5010295 355.151703,84.8097727 354.899505,85.2856488 C354.657198,85.743412 354.489066,86.3691315 354.691813,86.872177" id="Fill-116" fill="#0D0E1F" mask="url(#mask-2)"></path>
                    <path d="M363.857143,102.090663 C366.508516,102.090663 366.513462,97.9740874 363.857143,97.9740874 C361.205769,97.9740874 361.200824,102.090663 363.857143,102.090663" id="Fill-117" fill="#0D0E1F" mask="url(#mask-2)"></path>
                    <path d="M396.468462,83.9789654 C396.133846,84.1535082 395.793462,84.3140546 395.446484,84.4614281 C395.610495,84.3922696 395.773681,84.3231111 395.937692,84.2539526 C394.862967,84.7026594 393.738791,85.0105792 392.584945,85.1744189 L393.133022,85.1003206 C392.851978,85.1381931 392.570934,85.1670091 392.28989,85.1892386 C391.736868,85.2312277 391.234121,85.3901275 390.832747,85.7919053 C390.475879,86.1484007 390.205549,86.7346011 390.229451,87.2475264 C390.252527,87.779388 390.428077,88.3318324 390.832747,88.7023242 C391.217637,89.0563497 391.747582,89.34698 392.28989,89.3058142 C394.493736,89.1378579 396.586319,88.5565974 398.547857,87.5332168 C399.505549,87.0342878 399.870659,85.6206557 399.287143,84.7174791 C398.658297,83.7434973 397.491264,83.4454572 396.468462,83.9789654" id="Fill-118" fill="#0D0E1F" mask="url(#mask-2)"></path>
                    <path d="M386.247527,89.6038543 C388.898901,89.6038543 388.903846,85.4872787 386.247527,85.4872787 C383.59533,85.4872787 383.591209,89.6038543 386.247527,89.6038543" id="Fill-119" fill="#0D0E1F" mask="url(#mask-2)"></path>
                    <path d="M436.876401,60.4570171 C439.822005,56.6903505 442.3275,52.64211 444.272555,48.2703067 C444.709368,47.2889151 444.590687,46.0127767 443.533269,45.454569 C442.636566,44.9811628 441.181896,45.1425326 440.713764,46.1930827 C439.795632,48.2571337 438.758819,50.2676692 437.598379,52.2065763 C437.018159,53.1756182 436.409093,54.1273705 435.770357,55.0593632 C435.451401,55.5253596 435.125027,55.9872393 434.79206,56.4433559 C434.625577,56.6705909 434.456621,56.8978259 434.286016,57.1234142 C434.201951,57.2362084 434.115412,57.3481792 434.030522,57.4601501 C434.136841,57.3234798 434.113764,57.3522958 433.96294,57.5457749 C433.301126,58.3929661 433.074478,59.6419352 433.96294,60.4570171 C434.702225,61.1354288 436.168434,61.3634871 436.876401,60.4570171" id="Fill-120" fill="#0D0E1F" mask="url(#mask-2)"></path>
                    <path d="M445.862637,41.0282623 C448.514011,41.0282623 448.518956,36.9116867 445.862637,36.9116867 C443.211264,36.9116867 443.206319,41.0282623 445.862637,41.0282623" id="Fill-121" fill="#0D0E1F" mask="url(#mask-2)"></path>
                    <path d="M443.325742,94.4693996 C446.784808,97.7371373 450.611456,100.629443 454.705962,103.0574 C455.633159,103.607374 457.007885,103.296984 457.524643,102.318886 C458.048819,101.326791 457.775192,100.090172 456.785357,99.502325 C454.840302,98.3496838 452.957885,97.0949515 451.149643,95.7373049 C451.044973,95.6582667 450.941126,95.5775818 450.836456,95.4993668 C450.567775,95.3009479 451.049093,95.6673231 450.786181,95.4623177 C450.553764,95.2811883 450.321346,95.0992357 450.091401,94.9148131 C449.65706,94.5665508 449.226841,94.2125253 448.80239,93.8527366 C447.926291,93.1125763 447.073269,92.3460699 446.240027,91.5581574 C445.456236,90.8179971 444.093874,90.7241392 443.325742,91.5581574 C442.588104,92.3608896 442.489203,93.6790171 443.325742,94.4693996" id="Fill-122" fill="#0D0E1F" mask="url(#mask-2)"></path>
                    <path d="M461.796429,106.618896 C464.448626,106.618896 464.452747,102.502321 461.796429,102.502321 C459.145055,102.502321 459.14011,106.618896 461.796429,106.618896" id="Fill-123" fill="#0D0E1F" mask="url(#mask-2)"></path>
                    <path d="M427.515824,209.81346 C427.367473,180.483682 403.67489,156.751624 374.461978,156.751624 C345.249066,156.751624 321.556484,180.483682 321.408132,209.81346" id="Stroke-124" stroke="#0D0E1F" stroke-width="6" stroke-linejoin="round" mask="url(#mask-2)"></path>
                    <path d="M345.637582,193.185623 C357.043352,194.986213 368.501044,195.615226 380.032912,194.969747 C383.054341,194.800144 383.074121,190.081725 380.032912,190.252152 C368.936209,190.874578 357.874121,190.370709 346.892802,188.637631 C343.920824,188.168341 342.640055,192.712217 345.637582,193.185623" id="Fill-125" fill="#0D0E1F" mask="url(#mask-2)"></path>
                    <path d="M388.773956,193.649067 C391.812692,193.649067 391.816813,188.932295 388.773956,188.932295 C385.736044,188.932295 385.731099,193.649067 388.773956,193.649067" id="Fill-126" fill="#0D0E1F" mask="url(#mask-2)"></path>
                    <path d="M396.800852,192.941593 C399.839588,192.941593 399.843709,188.22482 396.800852,188.22482 C393.762115,188.22482 393.757995,192.941593 396.800852,192.941593" id="Fill-127" fill="#0D0E1F" mask="url(#mask-2)"></path>
                    <polygon id="Fill-128" fill="#0D0E1F" mask="url(#mask-2)" points="555.296703 127.137967 570.253022 127.137967 570.253022 99.1600729 555.296703 99.1600729"></polygon>
                    <polygon id="Fill-129" fill="#0D0E1F" mask="url(#mask-2)" points="606.620604 127.137967 669.092308 127.137967 669.092308 122.693712 606.620604 122.693712"></polygon>
                    <path d="M616.362363,108.523636 C616.362363,111.18706 614.200549,113.345792 611.535165,113.345792 C608.868956,113.345792 606.707967,111.18706 606.707967,108.523636 C606.707967,105.860211 608.868956,103.701479 611.535165,103.701479 C614.200549,103.701479 616.362363,105.860211 616.362363,108.523636" id="Fill-130" fill="#0D0E1F" mask="url(#mask-2)"></path>
                    <path d="M633.435495,108.523636 C633.435495,111.18706 631.274505,113.345792 628.608297,113.345792 C625.942088,113.345792 623.781099,111.18706 623.781099,108.523636 C623.781099,105.860211 625.942088,103.701479 628.608297,103.701479 C631.274505,103.701479 633.435495,105.860211 633.435495,108.523636" id="Fill-131" fill="#0D0E1F" mask="url(#mask-2)"></path>
                    <path d="M650.508956,108.523636 C650.508956,111.18706 648.347967,113.345792 645.681758,113.345792 C643.015549,113.345792 640.85456,111.18706 640.85456,108.523636 C640.85456,105.860211 643.015549,103.701479 645.681758,103.701479 C648.347967,103.701479 650.508956,105.860211 650.508956,108.523636" id="Fill-132" fill="#0D0E1F" mask="url(#mask-2)"></path>
                    <polygon id="Fill-134" fill="#0D0E1F" mask="url(#mask-2)" points="606.347802 160.888947 616.723352 160.888947 616.723352 133.572998 606.347802 133.572998"></polygon>
                    <polygon id="Fill-135" fill="#0D0E1F" mask="url(#mask-2)" points="623.420604 160.888947 633.796154 160.888947 633.796154 133.572998 623.420604 133.572998"></polygon>
                    <polygon id="Fill-136" fill="#0D0E1F" mask="url(#mask-2)" points="640.493407 160.888947 650.86978 160.888947 650.86978 133.572998 640.493407 133.572998"></polygon>
                    <path d="M583.222335,118.741882 C578.972885,118.741882 578.979478,112.155361 583.222335,112.155361 C587.471786,112.155361 587.464368,118.741882 583.222335,118.741882 L583.222335,118.741882 Z M576.185522,127.13805 L591.141841,127.13805 L591.141841,99.1601552 L576.185522,99.1601552 L576.185522,127.13805 Z" id="Fill-146" fill="#0D0E1F" mask="url(#mask-2)"></path>
                    <path d="M566.189505,149.478705 L577.727967,149.478705 C581.977418,149.478705 581.97,156.065226 577.727967,156.065226 L566.189505,156.065226 C561.940055,156.065226 561.946648,149.478705 566.189505,149.478705 L566.189505,149.478705 Z M555.656538,160.888206 L591.142253,160.888206 L591.142253,133.572257 L555.656538,133.572257 L555.656538,160.888206 Z" id="Fill-147" fill="#0D0E1F" mask="url(#mask-2)"></path>
                    <path d="M558.703846,387.164758 C560.468407,387.164758 561.897527,388.593209 561.897527,390.355104 C561.897527,392.117821 560.468407,393.546273 558.703846,393.546273 C556.939286,393.546273 555.509341,392.117821 555.509341,390.355104 C555.509341,388.593209 556.939286,387.164758 558.703846,387.164758 Z" id="Stroke-148" stroke="#000000" stroke-width="4" stroke-linecap="round" stroke-linejoin="round" mask="url(#mask-2)"></path>
                    <path d="M558.703846,369.614643 C560.468407,369.614643 561.897527,371.043095 561.897527,372.805813 C561.897527,374.56853 560.468407,375.996982 558.703846,375.996982 C556.939286,375.996982 555.509341,374.56853 555.509341,372.805813 C555.509341,371.043095 556.939286,369.614643 558.703846,369.614643 Z" id="Stroke-149" stroke="#000000" stroke-width="4" stroke-linecap="round" stroke-linejoin="round" mask="url(#mask-2)"></path>
                    <path d="M549.121236,370.412189 C550.885797,370.412189 552.315742,371.84064 552.315742,373.603358 C552.315742,375.366076 550.885797,376.794528 549.121236,376.794528 C547.356676,376.794528 545.926731,375.366076 545.926731,373.603358 C545.926731,371.84064 547.356676,370.412189 549.121236,370.412189 Z" id="Stroke-150" stroke="#000000" stroke-width="4" stroke-linecap="round" stroke-linejoin="round" mask="url(#mask-2)"></path>
                    <path d="M568.286538,370.412189 C570.051099,370.412189 571.48022,371.84064 571.48022,373.603358 C571.48022,375.366076 570.051099,376.794528 568.286538,376.794528 C566.521978,376.794528 565.092033,375.366076 565.092033,373.603358 C565.092033,371.84064 566.521978,370.412189 568.286538,370.412189 Z" id="Stroke-151" stroke="#000000" stroke-width="4" stroke-linecap="round" stroke-linejoin="round" mask="url(#mask-2)"></path>
                    <path d="M563.495192,379.187246 C565.259753,379.187246 566.688874,380.615698 566.688874,382.378415 C566.688874,384.141133 565.259753,385.569585 563.495192,385.569585 C561.730632,385.569585 560.300687,384.141133 560.300687,382.378415 C560.300687,380.615698 561.730632,379.187246 563.495192,379.187246 Z" id="Stroke-152" stroke="#000000" stroke-width="4" stroke-linecap="round" stroke-linejoin="round" mask="url(#mask-2)"></path>
                    <path d="M553.912582,379.187246 C555.677143,379.187246 557.107088,380.615698 557.107088,382.378415 C557.107088,384.141133 555.677143,385.569585 553.912582,385.569585 C552.148022,385.569585 550.718077,384.141133 550.718077,382.378415 C550.718077,380.615698 552.148022,379.187246 553.912582,379.187246 Z" id="Stroke-153" stroke="#000000" stroke-width="4" stroke-linecap="round" stroke-linejoin="round" mask="url(#mask-2)"></path>
                    <line x1="558.703846" y1="366.424297" x2="558.703846" y2="356.851612" id="Stroke-154" stroke="#000000" stroke-width="4" stroke-linecap="round" stroke-linejoin="round" mask="url(#mask-2)"></line>
                    <path d="M562.757143,366.583444 C567.958516,367.54343 573.032967,364.380253 574.457143,359.292989 C574.576648,358.868158 574.328571,358.428508 573.903297,358.309127 C573.875275,358.300894 573.847253,358.295131 573.818407,358.291014 C568.617033,357.331029 563.542582,360.493382 562.118407,365.58147 C561.999725,366.0063 562.247802,366.44595 562.672253,366.565331 C562.700275,366.571918 562.728297,366.578504 562.757143,366.583444 Z" id="Stroke-155" stroke="#000000" stroke-width="4" stroke-linecap="round" stroke-linejoin="round" mask="url(#mask-2)"></path>
                    <path d="M554.650632,366.583444 C549.448434,367.548369 544.369863,364.383546 542.949808,359.292989 C542.831126,358.868158 543.079203,358.428508 543.504478,358.309127 C543.531676,358.300894 543.560522,358.295131 543.588544,358.291014 C548.789918,357.331029 553.865192,360.493382 555.288544,365.58147 C555.408049,366.0063 555.159973,366.44595 554.735522,366.565331 C554.706676,366.571918 554.678654,366.578504 554.650632,366.583444 Z" id="Stroke-156" stroke="#000000" stroke-width="4" stroke-linecap="round" stroke-linejoin="round" mask="url(#mask-2)"></path>
                    <path d="M164.246456,428.052315 C164.246456,428.052315 153.991236,415.087572 150.851951,415.087572 L133.271456,415.087572 L115.690137,415.087572 C112.550852,415.087572 102.296456,428.052315 102.296456,428.052315" id="Stroke-157" stroke="#0D0E1F" stroke-width="6" stroke-linejoin="round" mask="url(#mask-2)"></path>
                    <polyline id="Stroke-158" stroke="#0D0E1F" stroke-width="6" stroke-linejoin="round" mask="url(#mask-2)" points="122.613462 415.085102 81.9239011 310.845175 91.5173077 307.107325 133.673901 415.085102"></polyline>
                    <line x1="132.618709" y1="239.562141" x2="90.6269505" y2="299.920195" id="Stroke-159" stroke="#0D0E1F" stroke-width="6" stroke-linejoin="round" mask="url(#mask-2)"></line>
                    <polyline id="Stroke-160" stroke="#0D0E1F" stroke-width="6" stroke-linejoin="round" mask="url(#mask-2)" points="80.8686264 295.968118 124.723022 232.885714 130.005989 236.433379"></polyline>
                    <path d="M91.0227198,302.215351 C91.0227198,306.079992 87.8859066,309.213529 84.0172253,309.213529 C80.148544,309.213529 77.0117308,306.079992 77.0117308,302.215351 C77.0117308,298.349886 80.148544,295.217172 84.0172253,295.217172 C87.8859066,295.217172 91.0227198,298.349886 91.0227198,302.215351 Z" id="Stroke-161" stroke="#0D0E1F" stroke-width="6" stroke-linejoin="round" mask="url(#mask-2)"></path>
                    <path d="M149.996374,229.692898 L160.585385,213.842435 C141.926044,202.0221 118.990879,209.021925 118.990879,209.021925 C118.990879,209.021925 121.32,232.865131 139.406538,245.542537 L149.996374,229.692898 Z" id="Stroke-162" stroke="#0D0E1F" stroke-width="6" stroke-linejoin="round" mask="url(#mask-2)"></path>
                    <path d="M160.585549,213.842435 C160.585549,213.842435 172.656429,216.683695 177.488571,219.904504 L164.492143,239.35697 L151.495714,258.809437 C146.663571,255.587805 139.406703,245.542537 139.406703,245.542537" id="Stroke-163" stroke="#0D0E1F" stroke-width="6" stroke-linejoin="round" mask="url(#mask-2)"></path>
                    <path d="M60.2498077,361.33481 C74.6547527,375.721419 72.5564011,395.027335 61.2948626,406.286169 C50.0333242,417.54418 30.7270055,419.659277 16.301456,405.236442 L11.0638187,410.466963 C10.4943132,411.046577 10.4943132,411.974453 11.0638187,412.554067 C26.5566758,428.254686 51.8572253,428.436639 67.5742582,412.959961 C83.2921154,397.483284 83.4734341,372.209156 67.9805769,356.508537 C67.8462363,356.371867 67.7110714,356.236843 67.5742582,356.101819 C66.9940385,355.533732 66.0651923,355.533732 65.4849725,356.101819 L60.2498077,361.33481 Z" id="Stroke-164" stroke="#000000" stroke-width="6" stroke-linecap="round" stroke-linejoin="round" mask="url(#mask-2)"></path>
                    <line x1="16.2960165" y1="405.236689" x2="60.2501374" y2="361.331764" id="Stroke-165" stroke="#000000" stroke-width="6" stroke-linecap="round" stroke-linejoin="round" mask="url(#mask-2)"></line>
                    <path d="M50.8329396,391.646309 C52.5670055,393.376094 53.0351374,395.719249 51.8779945,396.873537 C50.7192033,398.027001 48.3793681,397.559358 46.6453022,395.829573 C44.9104121,394.099788 44.4422802,391.756633 45.5969505,390.602345 C46.7524451,389.448881 49.0988736,389.914054 50.8329396,391.646309 Z" id="Stroke-166" stroke="#000000" stroke-width="6" stroke-linecap="round" stroke-linejoin="round" mask="url(#mask-2)"></path>
                    <path d="M57.1128297,374.057581 C59.5655769,374.057581 61.5543132,375.379825 61.5543132,377.012459 C61.5543132,378.64427 59.5655769,379.967337 57.1128297,379.967337 C54.6600824,379.967337 52.6713462,378.64427 52.6713462,377.012459 C52.6713462,375.379825 54.6600824,374.057581 57.1128297,374.057581 Z" id="Stroke-167" stroke="#000000" stroke-width="6" stroke-linecap="round" stroke-linejoin="round" mask="url(#mask-2)"></path>
                    <path d="M34.9538736,402.100188 C34.9538736,404.553667 33.6285989,406.537033 31.9959066,406.537033 C30.3632143,406.537033 29.0346429,404.553667 29.0346429,402.100188 C29.0346429,399.646709 30.3599176,397.665813 31.9959066,397.665813 C33.6318956,397.665813 34.9538736,399.651649 34.9538736,402.100188 Z" id="Stroke-168" stroke="#000000" stroke-width="6" stroke-linecap="round" stroke-linejoin="round" mask="url(#mask-2)"></path>
                    <polygon id="Fill-169" fill="#000000" mask="url(#mask-2)" points="328.010769 319.281438 328.010769 311.83867 354.44044 299.398378 354.44044 307.384535 336.983571 315.424207 354.44044 323.682058 354.44044 331.72173"></polygon>
                    <polygon id="Fill-170" fill="#000000" mask="url(#mask-2)" points="382.719066 293.259329 390.441593 293.259329 367.601209 343.07648 359.933077 343.07648"></polygon>
                    <polygon id="Fill-171" fill="#000000" mask="url(#mask-2)" points="422.309258 311.83867 422.309258 319.281438 395.879588 331.72173 395.879588 323.682058 413.335632 315.424207 395.879588 307.384535 395.879588 299.398378"></polygon>
                    <path d="M667.582418,108.523636 C667.582418,111.18706 665.420604,113.345792 662.75522,113.345792 C660.089011,113.345792 657.928022,111.18706 657.928022,108.523636 C657.928022,105.860211 660.089011,103.701479 662.75522,103.701479 C665.420604,103.701479 667.582418,105.860211 667.582418,108.523636" id="Fill-133" fill="#0D0E1F" mask="url(#mask-2)"></path>
                    <polygon id="Fill-137" fill="#0D0E1F" mask="url(#mask-2)" points="657.567857 160.888947 667.943407 160.888947 667.943407 133.572998 657.567857 133.572998"></polygon>
                </g>
            </g>
        </g>
    </g>
</svg>