<?xml version="1.0" encoding="UTF-8"?>
<svg viewBox="0 0 909 547" version="1.1" xmlns="http://www.w3.org/2000/svg" xmlns:xlink="http://www.w3.org/1999/xlink">
    <defs>
        <polygon id="path-1" points="0 546.913 908.96 546.913 908.96 0 0 0"></polygon>
    </defs>
    <g id="Symbols" stroke="none" stroke-width="1" fill="none" fill-rule="evenodd">
        <g id="Clay-working" transform="translate(-1.000000, -1.000000)">
            <g id="Group-172" transform="translate(1.000000, 1.000000)">
                <path d="M460.3101,519.9131 L901.8401,519.9131 C904.1101,519.9131 905.9601,521.7531 905.9601,524.0331 L905.9601,539.7831 C905.9601,542.0631 904.1101,543.9131 901.8401,543.9131 L460.3101,543.9131" id="Stroke-1" stroke="#0D0E1F" stroke-width="6"></path>
                <path d="M469.231,543.9131 L7.31,543.9131 C4.936,543.9131 3,542.0631 3,539.7831 L3,524.0331 C3,521.7531 4.936,519.9131 7.31,519.9131 L469.231,519.9131" id="Stroke-3" stroke="#0D0E1F" stroke-width="6"></path>
                <polyline id="Stroke-5" stroke="#0D0E1F" stroke-width="5" points="493.147 519.9131 479.147 480.8331 454.48 480.8331 429.814 480.8331 415.814 519.9131"></polyline>
                <path d="M598.147,480.833 L310.814,480.833 C303.818,480.833 298.147,475.162 298.147,468.166 L298.147,302.5 C298.147,295.504 303.818,289.833 310.814,289.833 L598.147,289.833 C605.142,289.833 610.813,295.504 610.813,302.5 L610.813,468.166 C610.813,475.162 605.142,480.833 598.147,480.833 Z" id="Stroke-7" stroke="#0D0E1F" stroke-width="5"></path>
                <path d="M586.73,315.833 L565.73,315.833 C563.107,315.833 560.98,313.706 560.98,311.083 C560.98,308.46 563.107,306.333 565.73,306.333 L586.73,306.333 C589.353,306.333 591.48,308.46 591.48,311.083 C591.48,313.706 589.353,315.833 586.73,315.833" id="Fill-9" fill="#0D0E1F"></path>
                <path d="M323.8135,448.5 L323.8135,365.166 C323.8135,361.306 317.8135,361.299 317.8135,365.166 L317.8135,448.5 C317.8135,452.36 323.8135,452.367 323.8135,448.5" id="Fill-11" fill="#0D0E1F"></path>
                <path d="M320.8135,348.166 C324.6735,348.166 324.6805,342.166 320.8135,342.166 C316.9525,342.166 316.9465,348.166 320.8135,348.166" id="Fill-13" fill="#0D0E1F"></path>
                <path d="M320.8135,332.833 C324.6735,332.833 324.6805,326.833 320.8135,326.833 C316.9525,326.833 316.9465,332.833 320.8135,332.833" id="Fill-15" fill="#0D0E1F"></path>
                <path d="M320.8135,317.5 C324.6735,317.5 324.6805,311.5 320.8135,311.5 C316.9525,311.5 316.9465,317.5 320.8135,317.5" id="Fill-17" fill="#0D0E1F"></path>
                <path d="M500.147,456.166 L574.147,456.166 C578.007,456.166 578.014,450.166 574.147,450.166 L500.147,450.166 C496.286,450.166 496.28,456.166 500.147,456.166" id="Fill-19" fill="#0D0E1F"></path>
                <path d="M586.147,455.5 C590.007,455.5 590.014,449.5 586.147,449.5 C582.286,449.5 582.28,455.5 586.147,455.5" id="Fill-21" fill="#0D0E1F"></path>
                <path d="M273.6812,518.2383 L212.3472,518.2383 L212.3472,439.6583 C212.3472,436.2533 215.1092,433.4923 218.5142,433.4923 L267.5142,433.4923 C270.9202,433.4923 273.6812,436.2533 273.6812,439.6583 L273.6812,518.2383 Z" id="Stroke-23" stroke="#0D0E1F" stroke-width="6" stroke-linejoin="round"></path>
                <line x1="212.3477" y1="462.1582" x2="273.6817" y2="462.1582" id="Stroke-25" stroke="#0D0E1F" stroke-width="6" stroke-linejoin="round"></line>
                <line x1="212.3477" y1="486.8252" x2="273.6817" y2="486.8252" id="Stroke-27" stroke="#0D0E1F" stroke-width="6" stroke-linejoin="round"></line>
                <path d="M223.3477,504.9922 C226.5647,504.9922 226.5707,499.9922 223.3477,499.9922 C220.1307,499.9922 220.1247,504.9922 223.3477,504.9922" id="Fill-29" fill="#0D0E1F"></path>
                <path d="M233.5147,504.9922 C236.7317,504.9922 236.7377,499.9922 233.5147,499.9922 C230.2977,499.9922 230.2917,504.9922 233.5147,504.9922" id="Fill-31" fill="#0D0E1F"></path>
                <polyline id="Stroke-33" stroke="#0D0E1F" stroke-width="6" stroke-linejoin="round" points="233.4844 433.4883 229.2544 399.1883 227.4744 384.7993 218.2944 385.9383 220.0744 400.3283 224.1644 433.4883"></polyline>
                <line x1="220.0713" y1="400.3252" x2="229.2523" y2="399.1912" id="Stroke-35" stroke="#0D0E1F" stroke-width="6" stroke-linejoin="round"></line>
                <path d="M262.4346,433.4883 L266.2146,411.4883 L267.9946,401.1293 C268.5246,398.0683 266.4646,395.1583 263.4046,394.6293 L256.0146,393.3683 C252.9546,392.8393 250.0446,394.8983 249.5246,397.9593 L247.7446,408.3183 L243.4246,433.4883" id="Stroke-37" stroke="#0D0E1F" stroke-width="6" stroke-linejoin="round"></path>
                <line x1="247.7451" y1="408.3213" x2="266.2161" y2="411.4913" id="Stroke-39" stroke="#0D0E1F" stroke-width="6" stroke-linejoin="round"></line>
                <path d="M108.2715,400.5137 C112.9385,400.5837 117.6055,400.6557 122.2735,400.7267 C124.2045,400.7557 124.2055,397.7557 122.2735,397.7267 C117.6055,397.6557 112.9385,397.5837 108.2715,397.5137 C106.3405,397.4847 106.3395,400.4847 108.2715,400.5137" id="Fill-41" fill="#0D0E1F"></path>
                <path d="M114.4409,410.083 L122.8159,410.083 C123.6009,410.083 124.3519,409.394 124.3159,408.583 C124.2789,407.77 123.6569,407.083 122.8159,407.083 L114.4409,407.083 C113.6559,407.083 112.9039,407.772 112.9409,408.583 C112.9769,409.396 113.5999,410.083 114.4409,410.083" id="Fill-43" fill="#0D0E1F"></path>
                <path d="M115.9409,411.708 L123.6909,411.708 C124.4759,411.708 125.2269,411.019 125.1909,410.208 C125.1539,409.395 124.5319,408.708 123.6909,408.708 L115.9409,408.708 C115.1559,408.708 114.4039,409.397 114.4409,410.208 C114.4769,411.021 115.0999,411.708 115.9409,411.708" id="Fill-45" fill="#0D0E1F"></path>
                <path d="M134.9409,462.833 L144.4409,462.833 C145.2259,462.833 145.9769,462.144 145.9409,461.333 C145.9039,460.52 145.2819,459.833 144.4409,459.833 L134.9409,459.833 C134.1559,459.833 133.4039,460.522 133.4409,461.333 C133.4769,462.146 134.0999,462.833 134.9409,462.833" id="Fill-47" fill="#0D0E1F"></path>
                <path d="M121.5205,324.4941 C124.0055,326.0991 126.4915,327.7061 128.9765,329.3121 C129.6365,329.7391 130.6615,329.4691 131.0285,328.7741 C131.4225,328.0281 131.1955,327.1771 130.4905,326.7221 C128.0055,325.1151 125.5205,323.5101 123.0345,321.9031 C122.3745,321.4761 121.3495,321.7471 120.9825,322.4411 C120.5885,323.1871 120.8155,324.0381 121.5205,324.4941" id="Fill-49" fill="#0D0E1F"></path>
                <path d="M127.7476,317.4355 C129.7286,320.5105 132.3766,323.1115 135.4976,325.0225 C136.1676,325.4325 137.1776,325.1905 137.5506,324.4845 C137.9366,323.7525 137.7266,322.8705 137.0126,322.4325 C136.6546,322.2135 136.3026,321.9865 135.9576,321.7485 C135.7936,321.6355 135.6306,321.5205 135.4696,321.4025 C135.3896,321.3435 135.3096,321.2845 135.2296,321.2245 C135.1826,321.1895 134.8586,320.9865 135.1536,321.1675 C134.8236,320.9635 134.5226,320.6595 134.2316,320.4045 C133.9156,320.1285 133.6086,319.8445 133.3096,319.5515 C132.7246,318.9805 132.1706,318.3765 131.6516,317.7455 C131.5246,317.5905 131.3976,317.4365 131.2776,317.2775 C131.4736,317.5385 131.2986,317.3025 131.2576,317.2485 C131.1986,317.1685 131.1396,317.0875 131.0806,317.0075 C130.8226,316.6525 130.5756,316.2895 130.3376,315.9205 C129.9136,315.2615 128.9866,314.9305 128.2856,315.3825 C127.6266,315.8075 127.2926,316.7295 127.7476,317.4355" id="Fill-51" fill="#0D0E1F"></path>
                <path d="M128.8931,316.6299 C129.8511,317.5279 130.7631,318.4739 131.6221,319.4669 C132.0391,319.9499 132.4411,320.4449 132.8361,320.9459 C132.9501,321.0919 132.6641,320.7219 132.8351,320.9459 C132.8791,321.0049 132.9231,321.0629 132.9671,321.1209 C133.0651,321.2519 133.1641,321.3839 133.2601,321.5159 C133.4651,321.7959 133.6651,322.0779 133.8621,322.3629 C134.3081,323.0069 135.1981,323.3629 135.9141,322.9009 C136.5551,322.4879 136.9301,321.5389 136.4531,320.8489 C134.8641,318.5539 133.0501,316.4179 131.0151,314.5089 C130.4421,313.9719 129.4531,313.8989 128.8931,314.5089 C128.3581,315.0919 128.2821,316.0569 128.8931,316.6299" id="Fill-53" fill="#0D0E1F"></path>
                <path d="M156.6289,265.7715 C157.7109,268.8585 159.3599,271.6745 161.5249,274.1255 C162.0469,274.7155 163.1219,274.6975 163.6469,274.1255 C164.2249,273.4965 164.2029,272.6335 163.6469,272.0035 C163.4139,271.7405 163.1859,271.4725 162.9639,271.1995 C162.9089,271.1305 162.8539,271.0615 162.7989,270.9935 C162.5369,270.6635 162.8949,271.1275 162.7519,270.9305 C162.6479,270.7895 162.5409,270.6495 162.4379,270.5065 C162.0129,269.9175 161.6159,269.3095 161.2489,268.6835 C160.8929,268.0765 160.5649,267.4525 160.2659,266.8155 C160.1909,266.6565 160.1179,266.4965 160.0469,266.3345 C160.0319,266.3015 159.8919,265.9725 159.9659,266.1505 C160.0309,266.3055 159.9269,266.0505 159.9159,266.0245 C159.7759,265.6775 159.6459,265.3275 159.5219,264.9745 C159.2629,264.2355 158.4839,263.6655 157.6769,263.9265 C156.9459,264.1635 156.3509,264.9795 156.6289,265.7715" id="Fill-55" fill="#0D0E1F"></path>
                <path d="M165.8159,278.583 C167.7459,278.583 167.7499,275.583 165.8159,275.583 C163.8849,275.583 163.8819,278.583 165.8159,278.583" id="Fill-57" fill="#0D0E1F"></path>
                <path d="M777.105,394.833 L759.855,394.833 C756.61,394.833 753.98,397.463 753.98,400.708 L753.98,519.913 L782.98,519.913 L782.98,400.708 C782.98,397.463 780.35,394.833 777.105,394.833 Z" id="Stroke-59" stroke="#0D0E1F" stroke-width="6"></path>
                <path d="M806.105,417.166 L788.855,417.166 C785.61,417.166 782.98,419.797 782.98,423.041 L782.98,519.913 L811.98,519.913 L811.98,423.041 C811.98,419.797 809.35,417.166 806.105,417.166 Z" id="Stroke-61" stroke="#0D0E1F" stroke-width="6"></path>
                <path d="M835.105,375.166 L817.855,375.166 C814.61,375.166 811.98,377.797 811.98,381.041 L811.98,519.913 L840.98,519.913 L840.98,381.041 C840.98,377.797 838.35,375.166 835.105,375.166 Z" id="Stroke-63" stroke="#0D0E1F" stroke-width="6"></path>
                <path d="M864.105,399.833 L846.855,399.833 C843.61,399.833 840.98,402.463 840.98,405.708 L840.98,519.913 L869.98,519.913 L869.98,405.708 C869.98,402.463 867.35,399.833 864.105,399.833 Z" id="Stroke-65" stroke="#0D0E1F" stroke-width="6"></path>
                <line x1="753.98" y1="439.333" x2="782.98" y2="439.333" id="Stroke-67" stroke="#0D0E1F" stroke-width="6"></line>
                <line x1="753.98" y1="468.54" x2="782.98" y2="468.54" id="Stroke-69" stroke="#0D0E1F" stroke-width="6"></line>
                <path d="M797.48,493.083 L797.48,493.083 C794.442,493.083 791.98,490.621 791.98,487.583 L791.98,449.333 C791.98,446.295 794.442,443.833 797.48,443.833 C800.518,443.833 802.98,446.295 802.98,449.333 L802.98,487.583 C802.98,490.621 800.518,493.083 797.48,493.083" id="Fill-71" fill="#0D0E1F"></path>
                <line x1="811.98" y1="501.333" x2="840.98" y2="501.333" id="Stroke-73" stroke="#0D0E1F" stroke-width="6"></line>
                <mask id="mask-2" fill="white">
                    <use xlink:href="#path-1"></use>
                </mask>
                <g id="Clip-76"></g>
                <polygon id="Fill-75" fill="#0D0E1F" mask="url(#mask-2)" points="850.23 441.998 860.48 441.998 860.48 424.248 850.23 424.248"></polygon>
                <polygon id="Fill-77" fill="#0D0E1F" mask="url(#mask-2)" points="850.23 490.498 860.48 490.498 860.48 451.163 850.23 451.163"></polygon>
                <path d="M827.147,391.166 L827.147,426.166 C827.147,428.74 831.147,428.744 831.147,426.166 L831.147,391.166 C831.147,388.593 827.147,388.588 827.147,391.166" id="Fill-78" fill="#0D0E1F" mask="url(#mask-2)"></path>
                <path d="M828.813,437.166 C831.387,437.166 831.391,433.166 828.813,433.166 C826.24,433.166 826.235,437.166 828.813,437.166" id="Fill-79" fill="#0D0E1F" mask="url(#mask-2)"></path>
                <path d="M828.813,445.5 C831.387,445.5 831.391,441.5 828.813,441.5 C826.24,441.5 826.235,445.5 828.813,445.5" id="Fill-80" fill="#0D0E1F" mask="url(#mask-2)"></path>
                <path d="M770.813,484.5 L770.813,493.833 C770.813,494.879 771.733,495.882 772.813,495.833 C773.897,495.784 774.813,494.954 774.813,493.833 L774.813,484.5 C774.813,483.453 773.893,482.451 772.813,482.5 C771.73,482.548 770.813,483.379 770.813,484.5" id="Fill-81" fill="#0D0E1F" mask="url(#mask-2)"></path>
                <path d="M772.48,503.208 C775.054,503.208 775.058,499.208 772.48,499.208 C769.906,499.208 769.902,503.208 772.48,503.208" id="Fill-82" fill="#0D0E1F" mask="url(#mask-2)"></path>
                <path d="M764.23,416.333 L764.23,418.833 C764.23,419.346 764.453,419.885 764.816,420.247 C764.997,420.442 765.211,420.58 765.459,420.661 C765.698,420.786 765.955,420.844 766.23,420.833 C766.748,420.81 767.284,420.64 767.644,420.247 C768.003,419.855 768.23,419.375 768.23,418.833 L768.23,416.333 C768.23,415.82 768.007,415.281 767.644,414.919 C767.463,414.724 767.249,414.586 767.001,414.505 C766.762,414.38 766.505,414.322 766.23,414.333 C765.712,414.356 765.176,414.526 764.816,414.919 C764.457,415.311 764.23,415.791 764.23,416.333" id="Fill-83" fill="#0D0E1F" mask="url(#mask-2)"></path>
                <path d="M766.23,412.583 C768.804,412.583 768.808,408.583 766.23,408.583 C763.656,408.583 763.652,412.583 766.23,412.583" id="Fill-84" fill="#0D0E1F" mask="url(#mask-2)"></path>
                <line x1="518.813" y1="251.3828" x2="518.813" y2="289.8328" id="Stroke-85" stroke="#0D0E1F" stroke-width="6" stroke-linejoin="round" mask="url(#mask-2)"></line>
                <line x1="390.1465" y1="289.833" x2="390.1465" y2="251.383" id="Stroke-86" stroke="#0D0E1F" stroke-width="7" stroke-linejoin="round" mask="url(#mask-2)"></line>
                <path d="M390.1465,269.9248 C390.1465,269.9248 382.8135,257.1658 374.8135,263.8328 C366.8135,270.4998 377.1465,289.8328 382.4795,289.8328" id="Stroke-87" stroke="#0D0E1F" stroke-width="6" stroke-linejoin="round" mask="url(#mask-2)"></path>
                <path d="M518.813,269.9248 C518.813,269.9248 526.147,257.1658 534.147,263.8328 C542.147,270.4998 531.813,289.8328 526.48,289.8328" id="Stroke-88" stroke="#0D0E1F" stroke-width="6" stroke-linejoin="round" mask="url(#mask-2)"></path>
                <path d="M422.1465,289.166 L422.1465,289.166 C419.3855,289.166 417.1465,286.928 417.1465,284.166 L417.1465,279.833 C417.1465,277.071 419.3855,274.833 422.1465,274.833 C424.9085,274.833 427.1465,277.071 427.1465,279.833 L427.1465,284.166 C427.1465,286.928 424.9085,289.166 422.1465,289.166" id="Fill-89" fill="#0D0E1F" mask="url(#mask-2)"></path>
                <path d="M422.1465,289.166 L422.1465,289.166 C419.3855,289.166 417.1465,286.928 417.1465,284.166 L417.1465,279.833 C417.1465,277.071 419.3855,274.833 422.1465,274.833 C424.9085,274.833 427.1465,277.071 427.1465,279.833 L427.1465,284.166 C427.1465,286.928 424.9085,289.166 422.1465,289.166 Z" id="Stroke-90" stroke="#0D0E1F" stroke-width="5" mask="url(#mask-2)"></path>
                <path d="M486.813,289.166 L486.813,289.166 C489.575,289.166 491.813,286.928 491.813,284.166 L491.813,279.833 C491.813,277.071 489.575,274.833 486.813,274.833 C484.052,274.833 481.813,277.071 481.813,279.833 L481.813,284.166 C481.813,286.928 484.052,289.166 486.813,289.166" id="Fill-91" fill="#0D0E1F" mask="url(#mask-2)"></path>
                <path d="M486.813,289.166 L486.813,289.166 C489.575,289.166 491.813,286.928 491.813,284.166 L491.813,279.833 C491.813,277.071 489.575,274.833 486.813,274.833 C484.052,274.833 481.813,277.071 481.813,279.833 L481.813,284.166 C481.813,286.928 484.052,289.166 486.813,289.166 Z" id="Stroke-92" stroke="#0D0E1F" stroke-width="5" mask="url(#mask-2)"></path>
                <path d="M381.6783,275.6357 C383.7103,277.9547 386.2043,279.8957 388.9513,281.2957 C389.6493,281.6527 390.6103,281.5017 391.0033,280.7577 C391.3653,280.0727 391.2113,279.0857 390.4653,278.7057 C389.8143,278.3737 389.1783,278.0137 388.5603,277.6227 C388.2603,277.4327 387.9643,277.2357 387.6733,277.0317 C387.5273,276.9297 387.3833,276.8257 387.2393,276.7217 C387.1593,276.6627 387.0803,276.6037 387.0023,276.5437 C386.9413,276.4987 386.7053,276.3557 386.9763,276.5267 C386.3923,276.1577 385.8603,275.6087 385.3593,275.1367 C384.8133,274.6207 384.2943,274.0787 383.8003,273.5147 C383.2813,272.9227 382.2013,272.9447 381.6783,273.5147 C381.0983,274.1457 381.1253,275.0037 381.6783,275.6357" id="Fill-93" fill="#0D0E1F" mask="url(#mask-2)"></path>
                <path d="M522.1499,280.9668 C524.4869,279.9668 526.4769,278.1438 527.7539,275.9528 C528.1499,275.2748 527.9329,274.2798 527.2159,273.9008 C526.4979,273.5218 525.5869,273.7148 525.1639,274.4388 C525.0229,274.6808 524.8739,274.9178 524.7139,275.1488 C524.6309,275.2688 524.5449,275.3868 524.4579,275.5048 C524.3059,275.7078 524.6349,275.2808 524.5199,275.4218 C524.4779,275.4738 524.4369,275.5268 524.3939,275.5768 C524.0369,276.0088 523.6459,276.4108 523.2269,276.7818 C523.1269,276.8708 523.0249,276.9568 522.9219,277.0408 C522.8709,277.0838 522.8179,277.1248 522.7659,277.1668 C522.6249,277.2808 523.0519,276.9528 522.8479,277.1028 C522.6229,277.2688 522.3929,277.4288 522.1569,277.5788 C521.6709,277.8858 521.1629,278.1508 520.6349,278.3758 C520.3149,278.5138 520.0339,278.9528 519.9459,279.2728 C519.8469,279.6318 519.8919,280.1098 520.0969,280.4288 C520.3029,280.7488 520.6109,281.0298 520.9939,281.1178 C521.4139,281.2138 521.7569,281.1338 522.1499,280.9668" id="Fill-94" fill="#0D0E1F" mask="url(#mask-2)"></path>
                <polyline id="Stroke-95" stroke="#0D0E1F" stroke-width="5" mask="url(#mask-2)" points="421.4546 507.083 329.4796 507.083 329.4796 519.913"></polyline>
                <polyline id="Stroke-96" stroke="#0D0E1F" stroke-width="5" mask="url(#mask-2)" points="487.5054 507.083 579.4804 507.083 579.4804 519.913"></polyline>
                <path d="M400.0899,480.833 L401.7199,485.913 C404.4699,494.503 399.7499,503.703 391.1599,506.453 C382.5699,509.213 373.3699,504.483 370.6099,495.893 L365.7799,480.833" id="Stroke-97" stroke="#0D0E1F" stroke-width="5" mask="url(#mask-2)"></path>
                <path d="M558.8481,480.833 L559.4681,489.282 C559.8171,498.299 552.7931,505.894 543.7781,506.242 C534.7661,506.602 527.1801,499.574 526.8221,490.562 L526.6131,480.833" id="Stroke-98" stroke="#0D0E1F" stroke-width="5" mask="url(#mask-2)"></path>
                <polygon id="Stroke-99" stroke="#0D0E1F" stroke-width="6" stroke-linejoin="round" mask="url(#mask-2)" points="642.51 519.913 710.51 519.913 710.51 501.333 642.51 501.333"></polygon>
                <polygon id="Stroke-100" stroke="#0D0E1F" stroke-width="6" stroke-linejoin="round" mask="url(#mask-2)" points="645.51 501.333 707.51 501.333 707.51 408.666 645.51 408.666"></polygon>
                <path d="M707.5103,426.166 L718.0103,426.166 C718.0103,426.166 723.7603,428.333 723.7603,432.583 L723.7603,473.333 C723.7603,473.333 723.7603,484.5 707.5103,484.5" id="Stroke-101" stroke="#0D0E1F" stroke-width="6" stroke-linejoin="round" mask="url(#mask-2)"></path>
                <path d="M646.5103,488 L669.8433,488 C672.4173,488 672.4213,484 669.8433,484 L646.5103,484 C643.9363,484 643.9323,488 646.5103,488" id="Fill-102" fill="#0D0E1F" mask="url(#mask-2)"></path>
                <path d="M677.6763,423.166 L709.3773,423.166 C711.9513,423.166 711.9553,419.166 709.3773,419.166 L708.6763,419.166 C706.1033,419.166 706.0983,423.166 708.6763,423.166 L709.3773,423.166 C711.9513,423.166 711.9553,419.166 709.3773,419.166 L677.6763,419.166 C675.1033,419.166 675.0983,423.166 677.6763,423.166" id="Fill-103" fill="#0D0E1F" mask="url(#mask-2)"></path>
                <path d="M434.5254,62.9605 C434.5254,73.8435 425.7024,82.6665 414.8194,82.6665 C403.9364,82.6665 395.1134,73.8435 395.1134,62.9605 C395.1134,52.0775 403.9364,43.2545 414.8194,43.2545 C425.7024,43.2545 434.5254,52.0775 434.5254,62.9605 Z" id="Stroke-104" stroke="#0D0E1F" stroke-width="6" stroke-linejoin="round" mask="url(#mask-2)"></path>
                <path d="M471.8589,72.1274 L471.8589,53.7944 L456.8709,53.7944 C455.7659,48.7054 453.7609,43.9554 451.0309,39.7124 L461.6339,29.1094 L448.6709,16.1464 L438.0669,26.7494 C433.8249,24.0194 429.0749,22.0134 423.9859,20.9094 L423.9859,5.9214 L405.6529,5.9214 L405.6529,20.9094 C400.5639,22.0134 395.8149,24.0194 391.5719,26.7494 L380.9689,16.1464 L368.0049,29.1094 L378.6079,39.7124 C375.8789,43.9554 373.8729,48.7054 372.7689,53.7944 L357.7799,53.7944 L357.7799,72.1274 L372.7689,72.1274 C373.8729,77.2164 375.8789,81.9654 378.6079,86.2084 L368.0049,96.8114 L380.9689,109.7744 L391.5719,99.1724 C395.8149,101.9014 400.5639,103.9074 405.6529,105.0114 L405.6529,119.9994 L423.9859,119.9994 L423.9859,105.0114 C429.0749,103.9074 433.8249,101.9014 438.0669,99.1724 L448.6709,109.7744 L461.6339,96.8114 L451.0309,86.2084 C453.7609,81.9654 455.7659,77.2164 456.8709,72.1274 L471.8589,72.1274 Z" id="Stroke-105" stroke="#0D0E1F" stroke-width="6" stroke-linejoin="round" mask="url(#mask-2)"></path>
                <path d="M525.3696,99.5679 C524.0766,106.7749 517.1866,111.5679 509.9796,110.2759 C502.7736,108.9829 497.9796,102.0919 499.2726,94.8859 C500.5656,87.6799 507.4556,82.8859 514.6626,84.1789 C521.8686,85.4709 526.6626,92.3609 525.3696,99.5679 Z" id="Stroke-106" stroke="#0D0E1F" stroke-width="6" stroke-linejoin="round" mask="url(#mask-2)"></path>
                <path d="M549.0015,110.0732 L551.1795,97.9332 L541.2545,96.1532 C541.1285,92.6522 540.3645,89.2682 539.0615,86.1352 L547.3415,80.3732 L540.2975,70.2492 L532.0175,76.0102 C529.5315,73.6992 526.6255,71.8072 523.3865,70.4712 L525.1675,60.5462 L513.0275,58.3682 L511.2465,68.2932 C507.7455,68.4202 504.3625,69.1832 501.2295,70.4872 L495.4675,62.2062 L485.3435,69.2502 L491.1055,77.5312 C488.7935,80.0162 486.9005,82.9232 485.5655,86.1612 L475.6415,84.3812 L473.4625,96.5202 L483.3875,98.3012 C483.5145,101.8022 484.2775,105.1852 485.5815,108.3192 L477.3005,114.0802 L484.3455,124.2042 L492.6255,118.4432 C495.1105,120.7552 498.0175,122.6472 501.2555,123.9832 L499.4755,133.9072 L511.6145,136.0852 L513.3955,126.1602 C516.8965,126.0342 520.2795,125.2702 523.4135,123.9672 L529.1745,132.2472 L539.2985,125.2032 L533.5375,116.9232 C535.8495,114.4382 537.7405,111.5312 539.0765,108.2922 L549.0015,110.0732 Z" id="Stroke-107" stroke="#0D0E1F" stroke-width="6" stroke-linejoin="round" mask="url(#mask-2)"></path>
                <path d="M828.75,223 L656.25,223 C650.037,223 645,217.963 645,211.75 L645,107.25 C645,101.037 650.037,96 656.25,96 L828.75,96 C834.963,96 840,101.037 840,107.25 L840,211.75 C840,217.963 834.963,223 828.75,223 Z" id="Stroke-108" stroke="#0D0E1F" stroke-width="6" stroke-linejoin="round" mask="url(#mask-2)"></path>
                <path d="M400.1812,19.2954 C398.7222,16.1394 397.2632,12.9834 395.8042,9.8284 C395.2532,8.6374 393.4432,8.2484 392.3832,8.9314 C391.1562,9.7224 390.8972,11.0784 391.4862,12.3514 C392.9452,15.5074 394.4052,18.6634 395.8642,21.8184 C396.4142,23.0094 398.2242,23.3994 399.2842,22.7154 C400.5122,21.9244 400.7702,20.5684 400.1812,19.2954" id="Fill-110" fill="#0D0E1F" mask="url(#mask-2)"></path>
                <path d="M389.8135,4.9995 C393.0305,4.9995 393.0355,-0.0005 389.8135,-0.0005 C386.5965,-0.0005 386.5905,4.9995 389.8135,4.9995" id="Fill-111" fill="#0D0E1F" mask="url(#mask-2)"></path>
                <path d="M454.4615,47.3359 C455.5435,48.3249 457.0475,48.6509 458.4285,48.1069 C459.6295,47.6319 460.5455,46.8479 461.5505,46.0549 C463.2175,44.7389 464.8845,43.4229 466.5505,42.1069 C467.0195,41.7379 467.2825,40.9059 467.2825,40.3399 C467.2825,39.7269 467.0105,38.9939 466.5505,38.5719 C466.0745,38.1339 465.4485,37.8099 464.7825,37.8399 C464.0775,37.8709 463.5655,38.1379 463.0155,38.5719 L459.1485,41.6249 C458.5255,42.1159 457.8995,42.6029 457.2805,43.0979 C456.8625,43.4339 457.7595,42.7709 457.2235,43.1369 C457.1175,43.2089 457.0105,43.2769 456.8995,43.3399 C456.8255,43.3819 456.7505,43.4219 456.6745,43.4599 C457.0815,43.2979 457.1655,43.2619 456.9265,43.3519 C456.7725,43.3939 456.6275,43.4359 456.4695,43.4569 C456.6905,43.4269 456.9115,43.3979 457.1335,43.3679 C457.0205,43.3749 456.9185,43.3739 456.8055,43.3619 C457.0265,43.3919 457.2475,43.4209 457.4695,43.4509 C457.2255,43.3939 457.3225,43.4459 457.7625,43.6079 C457.5505,43.4819 457.6295,43.5459 457.9965,43.7999 C457.0315,42.9179 455.4025,42.7749 454.4615,43.7999 C453.5795,44.7609 453.4305,46.3939 454.4615,47.3359" id="Fill-112" fill="#0D0E1F" mask="url(#mask-2)"></path>
                <path d="M472.73,39.583 C475.947,39.583 475.953,34.583 472.73,34.583 C469.513,34.583 469.507,39.583 472.73,39.583" id="Fill-113" fill="#0D0E1F" mask="url(#mask-2)"></path>
                <path d="M371.8648,77.6357 C365.3098,81.0327 358.1378,83.3447 350.8108,84.3117 C349.4718,84.4887 348.3108,85.3347 348.3108,86.8117 C348.3108,88.0257 349.4628,89.4897 350.8108,89.3117 C359.0668,88.2217 366.9868,85.7887 374.3878,81.9527 C377.2458,80.4717 374.7208,76.1567 371.8648,77.6357" id="Fill-114" fill="#0D0E1F" mask="url(#mask-2)"></path>
                <path d="M342.1465,89.333 C345.3635,89.333 345.3695,84.333 342.1465,84.333 C338.9295,84.333 338.9245,89.333 342.1465,89.333" id="Fill-115" fill="#0D0E1F" mask="url(#mask-2)"></path>
                <path d="M430.3594,105.5151 C431.2524,107.7351 432.1454,109.9561 433.0384,112.1771 C433.2904,112.8041 433.5814,113.3161 434.1864,113.6711 C434.7224,113.9841 435.5124,114.1171 436.1134,113.9231 C436.7184,113.7271 437.3014,113.3521 437.6074,112.7741 C437.9014,112.2181 438.1054,111.4581 437.8594,110.8481 C436.9664,108.6271 436.0734,106.4061 435.1814,104.1851 C434.9284,103.5581 434.6374,103.0461 434.0324,102.6911 C433.4964,102.3781 432.7064,102.2451 432.1054,102.4391 C431.5014,102.6351 430.9174,103.0101 430.6114,103.5881 C430.3174,104.1441 430.1134,104.9041 430.3594,105.5151" id="Fill-116" fill="#0D0E1F" mask="url(#mask-2)"></path>
                <path d="M441.48,123.9995 C444.697,123.9995 444.703,118.9995 441.48,118.9995 C438.263,118.9995 438.257,123.9995 441.48,123.9995" id="Fill-117" fill="#0D0E1F" mask="url(#mask-2)"></path>
                <path d="M481.0484,102.001 C480.6424,102.213 480.2294,102.408 479.8084,102.587 C480.0074,102.503 480.2054,102.419 480.4044,102.335 C479.1004,102.88 477.7364,103.254 476.3364,103.453 L477.0014,103.363 C476.6604,103.409 476.3194,103.444 475.9784,103.471 C475.3074,103.522 474.6974,103.715 474.2104,104.203 C473.7774,104.636 473.4494,105.348 473.4784,105.971 C473.5064,106.617 473.7194,107.288 474.2104,107.738 C474.6774,108.168 475.3204,108.521 475.9784,108.471 C478.6524,108.267 481.1914,107.561 483.5714,106.318 C484.7334,105.712 485.1764,103.995 484.4684,102.898 C483.7054,101.715 482.2894,101.353 481.0484,102.001" id="Fill-118" fill="#0D0E1F" mask="url(#mask-2)"></path>
                <path d="M468.647,108.833 C471.864,108.833 471.87,103.833 468.647,103.833 C465.429,103.833 465.424,108.833 468.647,108.833" id="Fill-119" fill="#0D0E1F" mask="url(#mask-2)"></path>
                <path d="M530.0767,73.4312 C533.6507,68.8562 536.6907,63.9392 539.0507,58.6292 C539.5807,57.4372 539.4367,55.8872 538.1537,55.2092 C537.0657,54.6342 535.3007,54.8302 534.7327,56.1062 C533.6187,58.6132 532.3607,61.0552 530.9527,63.4102 C530.2487,64.5872 529.5097,65.7432 528.7347,66.8752 C528.3477,67.4412 527.9517,68.0022 527.5477,68.5562 C527.3457,68.8322 527.1407,69.1082 526.9337,69.3822 C526.8317,69.5192 526.7267,69.6552 526.6237,69.7912 C526.7527,69.6252 526.7247,69.6602 526.5417,69.8952 C525.7387,70.9242 525.4637,72.4412 526.5417,73.4312 C527.4387,74.2552 529.2177,74.5322 530.0767,73.4312" id="Fill-120" fill="#0D0E1F" mask="url(#mask-2)"></path>
                <path d="M540.98,49.833 C544.197,49.833 544.203,44.833 540.98,44.833 C537.763,44.833 537.757,49.833 540.98,49.833" id="Fill-121" fill="#0D0E1F" mask="url(#mask-2)"></path>
                <path d="M537.9019,114.7427 C542.0989,118.7117 546.7419,122.2247 551.7099,125.1737 C552.8349,125.8417 554.5029,125.4647 555.1299,124.2767 C555.7659,123.0717 555.4339,121.5697 554.2329,120.8557 C551.8729,119.4557 549.5889,117.9317 547.3949,116.2827 C547.2679,116.1867 547.1419,116.0887 547.0149,115.9937 C546.6889,115.7527 547.2729,116.1977 546.9539,115.9487 C546.6719,115.7287 546.3899,115.5077 546.1109,115.2837 C545.5839,114.8607 545.0619,114.4307 544.5469,113.9937 C543.4839,113.0947 542.4489,112.1637 541.4379,111.2067 C540.4869,110.3077 538.8339,110.1937 537.9019,111.2067 C537.0069,112.1817 536.8869,113.7827 537.9019,114.7427" id="Fill-122" fill="#0D0E1F" mask="url(#mask-2)"></path>
                <path d="M560.313,129.4995 C563.531,129.4995 563.536,124.4995 560.313,124.4995 C557.096,124.4995 557.09,129.4995 560.313,129.4995" id="Fill-123" fill="#0D0E1F" mask="url(#mask-2)"></path>
                <path d="M518.7192,254.8398 C518.5392,219.2158 489.7922,190.3908 454.3472,190.3908 C418.9022,190.3908 390.1552,219.2158 389.9752,254.8398" id="Stroke-124" stroke="#0D0E1F" stroke-width="6" stroke-linejoin="round" mask="url(#mask-2)"></path>
                <path d="M419.3736,234.6436 C433.2126,236.8306 447.1146,237.5946 461.1066,236.8106 C464.7726,236.6046 464.7966,230.8736 461.1066,231.0806 C447.6426,231.8366 434.2206,231.2246 420.8966,229.1196 C417.2906,228.5496 415.7366,234.0686 419.3736,234.6436" id="Fill-125" fill="#0D0E1F" mask="url(#mask-2)"></path>
                <path d="M471.7124,235.2065 C475.3994,235.2065 475.4044,229.4775 471.7124,229.4775 C468.0264,229.4775 468.0204,235.2065 471.7124,235.2065" id="Fill-126" fill="#0D0E1F" mask="url(#mask-2)"></path>
                <path d="M481.4517,234.3472 C485.1387,234.3472 485.1437,228.6182 481.4517,228.6182 C477.7647,228.6182 477.7597,234.3472 481.4517,234.3472" id="Fill-127" fill="#0D0E1F" mask="url(#mask-2)"></path>
                <polygon id="Fill-128" fill="#0D0E1F" mask="url(#mask-2)" points="673.76 154.422 691.907 154.422 691.907 120.44 673.76 120.44"></polygon>
                <polygon id="Fill-129" fill="#0D0E1F" mask="url(#mask-2)" points="736.033 154.422 811.832 154.422 811.832 149.024 736.033 149.024"></polygon>
                <path d="M747.853,131.813 C747.853,135.048 745.23,137.67 741.996,137.67 C738.761,137.67 736.139,135.048 736.139,131.813 C736.139,128.578 738.761,125.956 741.996,125.956 C745.23,125.956 747.853,128.578 747.853,131.813" id="Fill-130" fill="#0D0E1F" mask="url(#mask-2)"></path>
                <path d="M768.5684,131.813 C768.5684,135.048 765.9464,137.67 762.7114,137.67 C759.4764,137.67 756.8544,135.048 756.8544,131.813 C756.8544,128.578 759.4764,125.956 762.7114,125.956 C765.9464,125.956 768.5684,128.578 768.5684,131.813" id="Fill-131" fill="#0D0E1F" mask="url(#mask-2)"></path>
                <path d="M789.2842,131.813 C789.2842,135.048 786.6622,137.67 783.4272,137.67 C780.1922,137.67 777.5702,135.048 777.5702,131.813 C777.5702,128.578 780.1922,125.956 783.4272,125.956 C786.6622,125.956 789.2842,128.578 789.2842,131.813" id="Fill-132" fill="#0D0E1F" mask="url(#mask-2)"></path>
                <polygon id="Fill-134" fill="#0D0E1F" mask="url(#mask-2)" points="735.702 195.416 748.291 195.416 748.291 162.238 735.702 162.238"></polygon>
                <polygon id="Fill-135" fill="#0D0E1F" mask="url(#mask-2)" points="756.417 195.416 769.006 195.416 769.006 162.238 756.417 162.238"></polygon>
                <polygon id="Fill-136" fill="#0D0E1F" mask="url(#mask-2)" points="777.132 195.416 789.722 195.416 789.722 162.238 777.132 162.238"></polygon>
                <path d="M707.6431,144.2241 C702.4871,144.2241 702.4951,136.2241 707.6431,136.2241 C712.7991,136.2241 712.7901,144.2241 707.6431,144.2241 L707.6431,144.2241 Z M699.1051,154.4221 L717.2521,154.4221 L717.2521,120.4401 L699.1051,120.4401 L699.1051,154.4221 Z" id="Fill-146" fill="#0D0E1F" mask="url(#mask-2)"></path>
                <path d="M686.9766,181.5571 L700.9766,181.5571 C706.1326,181.5571 706.1236,189.5571 700.9766,189.5571 L686.9766,189.5571 C681.8206,189.5571 681.8286,181.5571 686.9766,181.5571 L686.9766,181.5571 Z M674.1966,195.4151 L717.2526,195.4151 L717.2526,162.2371 L674.1966,162.2371 L674.1966,195.4151 Z" id="Fill-147" fill="#0D0E1F" mask="url(#mask-2)"></path>
                <path d="M677.894,470.251 C680.035,470.251 681.769,471.986 681.769,474.126 C681.769,476.267 680.035,478.002 677.894,478.002 C675.753,478.002 674.018,476.267 674.018,474.126 C674.018,471.986 675.753,470.251 677.894,470.251 Z" id="Stroke-148" stroke="#000000" stroke-width="4" stroke-linecap="round" stroke-linejoin="round" mask="url(#mask-2)"></path>
                <path d="M677.894,448.9346 C680.035,448.9346 681.769,450.6696 681.769,452.8106 C681.769,454.9516 680.035,456.6866 677.894,456.6866 C675.753,456.6866 674.018,454.9516 674.018,452.8106 C674.018,450.6696 675.753,448.9346 677.894,448.9346 Z" id="Stroke-149" stroke="#000000" stroke-width="4" stroke-linecap="round" stroke-linejoin="round" mask="url(#mask-2)"></path>
                <path d="M666.2671,449.9033 C668.4081,449.9033 670.1431,451.6383 670.1431,453.7793 C670.1431,455.9203 668.4081,457.6553 666.2671,457.6553 C664.1261,457.6553 662.3911,455.9203 662.3911,453.7793 C662.3911,451.6383 664.1261,449.9033 666.2671,449.9033 Z" id="Stroke-150" stroke="#000000" stroke-width="4" stroke-linecap="round" stroke-linejoin="round" mask="url(#mask-2)"></path>
                <path d="M689.521,449.9033 C691.662,449.9033 693.396,451.6383 693.396,453.7793 C693.396,455.9203 691.662,457.6553 689.521,457.6553 C687.38,457.6553 685.645,455.9203 685.645,453.7793 C685.645,451.6383 687.38,449.9033 689.521,449.9033 Z" id="Stroke-151" stroke="#000000" stroke-width="4" stroke-linecap="round" stroke-linejoin="round" mask="url(#mask-2)"></path>
                <path d="M683.7075,460.5615 C685.8485,460.5615 687.5825,462.2965 687.5825,464.4375 C687.5825,466.5785 685.8485,468.3135 683.7075,468.3135 C681.5665,468.3135 679.8315,466.5785 679.8315,464.4375 C679.8315,462.2965 681.5665,460.5615 683.7075,460.5615 Z" id="Stroke-152" stroke="#000000" stroke-width="4" stroke-linecap="round" stroke-linejoin="round" mask="url(#mask-2)"></path>
                <path d="M672.0806,460.5615 C674.2216,460.5615 675.9566,462.2965 675.9566,464.4375 C675.9566,466.5785 674.2216,468.3135 672.0806,468.3135 C669.9396,468.3135 668.2046,466.5785 668.2046,464.4375 C668.2046,462.2965 669.9396,460.5615 672.0806,460.5615 Z" id="Stroke-153" stroke="#000000" stroke-width="4" stroke-linecap="round" stroke-linejoin="round" mask="url(#mask-2)"></path>
                <line x1="677.894" y1="445.0596" x2="677.894" y2="433.4326" id="Stroke-154" stroke="#000000" stroke-width="4" stroke-linecap="round" stroke-linejoin="round" mask="url(#mask-2)"></line>
                <path d="M682.812,445.2529 C689.123,446.4189 695.28,442.5769 697.008,436.3979 C697.153,435.8819 696.852,435.3479 696.336,435.2029 C696.302,435.1929 696.268,435.1859 696.233,435.1809 C689.922,434.0149 683.765,437.8559 682.037,444.0359 C681.893,444.5519 682.194,445.0859 682.709,445.2309 C682.743,445.2389 682.777,445.2469 682.812,445.2529 Z" id="Stroke-155" stroke="#000000" stroke-width="4" stroke-linecap="round" stroke-linejoin="round" mask="url(#mask-2)"></path>
                <path d="M672.9761,445.2529 C666.6641,446.4249 660.5021,442.5809 658.7791,436.3979 C658.6351,435.8819 658.9361,435.3479 659.4521,435.2029 C659.4851,435.1929 659.5201,435.1859 659.5541,435.1809 C665.8651,434.0149 672.0231,437.8559 673.7501,444.0359 C673.8951,444.5519 673.5941,445.0859 673.0791,445.2309 C673.0441,445.2389 673.0101,445.2469 672.9761,445.2529 Z" id="Stroke-156" stroke="#000000" stroke-width="4" stroke-linecap="round" stroke-linejoin="round" mask="url(#mask-2)"></path>
                <path d="M199.2857,519.9131 C199.2857,519.9131 186.8427,504.1661 183.0337,504.1661 L161.7027,504.1661 L140.3707,504.1661 C136.5617,504.1661 124.1197,519.9131 124.1197,519.9131" id="Stroke-157" stroke="#0D0E1F" stroke-width="6" stroke-linejoin="round" mask="url(#mask-2)"></path>
                <polyline id="Stroke-158" stroke="#0D0E1F" stroke-width="6" stroke-linejoin="round" mask="url(#mask-2)" points="148.771 504.1631 99.401 377.5531 111.041 373.0131 162.191 504.1631"></polyline>
                <line x1="160.9107" y1="290.9726" x2="109.9607" y2="364.2836" id="Stroke-159" stroke="#0D0E1F" stroke-width="6" stroke-linejoin="round" mask="url(#mask-2)"></line>
                <polyline id="Stroke-160" stroke="#0D0E1F" stroke-width="6" stroke-linejoin="round" mask="url(#mask-2)" points="98.1206 359.4834 151.3306 282.8634 157.7406 287.1724"></polyline>
                <path d="M110.4409,367.0713 C110.4409,371.7653 106.6349,375.5713 101.9409,375.5713 C97.2469,375.5713 93.4409,371.7653 93.4409,367.0713 C93.4409,362.3763 97.2469,358.5713 101.9409,358.5713 C106.6349,358.5713 110.4409,362.3763 110.4409,367.0713 Z" id="Stroke-161" stroke="#0D0E1F" stroke-width="6" stroke-linejoin="round" mask="url(#mask-2)"></path>
                <path d="M181.9956,278.9854 L194.8436,259.7334 C172.2036,245.3764 144.3756,253.8784 144.3756,253.8784 C144.3756,253.8784 147.2016,282.8384 169.1466,298.2364 L181.9956,278.9854 Z" id="Stroke-162" stroke="#0D0E1F" stroke-width="6" stroke-linejoin="round" mask="url(#mask-2)"></path>
                <path d="M194.8438,259.7334 C194.8438,259.7334 209.4898,263.1844 215.3528,267.0964 L199.5838,290.7234 L183.8148,314.3504 C177.9518,310.4374 169.1468,298.2364 169.1468,298.2364" id="Stroke-163" stroke="#0D0E1F" stroke-width="6" stroke-linejoin="round" mask="url(#mask-2)"></path>
                <path d="M73.1031,438.8779 C90.5811,456.3519 88.0351,479.8009 74.3711,493.4759 C60.7071,507.1499 37.2821,509.7189 19.7791,492.2009 L13.4241,498.5539 C12.7331,499.2579 12.7331,500.3849 13.4241,501.0889 C32.2221,520.1589 62.9201,520.3799 81.9901,501.5819 C101.0611,482.7839 101.2811,452.0859 82.4831,433.0159 C82.3201,432.8499 82.1561,432.6859 81.9901,432.5219 C81.2861,431.8319 80.1591,431.8319 79.4551,432.5219 L73.1031,438.8779 Z" id="Stroke-164" stroke="#000000" stroke-width="6" stroke-linecap="round" stroke-linejoin="round" mask="url(#mask-2)"></path>
                <line x1="19.7725" y1="492.2012" x2="73.1035" y2="438.8742" id="Stroke-165" stroke="#000000" stroke-width="6" stroke-linecap="round" stroke-linejoin="round" mask="url(#mask-2)"></line>
                <path d="M61.6773,475.6943 C63.7813,477.7953 64.3493,480.6413 62.9453,482.0433 C61.5393,483.4443 58.7003,482.8763 56.5963,480.7753 C54.4913,478.6743 53.9233,475.8283 55.3243,474.4263 C56.7263,473.0253 59.5733,473.5903 61.6773,475.6943 Z" id="Stroke-166" stroke="#000000" stroke-width="6" stroke-linecap="round" stroke-linejoin="round" mask="url(#mask-2)"></path>
                <path d="M69.2969,454.331 C72.2729,454.331 74.6859,455.937 74.6859,457.92 C74.6859,459.902 72.2729,461.509 69.2969,461.509 C66.3209,461.509 63.9079,459.902 63.9079,457.92 C63.9079,455.937 66.3209,454.331 69.2969,454.331 Z" id="Stroke-167" stroke="#000000" stroke-width="6" stroke-linecap="round" stroke-linejoin="round" mask="url(#mask-2)"></path>
                <path d="M42.4107,488.3916 C42.4107,491.3716 40.8027,493.7806 38.8217,493.7806 C36.8407,493.7806 35.2287,491.3716 35.2287,488.3916 C35.2287,485.4116 36.8367,483.0056 38.8217,483.0056 C40.8067,483.0056 42.4107,485.4176 42.4107,488.3916 Z" id="Stroke-168" stroke="#000000" stroke-width="6" stroke-linecap="round" stroke-linejoin="round" mask="url(#mask-2)"></path>
                <polygon id="Fill-169" fill="#000000" mask="url(#mask-2)" points="397.9864 387.7998 397.9864 378.7598 430.0544 363.6498 430.0544 373.3498 408.8734 383.1148 430.0544 393.1448 430.0544 402.9098"></polygon>
                <polygon id="Fill-170" fill="#000000" mask="url(#mask-2)" points="464.3658 356.1933 473.7358 356.1933 446.0228 416.7013 436.7188 416.7013"></polygon>
                <polygon id="Fill-171" fill="#000000" mask="url(#mask-2)" points="512.4019 378.7598 512.4019 387.7998 480.3339 402.9098 480.3339 393.1448 501.5139 383.1148 480.3339 373.3498 480.3339 363.6498"></polygon>
                <path d="M810,131.813 C810,135.048 807.377,137.67 804.143,137.67 C800.908,137.67 798.286,135.048 798.286,131.813 C798.286,128.578 800.908,125.956 804.143,125.956 C807.377,125.956 810,128.578 810,131.813" id="Fill-133" fill="#0D0E1F" mask="url(#mask-2)"></path>
                <polygon id="Fill-137" fill="#0D0E1F" mask="url(#mask-2)" points="797.849 195.416 810.438 195.416 810.438 162.238 797.849 162.238"></polygon>
            </g>
        </g>
    </g>
</svg>