<svg xmlns="http://www.w3.org/2000/svg" viewBox="0 0 811.3 241.9">
  <path fill="#ffffff" d="M94.7 95.3H78.6l-54 129.2 32.9-24.4 9.9-26.5 18.9-45.1 16 40.4 18.3-9.9zm31.6 77.6l-17.5 10.3 19.8 52.3H151zm42.7-66.6C277.3 37.1 378.9 27 378.9 27 281.4 54.1 268.3 61.7 169 106.3z"/>
  <path fill="#ffffff" d="M7.8 236.9c59-38 67-42.9 101.7-62.9C265.6 84 385.2 38 385.2 38c-78 18.6-168.9 58.3-278.5 127.8-33.8 21.4-61.7 42.5-98.9 71.1z"/>
  <path fill="#ffffff" d="M223 159.2v15.3h-38.3v15.8h34.4V205h-34.4v16h39.5v15.2h-56.7v-76.9H223zm86.5 25.5c0 12.3-4.9 20.3-14.6 23.9l19.5 27.5h-21.1l-17.1-24.5h-11.9v24.5h-17.2v-76.9h29.2c12 0 20.5 2 25.6 6.1 5 4 7.6 10.5 7.6 19.4zm-20.7 9.2c2.1-1.9 3.2-4.9 3.2-9.1 0-4.1-1.1-7-3.3-8.5-2.2-1.5-6.1-2.3-11.6-2.3h-12.9v22.8h12.5c5.9-.1 9.9-1 12.1-2.9zM397 225.5c-7.8 7.6-17.4 11.4-28.7 11.4-11.4 0-20.9-3.8-28.7-11.4-7.8-7.6-11.7-17-11.7-28.3s3.9-20.7 11.7-28.3c7.8-7.6 17.3-11.4 28.7-11.4 11.4 0 20.9 3.8 28.7 11.4 7.8 7.6 11.7 17 11.7 28.3s-3.9 20.7-11.7 28.3zm-5.8-28.3c0-6.9-2.2-12.7-6.6-17.6s-9.8-7.3-16.2-7.3c-6.4 0-11.8 2.4-16.2 7.3-4.4 4.8-6.6 10.7-6.6 17.6 0 6.9 2.2 12.7 6.6 17.5 4.4 4.8 9.8 7.2 16.2 7.2 6.4 0 11.8-2.4 16.2-7.2 4.4-4.8 6.6-10.6 6.6-17.5zm55.8-22.6c-1.7 1.4-2.5 3.2-2.5 5.4s1 4 3 5.3c2 1.3 6.7 2.9 14 4.7 7.3 1.8 13 4.5 17 8.1 4 3.6 6.1 8.8 6.1 15.7 0 6.9-2.6 12.5-7.8 16.8-5.2 4.3-12 6.4-20.4 6.4-12.2 0-23.1-4.5-32.9-13.5l10.2-12.5c8.3 7.3 16 10.9 23 10.9 3.2 0 5.6-.7 7.4-2 1.8-1.4 2.7-3.2 2.7-5.5s-1-4.1-2.9-5.5c-1.9-1.4-5.7-2.7-11.3-4.1-9-2.1-15.5-4.9-19.6-8.3-4.1-3.4-6.2-8.8-6.2-16.1 0-7.3 2.6-12.9 7.9-16.9 5.2-4 11.8-5.9 19.6-5.9 5.1 0 10.3.9 15.4 2.6 5.1 1.8 9.6 4.3 13.4 7.5l-8.7 12.5c-6.7-5.1-13.6-7.6-20.7-7.6-2.8-.1-5 .6-6.7 2zm112.3-8.5c5.4 4.6 8.1 11.6 8.1 21.1 0 9.5-2.8 16.5-8.3 20.9-5.5 4.4-14 6.6-25.4 6.6h-10.2v21.5h-17.2v-76.9h27.2c11.8-.1 20.4 2.2 25.8 6.8zm-12.6 30.2c2.1-2.3 3.1-5.7 3.1-10.1 0-4.4-1.3-7.6-4-9.5-2.7-1.9-6.8-2.8-12.5-2.8h-9.8v25.9H535c5.8 0 9.7-1.1 11.7-3.5zm90.5 39.8l-7.2-16.6h-32.2l-7.2 16.6h-18.3l33.2-76.9h16.6l33.2 76.9h-18.1zm-23.2-54l-9.7 22.3h19.3l-9.6-22.3zm89.1 38.8c8.4 0 15.3-3.3 20.7-10l11 11.3c-8.7 9.8-19 14.7-30.9 14.7-11.8 0-21.6-3.7-29.3-11.2-7.7-7.5-11.5-16.9-11.5-28.3 0-11.4 3.9-20.9 11.7-28.6 7.8-7.6 17.4-11.4 28.7-11.4 12.6 0 23.2 4.8 31.7 14.4L724.6 184c-5.4-6.7-12.2-10.1-20.2-10.1-6.5 0-12 2.1-16.6 6.3-4.6 4.2-6.9 9.9-6.9 17.1 0 7.2 2.2 12.9 6.5 17.2 4.3 4.3 9.5 6.4 15.7 6.4zm106.4-61.7v15.3h-38.3v15.8h34.4V205h-34.4v16h39.5v15.2H754v-76.9h55.5z"/>
  <path fill="#ffffff" d="M377.8 123.1c5.4 0 9.9-2.1 13.3-6.4l7 7.3c-5.6 6.3-12.3 9.4-19.9 9.4-7.6 0-13.9-2.5-18.8-7.3s-7.4-10.9-7.3-18.2c0-7.3 2.6-13.4 7.6-18.3s11.2-7.3 18.5-7.3c8.1 0 14.9 3.1 20.3 9.3l-6.9 7.8c-3.5-4.4-7.8-6.5-13-6.6-4.2 0-7.7 1.3-10.7 4-3 2.7-4.4 6.4-4.5 10.9 0 4.6 1.4 8.3 4.1 11.1 3 2.9 6.3 4.3 10.3 4.3zm67 10l-4.6-10.7-20.7-.1-4.6 10.7h-11.7l21.5-49.4h10.7l21.2 49.5h-11.8zM430 98.3l-6.3 14.3h12.4L430 98.3zm75.1 2c0 7.9-3.2 13-9.5 15.3l12.5 17.7h-13.6l-10.9-15.8H476l-.1 15.8h-11l.2-49.4 18.7.1c7.7 0 13.2 1.3 16.4 3.9 3.3 2.4 4.9 6.6 4.9 12.4zm-13.3 5.8c1.4-1.2 2.1-3.2 2.1-5.8 0-2.7-.7-4.5-2.1-5.5-1.4-1-3.9-1.5-7.4-1.5h-8.3l-.1 14.6h8.1c3.8 0 6.3-.6 7.7-1.8zM554 84v9.8l-24.6-.1v10.2l22.1.1v9.4l-22.1-.1v10.3l25.4.1v9.8l-36.4-.1.2-49.4H554zm49 .2V94l-24.6-.1v10.2l22.1.1v9.4l-22.1-.1v10.3l25.4.1v9.8l-36.4-.1.2-49.4H603zm53.4 16.6c0 7.9-3.2 13-9.5 15.3l12.5 17.7h-13.6L634.9 118h-7.6l-.1 15.8h-11l.2-49.4 18.7.1c7.7 0 13.2 1.3 16.4 3.9 3.3 2.4 4.9 6.6 4.9 12.4zm-13.3 5.8c1.4-1.2 2.1-3.2 2.1-5.8 0-2.7-.7-4.5-2.1-5.5-1.4-1-3.9-1.5-7.4-1.5h-8.3l-.1 14.6h8.1c3.8 0 6.3-.6 7.7-1.8zm37.6-12.3c-1.1.9-1.6 2-1.6 3.5 0 1.4.6 2.6 1.9 3.4 1.3.9 4.3 1.9 9 3 4.7 1.2 8.3 2.9 10.9 5.2 2.6 2.3 3.9 5.7 3.9 10.1 0 4.4-1.7 8-5 10.8-3.3 2.7-7.7 4.1-13.1 4.1-7.8 0-14.9-3-21.1-8.8l6.6-8c5.3 4.7 10.2 7 14.8 7.1 2 0 3.6-.4 4.8-1.3 1.2-.9 1.7-2 1.7-3.5s-.6-2.7-1.8-3.5c-1.2-.9-3.6-1.8-7.3-2.7-5.7-1.4-10-3.2-12.6-5.4-2.7-2.2-4-5.6-4-10.3 0-4.7 1.7-8.3 5.1-10.8 3.4-2.5 7.6-3.8 12.6-3.8 3.3 0 6.6.6 9.9 1.7 3.3 1.1 6.2 2.8 8.6 4.8l-5.6 8c-4.3-3.3-8.7-4.9-13.3-4.9-1.8 0-3.3.4-4.4 1.3zm59.4-9.6h11l-.2 49.4h-11l.2-49.4zm60.1.2h11l-.2 49.4h-11l-23.4-31.1-.1 31h-11l.2-49.4H776l24.2 31.9V84.9zM462.6 0l-76.2 13.6 18.2 6.3-5.5 22.8z"/>
  <path fill="#ffffff" d="M146.5 153.1s-70.2 42-118.5 80.4l-28 8.3c0 .1 76.7-56.5 146.5-88.7z"/>
</svg>
