<svg xmlns="http://www.w3.org/2000/svg" width="58" height="55.51" viewBox="0 0 58 55.51"><path d="M14.29,57.73h-12a1,1,0,0,1-1-1V20.67a1,1,0,0,1,1-1h12a1,1,0,0,1,1,1V56.73A1,1,0,0,1,14.29,57.73Zm-11-2h10V21.67h-10ZM8.38,16.52c-4.51,0-7.73-3-7.73-7.12S3.86,2.22,8.46,2.22s7.64,2.86,7.73,7.13S13,16.52,8.38,16.52Zm.08-12.3C5,4.22,2.65,6.3,2.65,9.4s2.27,5.12,5.65,5.12c3.56,0,5.89-2.07,5.89-5.15S11.87,4.22,8.46,4.22ZM57.65,57.73h-12a1,1,0,0,1-1-1V37.58c0-7.19-3.79-7.19-5-7.19a5.81,5.81,0,0,0-5.39,3.78,7.12,7.12,0,0,0-.46,2.56v20a1,1,0,0,1-1,1H21.06a1,1,0,0,1-1-1c0-.33.16-32.64,0-36a1,1,0,0,1,.27-.74,1,1,0,0,1,.73-.31H32.75a1,1,0,0,1,1,1V23a12.72,12.72,0,0,1,9.94-4.12c9.37,0,15,6.47,15,17.3V56.73A1,1,0,0,1,57.65,57.73Zm-11-2h10V36.19c0-9.72-4.72-15.3-13-15.3-5.49,0-8.11,2.67-10.12,5.56a1,1,0,0,1-1.12.38,1,1,0,0,1-.7-1v-4.2H22.08c.11,5.84,0,28.86,0,34.06h9.69v-19a9.08,9.08,0,0,1,.61-3.32,7.78,7.78,0,0,1,7.24-5c2.62,0,7,1.19,7,9.19Z" transform="translate(-0.65 -2.22)" class="test"/></svg>