<?xml version="1.0" encoding="UTF-8"?>
<svg viewBox="0 0 34 32" version="1.1" xmlns="http://www.w3.org/2000/svg" xmlns:xlink="http://www.w3.org/1999/xlink">
    <g id="Layouts" stroke="none" stroke-width="1" fill="none" fill-rule="evenodd" stroke-linecap="round" stroke-linejoin="round">
        <g id="Desktop-HD" transform="translate(-1074.000000, -70.000000)" stroke="#272727" stroke-width="2">
            <g id="btn2" transform="translate(1075.000000, 71.000000)">
                <g id="logo-linked-in" transform="translate(0.000000, 0.000000)">
                    <polygon id="Stroke-1" points="0.346666667 29.7293889 7.02444444 29.7293889 7.02444444 9.69661111 0.346666667 9.69661111"></polygon>
                    <path d="M3.785,-0.000222222222 C1.49722222,-0.000222222222 0.000555555556,1.462 0.000555555556,3.43588889 C0.000555555556,5.36644444 1.45388889,6.83533333 3.69666667,6.83533333 L3.74055556,6.83533333 C6.07333333,6.83533333 7.52388889,5.347 7.52388889,3.41588889 C7.48,1.44311111 6.07333333,-0.000222222222 3.785,-0.000222222222 Z" id="Stroke-3"></path>
                    <path d="M23.3585556,9.26194444 C19.8068889,9.26194444 18.233,11.2175 17.2796667,12.5852778 L17.2796667,9.69694444 L10.7818889,9.69694444 C10.8718889,11.6052778 10.7818889,29.7297222 10.7818889,29.7297222 L17.2796667,29.7297222 L17.2796667,18.6158333 C17.2796667,18.0136111 17.4007778,17.4158333 17.5768889,16.9852778 C18.0607778,15.7830556 19.2363333,14.5391667 21.0841111,14.5391667 C23.5052222,14.5391667 24.4341111,16.3841667 24.4341111,19.0880556 L24.4341111,29.7297222 L31.1113333,29.7297222 L31.1113333,18.3152778 C31.1113333,12.1369444 27.7602222,9.26194444 23.3585556,9.26194444 Z" id="Stroke-4"></path>
                </g>
            </g>
        </g>
    </g>
</svg>