<?xml version="1.0" encoding="utf-8"?>
<!-- Generator: Adobe Illustrator 16.2.1, SVG Export Plug-In . SVG Version: 6.00 Build 0)  -->
<!DOCTYPE svg PUBLIC "-//W3C//DTD SVG 1.1//EN" "http://www.w3.org/Graphics/SVG/1.1/DTD/svg11.dtd">
<svg version="1.1" id="Layer_1" xmlns="http://www.w3.org/2000/svg" xmlns:xlink="http://www.w3.org/1999/xlink" x="0px" y="0px"
	 width="290px" height="128px" viewBox="0 0 290 128" enable-background="new 0 0 290 128" xml:space="preserve">
<g>
	<path fill="#231161" d="M26.013,49.047c-0.044-0.996-0.095-2.015-0.136-3.056c0.196,0.041,0.397,0.072,0.578,0.098
		c0.193,0.024,0.389,0.037,0.566,0.037c0.197,0,0.39-0.012,0.572-0.037c0.189-0.025,0.395-0.058,0.588-0.098
		c-0.044,1.041-0.089,2.057-0.128,3.053c-0.038,0.996-0.058,2.01-0.058,3.049c0,1.979,0.006,3.693,0.025,5.144
		c0.02,1.462,0.037,2.759,0.056,3.907c1.117,0,2.184-0.012,3.206-0.036c1.019-0.024,2.121-0.11,3.303-0.25
		c-0.082,0.278-0.121,0.516-0.121,0.697c0,0.177,0.039,0.395,0.121,0.639c-0.728-0.034-1.442-0.057-2.17-0.057h-2.17H28.06
		c-0.694,0-1.43,0.021-2.184,0.057c0.041-0.971,0.092-1.959,0.136-2.967c0.043-1.006,0.068-2.034,0.068-3.074v-4.052
		C26.081,51.06,26.056,50.044,26.013,49.047"/>
	<path fill="#231161" d="M38.615,58.545c0.125,0.616,0.329,1.16,0.604,1.64c0.29,0.475,0.668,0.856,1.135,1.143
		c0.47,0.279,1.054,0.421,1.748,0.421c0.682,0,1.27-0.143,1.738-0.421c0.483-0.287,0.858-0.668,1.135-1.143
		c0.288-0.48,0.483-1.024,0.601-1.64c0.125-0.618,0.185-1.258,0.185-1.905c0-0.662-0.06-1.303-0.185-1.921
		c-0.117-0.613-0.312-1.159-0.601-1.637c-0.277-0.479-0.652-0.859-1.135-1.146c-0.468-0.277-1.056-0.421-1.738-0.421
		c-0.694,0-1.278,0.145-1.748,0.421c-0.467,0.287-0.846,0.667-1.135,1.146c-0.276,0.479-0.479,1.024-0.604,1.637
		c-0.104,0.618-0.167,1.259-0.167,1.921C38.449,57.287,38.511,57.927,38.615,58.545 M36.878,53.907
		c0.334-0.75,0.775-1.362,1.327-1.825c0.551-0.457,1.171-0.792,1.86-1.013c0.674-0.208,1.361-0.308,2.038-0.308
		c0.687,0,1.372,0.1,2.054,0.308c0.678,0.221,1.281,0.557,1.833,1.013c0.55,0.463,0.995,1.075,1.338,1.825
		c0.335,0.739,0.508,1.66,0.508,2.729c0,1.07-0.172,1.975-0.508,2.714c-0.344,0.752-0.789,1.358-1.338,1.823
		c-0.552,0.464-1.155,0.791-1.833,0.976c-0.682,0.194-1.367,0.29-2.054,0.29c-0.677,0-1.363-0.096-2.038-0.29
		c-0.689-0.185-1.309-0.512-1.86-0.976c-0.552-0.465-0.993-1.071-1.327-1.823c-0.346-0.74-0.507-1.645-0.507-2.714
		C36.372,55.567,36.532,54.646,36.878,53.907"/>
	<path fill="#231161" d="M57.445,52.902c-0.46-0.606-1.086-0.917-1.893-0.917c-1.104,0-1.907,0.348-2.415,1.015
		c-0.513,0.677-0.776,1.626-0.776,2.854v2.002c0,0.711,0.01,1.45,0.037,2.23c0.023,0.784,0.076,1.479,0.158,2.109
		c-0.358-0.034-0.72-0.052-1.059-0.052c-0.341,0-0.701,0.018-1.057,0.052c0.08-0.63,0.133-1.325,0.156-2.111
		c0.023-0.779,0.037-1.519,0.037-2.232v-2.446c0-0.716-0.014-1.45-0.037-2.233c-0.021-0.772-0.076-1.505-0.156-2.186
		c0.439,0.083,0.788,0.12,1.06,0.12c0.132,0,0.257-0.012,0.408-0.033c0.157-0.023,0.334-0.054,0.536-0.087
		c-0.056,0.634-0.083,1.263-0.083,1.893h0.048c0.439-0.679,0.969-1.199,1.587-1.567c0.617-0.379,1.358-0.553,2.21-0.553
		c0.437,0,0.88,0.062,1.328,0.177c0.462,0.13,0.867,0.353,1.223,0.652c0.361,0.312,0.664,0.729,0.887,1.255
		c0.234,0.528,0.352,1.194,0.352,2.017c0,0.682-0.019,1.369-0.054,2.084c-0.037,0.724-0.055,1.473-0.055,2.284v1.534
		c0,0.245,0.004,0.501,0.015,0.734c0.009,0.251,0.022,0.481,0.04,0.699c-0.319-0.034-0.651-0.052-0.998-0.052
		c-0.342,0-0.66,0.018-0.972,0.052c0.03-0.812,0.063-1.655,0.092-2.52c0.037-0.865,0.058-1.752,0.058-2.661v-1.438
		C58.123,54.398,57.9,53.507,57.445,52.902"/>
	<path fill="#231161" d="M65.132,59.193c0.201,0.617,0.447,1.105,0.759,1.475c0.302,0.365,0.645,0.625,1.051,0.758
		c0.388,0.144,0.77,0.218,1.143,0.218c0.616,0,1.141-0.155,1.58-0.462c0.448-0.297,0.811-0.71,1.097-1.205
		c0.297-0.494,0.501-1.059,0.638-1.69c0.137-0.62,0.205-1.252,0.205-1.883c0-1.509-0.297-2.666-0.88-3.458
		c-0.569-0.796-1.437-1.191-2.57-1.191c-0.562,0-1.058,0.131-1.469,0.387c-0.413,0.266-0.754,0.625-1.037,1.088
		c-0.27,0.462-0.477,1.003-0.614,1.627c-0.137,0.624-0.193,1.283-0.193,1.991C64.843,57.792,64.931,58.575,65.132,59.193
		 M71.499,59.955c-0.128,0.254-0.29,0.522-0.505,0.818c-0.218,0.287-0.477,0.563-0.805,0.807c-0.315,0.259-0.693,0.454-1.13,0.616
		c-0.445,0.161-0.953,0.24-1.532,0.24c-0.589,0-1.173-0.104-1.745-0.312c-0.573-0.199-1.081-0.539-1.526-0.999
		c-0.444-0.464-0.813-1.063-1.081-1.8c-0.283-0.726-0.411-1.599-0.411-2.626c0-1.009,0.142-1.879,0.449-2.624
		c0.291-0.73,0.676-1.35,1.153-1.845c0.488-0.496,1.027-0.861,1.62-1.11c0.606-0.25,1.218-0.362,1.831-0.362
		c1.743,0,2.939,0.78,3.617,2.355h0.059v-2.303c0-0.598-0.003-1.203-0.01-1.811c-0.012-0.604-0.018-1.185-0.028-1.736
		c-0.009-0.552-0.021-1.07-0.029-1.558c-0.01-0.486-0.021-0.913-0.038-1.288c0.191,0.038,0.366,0.067,0.545,0.089
		c0.176,0.023,0.344,0.036,0.521,0.036c0.177,0,0.343-0.012,0.508-0.036c0.167-0.022,0.356-0.051,0.556-0.089
		c-0.05,0.503-0.089,1.22-0.123,2.18c-0.034,0.951-0.061,2-0.077,3.15c-0.022,1.137-0.044,2.32-0.059,3.534
		c-0.016,1.214-0.026,2.325-0.026,3.331c0,1.084,0.01,2.06,0.029,2.918c0.016,0.863,0.033,1.757,0.048,2.665
		c-0.318-0.031-0.62-0.048-0.925-0.048c-0.278,0-0.582,0.018-0.894,0.048l0.057-2.242L71.499,59.955L71.499,59.955z"/>
	<path fill="#231161" d="M77.938,58.545c0.125,0.616,0.315,1.16,0.604,1.64c0.277,0.475,0.65,0.856,1.121,1.143
		c0.482,0.279,1.052,0.421,1.752,0.421c0.692,0,1.276-0.143,1.747-0.421c0.472-0.287,0.846-0.668,1.134-1.143
		c0.278-0.48,0.483-1.024,0.603-1.64c0.112-0.618,0.171-1.258,0.171-1.905c0-0.662-0.06-1.303-0.171-1.921
		c-0.12-0.613-0.325-1.159-0.603-1.637c-0.289-0.479-0.663-0.859-1.134-1.146c-0.47-0.277-1.055-0.421-1.747-0.421
		c-0.7,0-1.27,0.145-1.752,0.421c-0.47,0.287-0.844,0.667-1.121,1.146c-0.29,0.479-0.479,1.024-0.604,1.637
		c-0.122,0.618-0.182,1.259-0.182,1.921C77.756,57.287,77.816,57.927,77.938,58.545 M76.189,53.907
		c0.334-0.75,0.789-1.362,1.34-1.825c0.539-0.457,1.157-0.792,1.845-1.013c0.688-0.208,1.356-0.308,2.042-0.308
		c0.692,0,1.382,0.1,2.049,0.308c0.68,0.221,1.296,0.557,1.847,1.013c0.551,0.463,0.997,1.075,1.328,1.825
		c0.348,0.739,0.507,1.66,0.507,2.729c0,1.07-0.16,1.975-0.507,2.714c-0.332,0.752-0.777,1.358-1.328,1.823
		c-0.551,0.464-1.167,0.791-1.847,0.976c-0.667,0.194-1.357,0.29-2.049,0.29c-0.685,0-1.353-0.096-2.042-0.29
		c-0.688-0.185-1.307-0.512-1.845-0.976c-0.551-0.465-1.006-1.071-1.34-1.823c-0.334-0.74-0.508-1.645-0.508-2.714
		C75.681,55.567,75.855,54.646,76.189,53.907"/>
	<path fill="#231161" d="M96.755,52.902c-0.457-0.606-1.087-0.917-1.884-0.917c-1.104,0-1.917,0.348-2.429,1.015
		c-0.509,0.677-0.758,1.626-0.758,2.854v2.002c0,0.711,0.01,1.45,0.033,2.23c0.023,0.784,0.064,1.479,0.147,2.109
		c-0.358-0.034-0.706-0.052-1.058-0.052c-0.34,0-0.69,0.018-1.058,0.052c0.079-0.63,0.131-1.325,0.156-2.111
		c0.022-0.779,0.038-1.519,0.038-2.232v-2.446c0-0.716-0.015-1.45-0.038-2.233c-0.024-0.772-0.077-1.505-0.156-2.186
		c0.447,0.083,0.802,0.12,1.06,0.12c0.131,0,0.27-0.012,0.422-0.033c0.142-0.023,0.323-0.054,0.529-0.087
		c-0.049,0.634-0.076,1.263-0.076,1.893h0.046c0.441-0.679,0.968-1.199,1.589-1.567c0.603-0.379,1.345-0.553,2.191-0.553
		c0.454,0,0.899,0.062,1.347,0.177c0.447,0.13,0.85,0.353,1.222,0.652c0.359,0.312,0.65,0.729,0.888,1.255
		c0.219,0.528,0.337,1.194,0.337,2.017c0,0.682-0.017,1.369-0.055,2.084c-0.035,0.724-0.051,1.473-0.051,2.284v1.534
		c0,0.245,0.001,0.501,0.011,0.734c0.008,0.251,0.022,0.481,0.04,0.699c-0.311-0.034-0.64-0.052-0.997-0.052
		c-0.329,0-0.658,0.018-0.97,0.052c0.031-0.812,0.062-1.655,0.1-2.52c0.042-0.865,0.061-1.752,0.061-2.661v-1.438
		C97.443,54.398,97.208,53.507,96.755,52.902"/>
	<path fill="#231161" d="M114.795,53.056c0.538-0.102,1.019-0.287,1.442-0.551c0.421-0.255,0.77-0.6,1.021-1.041
		c0.266-0.425,0.386-0.974,0.386-1.64c0-0.636-0.109-1.147-0.35-1.541c-0.226-0.384-0.533-0.676-0.89-0.895
		c-0.37-0.206-0.775-0.349-1.229-0.423c-0.454-0.073-0.911-0.108-1.362-0.108c-0.418,0-0.759,0.013-1.037,0.035
		c-0.285,0.029-0.533,0.053-0.758,0.084c-0.03,0.751-0.062,1.503-0.09,2.244c-0.032,0.731-0.044,1.481-0.044,2.231v1.771h1.274
		C113.709,53.224,114.252,53.166,114.795,53.056 M111.929,58.908c0.028,0.793,0.061,1.584,0.09,2.397
		c0.309,0.033,0.654,0.054,1.061,0.073c0.405,0.021,0.83,0.029,1.253,0.029c0.5,0,0.983-0.083,1.447-0.26
		c0.462-0.177,0.864-0.427,1.216-0.773c0.342-0.336,0.612-0.75,0.819-1.247c0.209-0.494,0.311-1.063,0.311-1.697
		c0-0.681-0.124-1.239-0.373-1.667c-0.237-0.432-0.593-0.767-1.05-1.017c-0.454-0.24-1-0.412-1.644-0.509
		c-0.624-0.098-1.337-0.146-2.132-0.146h-1.065l0.022,2.427C111.884,57.318,111.897,58.12,111.929,58.908 M109.885,49.013
		c-0.044-1.007-0.084-2.012-0.133-3.02c0.421,0.036,0.831,0.071,1.255,0.094c0.421,0.028,0.835,0.04,1.253,0.04
		c0.405,0,0.819-0.022,1.239-0.063c0.423-0.048,0.849-0.071,1.257-0.071c0.679,0,1.304,0.054,1.901,0.15
		c0.599,0.102,1.125,0.287,1.581,0.538c0.456,0.265,0.825,0.61,1.084,1.048c0.273,0.45,0.396,1,0.396,1.652
		c0,1.163-0.361,2.075-1.083,2.735c-0.738,0.658-1.693,1.125-2.874,1.394v0.031c1.392,0.061,2.493,0.406,3.311,1.021
		c0.801,0.606,1.204,1.589,1.204,2.953c0,0.879-0.174,1.624-0.542,2.224c-0.355,0.598-0.829,1.085-1.406,1.453
		c-0.585,0.363-1.227,0.636-1.915,0.78c-0.705,0.148-1.4,0.224-2.084,0.224c-0.382,0-0.76-0.008-1.143-0.026
		c-0.382-0.018-0.77-0.03-1.144-0.03h-1.143c-0.383,0-0.761,0.019-1.146,0.056c0.049-1.005,0.089-2.005,0.133-3.003
		c0.037-0.994,0.054-2.018,0.054-3.061v-4.058C109.939,51.04,109.921,50.017,109.885,49.013"/>
	<path fill="#231161" d="M128.754,52.659c-0.224-0.083-0.459-0.12-0.69-0.12c-0.383,0-0.718,0.087-1.011,0.267
		c-0.308,0.166-0.551,0.402-0.759,0.698c-0.208,0.286-0.359,0.628-0.469,1.038c-0.111,0.401-0.167,0.824-0.167,1.281v2.597
		c0,1.052,0.003,1.864,0.013,2.423c0.007,0.559,0.038,1.013,0.092,1.354c-0.311-0.037-0.634-0.056-0.945-0.056
		c-0.357,0-0.685,0.019-0.997,0.056c0.052-0.537,0.085-1.265,0.097-2.182c0.007-0.919,0.012-2.05,0.012-3.38v-0.76
		c0-0.616-0.005-1.315-0.012-2.123c-0.011-0.8-0.044-1.728-0.097-2.764c0.167,0.031,0.337,0.061,0.5,0.083
		c0.148,0.024,0.318,0.038,0.497,0.038c0.143,0,0.285-0.013,0.447-0.038c0.164-0.021,0.321-0.052,0.498-0.083
		c-0.071,0.566-0.111,1.013-0.119,1.35c-0.01,0.328-0.013,0.638-0.013,0.944l0.048,0.022c0.925-1.703,1.962-2.546,3.11-2.546
		c0.145,0,0.269,0.008,0.375,0.026c0.092,0.02,0.225,0.062,0.386,0.123c-0.08,0.188-0.128,0.479-0.149,0.856
		c-0.013,0.379-0.021,0.722-0.021,1.042l-0.169,0.12C129.146,52.828,128.986,52.74,128.754,52.659"/>
	<path fill="#231161" d="M132.239,53.184c-0.024-0.772-0.075-1.504-0.152-2.182c0.439,0.081,0.795,0.121,1.065,0.121
		c0.271,0,0.625-0.04,1.062-0.121c-0.089,0.678-0.146,1.41-0.172,2.182c-0.028,0.782-0.04,1.517-0.04,2.229v2.446
		c0,0.708,0.012,1.449,0.04,2.229c0.027,0.786,0.083,1.478,0.172,2.109c-0.358-0.037-0.718-0.055-1.062-0.055
		c-0.34,0-0.708,0.018-1.065,0.055c0.077-0.631,0.128-1.323,0.152-2.109c0.021-0.78,0.037-1.521,0.037-2.229v-2.446
		C132.275,54.701,132.261,53.966,132.239,53.184 M132.312,46.06c0.227-0.24,0.516-0.361,0.841-0.361
		c0.324,0,0.611,0.122,0.839,0.361c0.239,0.229,0.361,0.517,0.361,0.836c0,0.33-0.122,0.614-0.361,0.843
		c-0.228,0.241-0.515,0.361-0.839,0.361c-0.325,0-0.614-0.12-0.841-0.361c-0.239-0.229-0.359-0.514-0.359-0.843
		C131.953,46.577,132.072,46.289,132.312,46.06"/>
	<path fill="#231161" d="M139.797,59.193c0.201,0.617,0.46,1.105,0.758,1.475c0.302,0.365,0.66,0.625,1.047,0.758
		c0.392,0.144,0.775,0.218,1.161,0.218c0.613,0,1.142-0.155,1.578-0.462c0.437-0.297,0.799-0.71,1.096-1.205
		c0.288-0.494,0.506-1.059,0.637-1.69c0.128-0.62,0.195-1.252,0.195-1.883c0-1.509-0.285-2.666-0.869-3.458
		c-0.581-0.796-1.435-1.191-2.564-1.191c-0.567,0-1.062,0.131-1.484,0.387c-0.414,0.266-0.756,0.625-1.037,1.088
		c-0.27,0.462-0.479,1.003-0.603,1.627c-0.138,0.624-0.206,1.283-0.206,1.991C139.507,57.792,139.605,58.575,139.797,59.193
		 M146.164,59.955c-0.116,0.254-0.29,0.522-0.505,0.818c-0.203,0.287-0.479,0.563-0.793,0.807c-0.328,0.259-0.706,0.454-1.142,0.616
		c-0.438,0.161-0.945,0.24-1.522,0.24c-0.599,0-1.184-0.104-1.757-0.312c-0.573-0.199-1.08-0.539-1.524-0.999
		c-0.443-0.464-0.801-1.063-1.083-1.8c-0.268-0.726-0.409-1.599-0.409-2.626c0-1.009,0.152-1.879,0.447-2.624
		c0.292-0.73,0.686-1.35,1.165-1.845c0.479-0.496,1.019-0.861,1.624-1.11c0.607-0.25,1.202-0.362,1.818-0.362
		c1.741,0,2.951,0.78,3.617,2.355h0.059v-2.303c0-0.598-0.003-1.203-0.014-1.811c-0.009-0.604-0.017-1.185-0.026-1.736
		c-0.007-0.552-0.019-1.07-0.025-1.558c-0.012-0.486-0.018-0.913-0.026-1.288c0.178,0.038,0.365,0.067,0.531,0.089
		c0.176,0.023,0.354,0.036,0.531,0.036c0.163,0,0.339-0.012,0.51-0.036c0.155-0.022,0.346-0.051,0.547-0.089
		c-0.041,0.503-0.084,1.22-0.113,2.18c-0.033,0.951-0.062,2-0.088,3.15c-0.022,1.137-0.045,2.32-0.062,3.534
		c-0.017,1.214-0.022,2.325-0.022,3.331c0,1.084,0.009,2.06,0.024,2.918c0.019,0.863,0.036,1.757,0.054,2.665
		c-0.321-0.031-0.623-0.048-0.916-0.048c-0.289,0-0.582,0.018-0.905,0.048l0.056-2.242L146.164,59.955L146.164,59.955z"/>
	<path fill="#231161" d="M157.098,52.216c-0.48-0.518-1.095-0.78-1.865-0.78c-0.84,0-1.5,0.289-1.972,0.864
		c-0.465,0.577-0.704,1.336-0.704,2.295c0,0.997,0.217,1.771,0.645,2.351c0.43,0.574,1.103,0.854,2.008,0.854
		c0.45,0,0.85-0.082,1.164-0.266c0.314-0.188,0.59-0.424,0.793-0.736c0.213-0.307,0.375-0.66,0.479-1.063
		c0.092-0.395,0.144-0.814,0.144-1.255C157.789,53.495,157.562,52.736,157.098,52.216 M158.227,62.708
		c-0.547-0.371-1.453-0.566-2.711-0.566c-1.177,0-2.086,0.201-2.727,0.58c-0.646,0.38-0.961,1.082-0.961,2.084
		c0,0.533,0.08,0.988,0.261,1.369c0.187,0.377,0.42,0.678,0.735,0.92c0.301,0.229,0.658,0.403,1.091,0.516
		c0.424,0.107,0.874,0.154,1.358,0.154c0.47,0,0.93-0.051,1.383-0.178c0.464-0.13,0.863-0.32,1.209-0.564
		c0.35-0.26,0.643-0.572,0.859-0.953c0.219-0.393,0.332-0.855,0.332-1.383C159.059,63.745,158.775,63.082,158.227,62.708
		 M151.066,52.892c0.242-0.478,0.562-0.887,0.976-1.193c0.41-0.307,0.888-0.551,1.427-0.711c0.543-0.148,1.12-0.229,1.73-0.229
		c0.304,0,0.584,0.007,0.867,0.025c0.266,0.021,0.611,0.041,1.043,0.075c0.358,0.021,0.672,0.04,0.962,0.057
		c0.278,0.01,0.508,0.018,0.675,0.018c0.88,0,1.52-0.039,1.906-0.096c-0.014,0.066-0.025,0.151-0.036,0.238
		c-0.009,0.087-0.011,0.168-0.011,0.251c0,0.08,0.002,0.15,0.011,0.238c0.011,0.089,0.022,0.172,0.036,0.253
		c-0.45-0.036-0.887-0.068-1.326-0.11c-0.432-0.039-0.854-0.069-1.27-0.083l-0.049,0.05c0.484,0.263,0.877,0.681,1.184,1.24
		c0.293,0.556,0.447,1.124,0.447,1.721c0,1.181-0.401,2.102-1.192,2.772c-0.783,0.671-1.845,1-3.181,1
		c-0.227,0-0.434-0.014-0.65-0.028c-0.206-0.017-0.424-0.027-0.647-0.027c-0.276,0-0.534,0.104-0.784,0.315
		c-0.248,0.195-0.358,0.464-0.358,0.771c0,0.416,0.089,0.713,0.288,0.902c0.201,0.186,0.558,0.289,1.091,0.305
		c0.435,0.017,0.865,0.034,1.293,0.041c0.42,0.008,0.848,0.024,1.283,0.041c0.726,0.015,1.34,0.102,1.847,0.253
		c0.508,0.162,0.918,0.375,1.236,0.635c0.326,0.275,0.554,0.579,0.707,0.921c0.152,0.353,0.229,0.725,0.229,1.133
		c0,0.551-0.109,1.107-0.324,1.674c-0.203,0.566-0.543,1.08-0.985,1.533c-0.446,0.455-1.021,0.838-1.729,1.135
		c-0.697,0.295-1.549,0.443-2.535,0.443c-1.513,0-2.715-0.295-3.589-0.9c-0.868-0.611-1.319-1.431-1.319-2.484
		c0-0.42,0.076-0.788,0.23-1.129c0.154-0.356,0.335-0.657,0.573-0.923c0.229-0.269,0.501-0.484,0.793-0.635
		c0.304-0.158,0.603-0.279,0.927-0.359v-0.038c-0.488-0.136-0.867-0.377-1.109-0.705c-0.262-0.337-0.383-0.73-0.383-1.185
		c0-0.263,0.045-0.514,0.152-0.737c0.104-0.214,0.237-0.418,0.387-0.583c0.157-0.176,0.346-0.324,0.54-0.434
		c0.212-0.104,0.409-0.173,0.593-0.209v-0.048c-0.713-0.314-1.278-0.763-1.684-1.337c-0.416-0.575-0.613-1.284-0.613-2.149
		C150.723,53.939,150.828,53.37,151.066,52.892"/>
	<path fill="#231161" d="M166.115,51.917c-0.4,0.267-0.725,0.6-0.989,1.005c-0.253,0.397-0.458,0.837-0.591,1.312
		c-0.127,0.48-0.21,0.932-0.245,1.363c0.485,0.016,0.994,0.032,1.522,0.047c0.527,0.013,1.043,0.02,1.547,0.02
		c0.517,0,1.045-0.007,1.582-0.02c0.537-0.015,1.052-0.031,1.558-0.047c0-0.431-0.041-0.878-0.112-1.352
		c-0.064-0.467-0.201-0.906-0.419-1.314c-0.206-0.414-0.51-0.75-0.883-1.016c-0.369-0.267-0.871-0.404-1.483-0.404
		C167.02,51.513,166.525,51.65,166.115,51.917 M163.507,52.41c0.931-1.102,2.267-1.652,4.03-1.652c0.83,0,1.551,0.118,2.161,0.385
		c0.604,0.267,1.112,0.61,1.52,1.041c0.406,0.43,0.703,0.936,0.903,1.517c0.201,0.584,0.304,1.209,0.304,1.872
		c0,0.148-0.006,0.304-0.015,0.458c-0.008,0.146-0.02,0.299-0.039,0.458c-0.859-0.015-1.693-0.037-2.528-0.052
		c-0.831-0.018-1.667-0.029-2.521-0.029c-0.521,0-1.034,0.011-1.542,0.029c-0.513,0.015-1.025,0.037-1.543,0.052
		c-0.019,0.08-0.028,0.197-0.028,0.352v0.311c0,0.611,0.095,1.183,0.279,1.719c0.172,0.533,0.439,0.995,0.785,1.384
		c0.342,0.384,0.775,0.684,1.275,0.921c0.503,0.226,1.087,0.334,1.741,0.334c0.317,0,0.638-0.045,0.974-0.121
		c0.33-0.085,0.646-0.209,0.969-0.361c0.31-0.142,0.603-0.319,0.881-0.53c0.27-0.195,0.512-0.425,0.725-0.651l0.105,0.06
		l-0.129,1.159c-0.471,0.374-1.059,0.702-1.765,0.963c-0.702,0.274-1.423,0.408-2.186,0.408c-0.843,0-1.627-0.129-2.317-0.393
		c-0.701-0.253-1.31-0.634-1.818-1.128c-0.515-0.503-0.902-1.078-1.185-1.755c-0.271-0.68-0.411-1.411-0.411-2.198
		C162.133,55.029,162.592,53.511,163.507,52.41"/>
	<path fill="#231161" d="M193.695,49.052c-0.038-0.998-0.083-2.02-0.129-3.059c0.209,0.037,0.41,0.071,0.591,0.096
		c0.194,0.024,0.387,0.039,0.567,0.039c0.193,0,0.377-0.014,0.567-0.039c0.196-0.024,0.384-0.059,0.593-0.096
		c-0.052,1.039-0.103,2.058-0.147,3.054c-0.046,0.997-0.067,2.017-0.067,3.054v4.054c0,1.039,0.021,2.069,0.067,3.074
		c0.045,1.007,0.097,1.994,0.147,2.965c-0.357-0.033-0.752-0.052-1.16-0.052c-0.404,0-0.785,0.02-1.158,0.052
		c0.045-0.969,0.09-1.957,0.127-2.96c0.039-1.007,0.062-2.034,0.062-3.076v-2.119c-0.846-0.015-1.676-0.023-2.465-0.031
		c-0.8-0.01-1.614-0.016-2.474-0.016c-0.844,0-1.662,0.005-2.463,0.016c-0.787,0.008-1.616,0.017-2.461,0.031v2.119
		c0,1.042,0.021,2.068,0.068,3.076c0.043,1.003,0.082,1.991,0.137,2.96c-0.36-0.033-0.742-0.052-1.15-0.052
		c-0.418,0-0.801,0.02-1.158,0.052c0.048-0.971,0.09-1.958,0.127-2.965c0.027-1.005,0.047-2.035,0.047-3.074v-4.054
		c0-1.037-0.02-2.057-0.047-3.054c-0.038-0.996-0.08-2.015-0.127-3.054c0.195,0.037,0.398,0.071,0.591,0.096
		c0.181,0.024,0.378,0.039,0.567,0.039c0.185,0,0.377-0.014,0.556-0.039c0.195-0.024,0.397-0.059,0.595-0.096
		c-0.055,1.039-0.094,2.061-0.137,3.059c-0.046,0.999-0.068,2.018-0.068,3.057v0.83c0.845,0.02,1.676,0.033,2.461,0.045
		c0.802,0.017,1.619,0.028,2.463,0.028c0.859,0,1.674-0.012,2.474-0.028c0.79-0.012,1.62-0.025,2.465-0.045v-0.83
		C193.756,51.07,193.732,50.051,193.695,49.052"/>
	<path fill="#231161" d="M201.059,58.545c0.125,0.616,0.328,1.16,0.605,1.64c0.282,0.475,0.665,0.856,1.133,1.143
		c0.471,0.279,1.057,0.421,1.75,0.421c0.686,0,1.268-0.143,1.738-0.421c0.471-0.287,0.855-0.668,1.134-1.143
		c0.288-0.48,0.483-1.024,0.604-1.64c0.121-0.618,0.181-1.258,0.181-1.905c0-0.662-0.06-1.303-0.181-1.921
		c-0.123-0.613-0.316-1.159-0.604-1.637c-0.278-0.479-0.663-0.859-1.134-1.146c-0.471-0.277-1.053-0.421-1.738-0.421
		c-0.693,0-1.279,0.145-1.75,0.421c-0.468,0.287-0.851,0.667-1.133,1.146c-0.277,0.479-0.48,1.024-0.605,1.637
		c-0.117,0.618-0.166,1.259-0.166,1.921C200.893,57.287,200.941,57.927,201.059,58.545 M199.311,53.907
		c0.347-0.75,0.787-1.362,1.338-1.825c0.552-0.457,1.17-0.792,1.848-1.013c0.688-0.208,1.374-0.308,2.051-0.308
		c0.686,0,1.373,0.1,2.055,0.308c0.666,0.221,1.281,0.557,1.834,1.013c0.551,0.463,0.993,1.075,1.338,1.825
		c0.334,0.739,0.507,1.66,0.507,2.729c0,1.07-0.173,1.975-0.507,2.714c-0.345,0.752-0.789,1.358-1.338,1.823
		c-0.553,0.464-1.168,0.791-1.834,0.976c-0.682,0.194-1.369,0.29-2.055,0.29c-0.677,0-1.363-0.096-2.051-0.29
		c-0.678-0.185-1.296-0.512-1.848-0.976c-0.551-0.465-0.992-1.071-1.338-1.823c-0.336-0.74-0.508-1.645-0.508-2.714
		C198.803,55.567,198.975,54.646,199.311,53.907"/>
	<path fill="#231161" d="M213.138,60.538c0.165,0.191,0.371,0.366,0.589,0.526c0.235,0.172,0.487,0.312,0.782,0.413
		c0.291,0.109,0.601,0.167,0.933,0.167c0.293,0,0.589-0.05,0.854-0.144c0.283-0.093,0.519-0.222,0.738-0.397
		c0.204-0.178,0.377-0.391,0.503-0.667c0.132-0.26,0.195-0.569,0.195-0.919c0-0.486-0.142-0.856-0.424-1.118
		c-0.269-0.255-0.609-0.476-1.025-0.64c-0.408-0.162-0.858-0.311-1.344-0.439c-0.484-0.126-0.934-0.3-1.353-0.534
		c-0.407-0.22-0.744-0.533-1.028-0.907c-0.268-0.372-0.412-0.894-0.412-1.559c0-0.516,0.088-0.99,0.269-1.423
		c0.165-0.431,0.423-0.815,0.747-1.125c0.339-0.319,0.743-0.562,1.229-0.751c0.485-0.174,1.043-0.263,1.68-0.263
		c0.582,0,1.07,0.08,1.466,0.224c0.399,0.16,0.774,0.305,1.146,0.432c-0.128,0.231-0.246,0.515-0.363,0.869
		c-0.1,0.343-0.17,0.613-0.202,0.793h-0.289c-0.117-0.368-0.367-0.705-0.722-1.01c-0.375-0.292-0.817-0.446-1.352-0.446
		c-0.23,0-0.47,0.042-0.697,0.121c-0.242,0.08-0.457,0.191-0.642,0.351c-0.192,0.162-0.351,0.37-0.468,0.618
		c-0.131,0.252-0.194,0.551-0.194,0.89c0,0.505,0.144,0.904,0.411,1.174c0.281,0.28,0.618,0.487,1.025,0.654
		c0.42,0.159,0.869,0.287,1.353,0.407c0.491,0.123,0.935,0.286,1.341,0.496c0.411,0.217,0.762,0.508,1.029,0.88
		c0.283,0.387,0.415,0.908,0.415,1.57c0,0.457-0.093,0.9-0.294,1.34c-0.202,0.44-0.479,0.834-0.846,1.195
		c-0.373,0.353-0.818,0.632-1.334,0.822c-0.521,0.201-1.113,0.3-1.762,0.3c-0.729,0-1.336-0.066-1.82-0.215
		c-0.487-0.138-0.892-0.292-1.231-0.481c0.096-0.208,0.196-0.48,0.301-0.836c0.107-0.353,0.147-0.644,0.147-0.883h0.287
		C212.855,60.179,212.984,60.349,213.138,60.538"/>
	<path fill="#231161" d="M230.018,54.208c-0.188-0.617-0.449-1.11-0.75-1.475c-0.315-0.367-0.662-0.627-1.054-0.773
		c-0.403-0.131-0.787-0.204-1.161-0.204c-0.633,0-1.175,0.132-1.621,0.396c-0.449,0.279-0.824,0.629-1.102,1.075
		c-0.277,0.45-0.489,0.974-0.616,1.584c-0.129,0.605-0.179,1.251-0.179,1.918c0,3.276,1.139,4.915,3.447,4.915
		c0.568,0,1.06-0.136,1.473-0.387c0.417-0.267,0.77-0.624,1.041-1.086c0.284-0.462,0.48-1.008,0.618-1.631
		c0.139-0.627,0.207-1.29,0.207-1.992C230.321,55.607,230.218,54.823,230.018,54.208 M221.78,56.108
		c-0.007-0.627-0.02-1.256-0.03-1.878c-0.016-0.622-0.041-1.217-0.061-1.771c-0.026-0.57-0.057-1.052-0.084-1.469
		c0.438,0.081,0.804,0.12,1.064,0.12c0.275,0,0.626-0.039,1.066-0.12c-0.073,0.417-0.122,0.808-0.158,1.178
		c-0.032,0.375-0.042,0.759-0.042,1.131h0.034c0.111-0.257,0.271-0.522,0.483-0.813c0.195-0.29,0.472-0.566,0.786-0.823
		c0.321-0.252,0.719-0.474,1.174-0.652c0.452-0.165,0.975-0.252,1.561-0.252c0.598,0,1.191,0.106,1.779,0.336
		c0.567,0.235,1.084,0.581,1.543,1.051c0.449,0.469,0.808,1.074,1.084,1.811c0.276,0.725,0.416,1.602,0.416,2.607
		c0,1.004-0.153,1.874-0.442,2.619c-0.31,0.73-0.696,1.347-1.174,1.832c-0.474,0.491-1.022,0.855-1.64,1.075
		c-0.613,0.232-1.229,0.348-1.844,0.348c-1.72,0-2.96-0.757-3.707-2.254h-0.053v1.481c0,0.5,0.005,1.065,0.008,1.687
		c0.005,0.624,0.014,1.231,0.035,1.845c0.015,0.611,0.042,1.201,0.066,1.758c0.025,0.559,0.056,1.031,0.092,1.419
		c-0.44-0.067-0.791-0.093-1.066-0.093c-0.261,0-0.626,0.025-1.064,0.093c0.027-0.39,0.058-0.86,0.084-1.419
		c0.021-0.559,0.045-1.146,0.061-1.758c0.011-0.614,0.023-1.221,0.03-1.842c0.009-0.624,0.014-1.189,0.014-1.689v-3.819
		C221.794,57.31,221.789,56.729,221.78,56.108"/>
	<path fill="#231161" d="M235.725,53.554c-0.022-0.777-0.062-1.508-0.139-2.172c0.438,0.067,0.791,0.106,1.064,0.106
		c0.263,0,0.613-0.039,1.062-0.106c-0.089,0.665-0.145,1.396-0.174,2.172c-0.027,0.778-0.038,1.52-0.038,2.226v2.454
		c0,0.701,0.011,1.451,0.038,2.22c0.029,0.788,0.084,1.49,0.174,2.109c-0.368-0.036-0.72-0.054-1.062-0.054
		c-0.356,0-0.707,0.018-1.064,0.054c0.076-0.619,0.116-1.322,0.139-2.109c0.022-0.769,0.037-1.519,0.037-2.22V55.78
		C235.762,55.074,235.747,54.332,235.725,53.554 M235.796,46.424c0.239-0.238,0.515-0.35,0.854-0.35c0.324,0,0.604,0.111,0.839,0.35
		c0.241,0.231,0.347,0.517,0.347,0.838c0,0.338-0.105,0.614-0.347,0.854c-0.236,0.23-0.515,0.35-0.839,0.35
		c-0.338,0-0.614-0.119-0.854-0.35c-0.226-0.24-0.345-0.516-0.345-0.854C235.451,46.941,235.57,46.657,235.796,46.424"/>
	<path fill="#231161" d="M243.848,48.207c-0.051,0.589-0.087,1.179-0.111,1.754c-0.024,0.579-0.053,1.157-0.083,1.741
		c0.178,0,0.493-0.005,0.973-0.013c0.474-0.008,0.985-0.031,1.537-0.066c-0.015,0.047-0.024,0.136-0.024,0.265v0.233v0.266
		c0,0.105,0.01,0.184,0.024,0.231c-0.211-0.018-0.429-0.028-0.64-0.041c-0.229-0.008-0.455-0.016-0.713-0.016h-1.156
		c-0.019,0.068-0.035,0.327-0.059,0.765c-0.02,0.437-0.031,0.961-0.042,1.567c-0.019,0.604-0.028,1.236-0.04,1.892
		c-0.005,0.663-0.01,1.253-0.01,1.773c0,0.44,0.01,0.866,0.038,1.297c0.022,0.426,0.089,0.805,0.216,1.14
		c0.128,0.345,0.321,0.611,0.564,0.82c0.261,0.196,0.617,0.3,1.089,0.3c0.125,0,0.286-0.018,0.505-0.05
		c0.218-0.03,0.393-0.067,0.554-0.11v0.559c-0.261,0.049-0.562,0.107-0.879,0.181c-0.332,0.071-0.636,0.108-0.944,0.108
		c-0.986,0-1.705-0.247-2.174-0.737c-0.47-0.484-0.709-1.19-0.709-2.143c0-0.423,0.01-0.88,0.024-1.376
		c0.017-0.495,0.037-1.038,0.056-1.627c0.022-0.592,0.045-1.246,0.062-1.952c0.015-0.721,0.021-1.513,0.021-2.405h-0.765
		c-0.13,0-0.253,0.008-0.394,0.016c-0.151,0.012-0.303,0.023-0.451,0.041c0.016-0.094,0.029-0.178,0.039-0.268
		c0.006-0.087,0.012-0.183,0.012-0.28c0-0.083-0.006-0.159-0.012-0.235c-0.01-0.077-0.023-0.157-0.039-0.241
		c0.699,0.052,1.217,0.084,1.557,0.084c-0.014-0.313-0.021-0.715-0.03-1.188c-0.007-0.472-0.022-0.957-0.052-1.463l1.936-0.822
		L243.848,48.207L243.848,48.207z"/>
	<path fill="#231161" d="M253.386,56.927c-0.351,0.066-0.714,0.135-1.069,0.208c-0.358,0.062-0.726,0.15-1.071,0.266
		c-0.351,0.112-0.671,0.264-0.94,0.444c-0.281,0.193-0.492,0.426-0.662,0.711c-0.166,0.281-0.25,0.648-0.25,1.086
		c0,0.735,0.215,1.294,0.633,1.68c0.428,0.372,0.906,0.563,1.424,0.563c0.584,0,1.133-0.169,1.625-0.495
		c0.506-0.338,0.883-0.716,1.143-1.155l0.096-3.542C254.053,56.785,253.734,56.864,253.386,56.927 M250.443,51.415
		c0.602-0.195,1.213-0.29,1.845-0.29c0.567,0,1.086,0.083,1.553,0.252c0.474,0.156,0.874,0.398,1.218,0.698
		c0.329,0.316,0.597,0.682,0.781,1.11c0.197,0.432,0.293,0.907,0.293,1.427c0,0.901-0.016,1.792-0.052,2.674
		c-0.037,0.904-0.056,1.838-0.056,2.823c0,0.198,0.005,0.388,0.012,0.603c0.009,0.212,0.044,0.397,0.111,0.574
		c0.062,0.155,0.145,0.292,0.264,0.403c0.12,0.116,0.302,0.169,0.529,0.169c0.082,0,0.166,0,0.254-0.008
		c0.078-0.008,0.156-0.037,0.238-0.086v0.518c-0.166,0.081-0.384,0.147-0.647,0.186c-0.253,0.044-0.547,0.068-0.866,0.068
		c-0.506,0-0.885-0.121-1.162-0.385c-0.261-0.249-0.424-0.594-0.469-0.998c-0.566,0.563-1.125,0.981-1.673,1.251
		c-0.55,0.262-1.212,0.4-2.019,0.4c-0.389,0-0.768-0.056-1.154-0.168c-0.372-0.113-0.698-0.285-0.995-0.545
		c-0.284-0.242-0.525-0.555-0.7-0.903c-0.186-0.349-0.275-0.761-0.275-1.221c0-0.937,0.301-1.675,0.877-2.19
		c0.588-0.521,1.409-0.861,2.444-1.039c0.838-0.134,1.503-0.256,1.979-0.36c0.478-0.104,0.832-0.213,1.057-0.314
		c0.234-0.114,0.359-0.242,0.41-0.399c0.047-0.138,0.068-0.338,0.068-0.579c0-0.391-0.045-0.764-0.142-1.123
		c-0.087-0.369-0.239-0.677-0.446-0.95c-0.197-0.261-0.471-0.484-0.793-0.638c-0.34-0.17-0.736-0.255-1.208-0.255
		c-0.631,0-1.217,0.146-1.76,0.423c-0.542,0.289-0.942,0.677-1.206,1.183h-0.261v-1.229
		C249.203,51.96,249.855,51.599,250.443,51.415"/>
	<path fill="#231161" d="M260.643,49.824c-0.01-0.619-0.022-1.243-0.037-1.858c-0.017-0.612-0.033-1.198-0.061-1.758
		c-0.021-0.559-0.052-1.034-0.08-1.423c0.451,0.091,0.803,0.133,1.064,0.133c0.275,0,0.625-0.042,1.063-0.133
		c-0.034,0.391-0.056,0.865-0.081,1.423c-0.027,0.561-0.047,1.146-0.067,1.758c-0.018,0.616-0.032,1.24-0.038,1.858
		c-0.012,0.631-0.016,1.215-0.016,1.751v4.271c0,0.533,0.004,1.119,0.016,1.746c0.006,0.631,0.021,1.246,0.038,1.86
		c0.021,0.614,0.04,1.197,0.067,1.749c0.025,0.55,0.047,1,0.081,1.361c-0.358-0.037-0.708-0.057-1.063-0.057
		c-0.344,0-0.694,0.02-1.064,0.057c0.028-0.36,0.059-0.811,0.08-1.361c0.027-0.551,0.044-1.134,0.061-1.749
		c0.015-0.616,0.026-1.229,0.037-1.86c0.01-0.627,0.015-1.212,0.015-1.746v-4.271C260.657,51.04,260.652,50.456,260.643,49.824"/>
	
		<line fill="none" stroke="#231161" stroke-width="0.4131" stroke-miterlimit="10" x1="26.474" y1="74.363" x2="263.051" y2="74.363"/>
	<path fill="#231161" d="M44.977,92.561c0.362-0.641,1.032-1.035,1.885-1.035c1.41,0,2.288,0.92,2.288,2.742
		c0,1.834-0.926,2.74-2.338,2.74c-0.858,0-1.473-0.35-1.834-1v2.868h-0.576V91.6h0.576L44.977,92.561L44.977,92.561z M46.771,96.502
		c1.021,0,1.782-0.588,1.782-2.236c0-1.64-0.761-2.234-1.782-2.234c-1.02,0-1.803,0.595-1.803,2.234
		C44.967,95.914,45.751,96.502,46.771,96.502"/>
	<path fill="#231161" d="M52.768,93.781l1.002-0.135v-0.381c0-0.937-0.483-1.254-1.435-1.254c-1.018,0-1.472,0.381-1.483,1.133
		h-0.575c0-0.762,0.41-1.617,2.028-1.617c1.793,0,2.047,0.949,2.047,1.824v2.709c0,0.17,0.014,0.74,0.065,0.873H53.82l-0.019-0.267
		c-0.01-0.165-0.01-0.384-0.01-0.606c-0.187,0.336-0.848,0.945-1.99,0.945c-0.969,0-1.75-0.525-1.75-1.557
		c0-1.061,0.812-1.361,1.358-1.471L52.768,93.781z M53.77,94.121L51.78,94.4c-0.647,0.084-1.141,0.31-1.141,1.029
		c0,0.651,0.441,1.104,1.286,1.104c1.009,0,1.845-0.631,1.845-1.711V94.121z"/>
	<path fill="#231161" d="M58.034,92.195c-0.93,0-1.731,0.391-1.731,1.916v2.824h-0.578V91.6h0.578v0.986
		c0.34-0.709,1.133-0.986,1.792-0.986h0.31v0.596H58.034z"/>
	<path fill="#231161" d="M62.047,96.902l-0.229,0.031c-0.142,0.01-0.338,0.021-0.585,0.021c-0.846,0-1.162-0.276-1.162-1.276v-3.584
		h-0.92V91.6h0.92v-1.736h0.587V91.6h1.45v0.494h-1.45v3.461c0,0.801,0.152,0.895,0.762,0.895c0.112,0,0.524-0.039,0.627-0.039
		V96.902z"/>
	<path fill="#231161" d="M67.526,97.006c-1.423,0-2.39-0.914-2.39-2.74c0-1.812,0.967-2.74,2.39-2.74c1.421,0,2.39,0.918,2.39,2.74
		C69.917,96.1,68.948,97.006,67.526,97.006 M67.526,96.502c1.032,0,1.792-0.588,1.792-2.236c0-1.64-0.76-2.234-1.792-2.234
		c-1.021,0-1.792,0.595-1.792,2.234C65.734,95.914,66.505,96.502,67.526,96.502"/>
	<path fill="#231161" d="M71.976,92.092v4.842H71.4v-4.842h-0.968v-0.494H71.4v-1.029c0-0.723,0.452-1.164,1.255-1.164
		c0.135,0,0.3,0.01,0.454,0.01h0.256v0.492H72.85c-0.515,0-0.874,0.062-0.874,0.734v0.957h1.3v0.494H71.976z"/>
	<polygon fill="#00BCB4" points="133.486,83.104 133.486,96.959 132.307,96.959 132.307,90.527 124.027,90.527 124.027,96.959 
		122.849,96.959 122.849,83.104 124.027,83.104 124.027,89.415 132.307,89.415 132.307,83.104 	"/>
	<path fill="#00BCB4" d="M140.766,96.113c1.733,0,3.027-0.99,3.236-2.814h1.128c-0.31,2.512-1.997,3.805-4.384,3.805
		c-2.714,0-4.681-1.809-4.681-5.367c0-3.227,1.946-5.362,4.641-5.362c2.759,0,4.445,2.118,4.445,5.463h-7.917
		C137.295,94.207,138.222,96.113,140.766,96.113 M140.685,87.359c-1.806,0-3.188,1.23-3.412,3.529h6.707
		C143.771,88.258,142.269,87.359,140.685,87.359"/>
	<path fill="#00BCB4" d="M154.426,90.527v-0.748c0-1.846-0.959-2.459-2.794-2.459c-1.997,0-2.894,0.734-2.916,2.219H147.6
		c0-1.502,0.805-3.165,3.971-3.165c3.498,0,3.994,1.847,3.994,3.558v5.303c0,0.367,0.039,1.476,0.142,1.726h-1.19l-0.027-0.534
		c-0.021-0.312-0.021-0.729-0.021-1.191c-0.367,0.676-1.645,1.869-3.884,1.869c-1.896,0-3.45-1.031-3.45-3.047
		c0-2.084,1.606-2.67,2.674-2.895l2.652-0.372L154.426,90.527z M150.543,91.988c-1.294,0.164-2.258,0.613-2.258,2.029
		c0,1.256,0.877,2.154,2.529,2.154c1.987,0,3.611-1.229,3.611-3.346v-1.364L150.543,91.988z"/>
	<polygon fill="#00BCB4" points="158.486,83.104 159.617,83.104 159.617,90.355 159.617,96.959 158.486,96.959 158.486,90.355 	"/>
	<path fill="#00BCB4" d="M166.031,97.001c-1.846,0-2.463-0.493-2.463-2.511v-7.01h-1.771v-0.967h1.771v-2.814h1.151v2.814h2.854
		v0.967h-2.854v6.766c0,1.521,0.325,1.766,1.373,1.766c0.433,0,1.076-0.039,1.36-0.082v0.969
		C167.061,96.961,166.546,97.001,166.031,97.001"/>
	<path fill="#00BCB4" d="M177.227,90.254c0-2.158-1.217-2.896-2.701-2.896c-1.824,0-3.551,1.213-3.551,3.863v5.736h-1.127V83.102
		h1.127v5.197c0.719-1.188,1.998-1.925,3.764-1.925c2.24,0,3.621,1.29,3.621,3.407v7.178h-1.131v-6.705H177.227z"/>
	<path fill="#00BCB4" d="M185.494,97.102c-2.733,0-4.71-1.807-4.71-5.363c0-3.561,2.078-5.367,4.71-5.367
		c2.18,0,3.99,1.212,4.257,3.621h-1.131c-0.263-1.955-1.604-2.633-3.104-2.633c-2.008,0-3.574,1.211-3.574,4.398
		c0,3.123,1.625,4.355,3.594,4.355c1.734,0,2.964-0.939,3.188-2.812h1.098C189.527,95.811,187.924,97.102,185.494,97.102"/>
	<path fill="#00BCB4" d="M199.012,90.527v-0.748c0-1.846-0.947-2.459-2.793-2.459c-1.996,0-2.881,0.734-2.902,2.219h-1.129
		c0-1.502,0.805-3.165,3.971-3.165c3.51,0,4.003,1.847,4.003,3.558v5.303c0,0.367,0.042,1.476,0.146,1.726h-1.191l-0.041-0.534
		c-0.021-0.312-0.021-0.729-0.021-1.191c-0.353,0.676-1.645,1.869-3.885,1.869c-1.894,0-3.438-1.031-3.438-3.047
		c0-2.084,1.607-2.67,2.675-2.895l2.651-0.372L199.012,90.527z M195.129,91.988c-1.281,0.164-2.246,0.613-2.246,2.029
		c0,1.256,0.865,2.154,2.529,2.154c1.976,0,3.6-1.229,3.6-3.346v-1.364L195.129,91.988z"/>
	<path fill="#00BCB4" d="M204.202,91.445v5.516h-1.13V86.514h1.13v1.936c0.676-1.4,2.219-1.936,3.526-1.936h0.588v1.168h-0.726
		C205.785,87.682,204.202,88.449,204.202,91.445"/>
	<path fill="#00BCB4" d="M214.419,96.113c1.742,0,3.024-0.99,3.249-2.814h1.127c-0.322,2.512-2.009,3.805-4.396,3.805
		c-2.713,0-4.668-1.809-4.668-5.367c0-3.227,1.937-5.362,4.629-5.362c2.772,0,4.453,2.118,4.453,5.463h-7.92
		C210.949,94.207,211.888,96.113,214.419,96.113 M214.338,87.359c-1.805,0-3.188,1.23-3.411,3.529h6.72
		C217.424,88.258,215.921,87.359,214.338,87.359"/>
	<path fill="#00BCB4" d="M229.005,96.113c1.825,0,2.896-0.989,2.896-2.979v-6.764h1.127v6.764c0,2.814-1.783,3.965-4.045,3.965
		c-2.237,0-3.951-1.188-3.951-4.002v-6.727h1.131v6.727C226.162,95.084,227.247,96.113,229.005,96.113"/>
	<polygon fill="#00BCB4" points="237.066,94.227 237.066,96.959 235.938,96.959 235.938,86.373 237.066,86.373 237.066,92.885 
		242.542,86.373 243.792,86.373 240.092,90.867 244.186,96.959 242.866,96.959 239.307,91.553 	"/>
	<path fill="#231161" d="M90.399,85.305v9.455c0,1.172,0.433,1.666,1.624,1.785c0.141,0.021,0.201,0.102,0.201,0.217v0.199h-5.755
		v-0.199c0-0.115,0.047-0.195,0.19-0.217c1.29-0.143,1.604-0.734,1.604-1.785v-4.383c0-0.078-0.062-0.121-0.121-0.121h-7.507
		c-0.063,0-0.124,0.043-0.124,0.121v4.383c0,1.051,0.312,1.643,1.603,1.785c0.142,0.021,0.191,0.102,0.191,0.217v0.199h-5.758
		v-0.199c0-0.115,0.063-0.195,0.204-0.217c1.189-0.119,1.624-0.613,1.624-1.785v-9.455c0-1.05-0.303-1.643-1.624-1.775
		c-0.141-0.018-0.204-0.098-0.204-0.221v-0.201h5.758v0.201c0,0.123-0.05,0.203-0.191,0.221c-1.167,0.134-1.603,0.627-1.603,1.775
		v4.061c0,0.053,0.042,0.115,0.124,0.115h7.507c0.081,0,0.121-0.062,0.121-0.115v-4.061c0-1.148-0.434-1.643-1.604-1.775
		c-0.143-0.018-0.19-0.098-0.19-0.221v-0.201h5.755v0.201c0,0.123-0.06,0.203-0.201,0.221
		C90.702,83.663,90.399,84.255,90.399,85.305"/>
	<path fill="#231161" d="M100.336,97.184c-4.011,0-7.481-2.26-7.481-6.926c0-4.357,2.854-7.357,7.481-7.357
		c1.785,0,3.801,0.289,5.342,0.629v3.463h-0.271c-0.102,0-0.183-0.062-0.223-0.163c-0.907-2.31-2.671-3.354-4.687-3.354
		c-2.896,0-5.221,1.994-5.221,6.067c0,4.374,2.47,6.722,5.958,6.722c2.185,0,3.659-0.906,4.585-2.158
		c0.102-0.129,0.229-0.148,0.373-0.068l0.203,0.109C105.104,96.189,103.087,97.184,100.336,97.184"/>
	<path fill="#231161" d="M115.379,96.958v-0.196c0-0.111,0.062-0.193,0.253-0.216c0.879-0.06,1.149-0.411,1.149-0.946
		c0-0.459-0.224-0.97-0.534-1.888l-0.656-1.894c-0.041-0.1-0.109-0.162-0.211-0.162h-4.868c-0.103,0-0.184,0.062-0.226,0.162
		l-0.511,1.32c-0.25,0.694-0.625,1.684-0.625,2.297c0,0.768,0.394,1.029,1.3,1.109c0.144,0.021,0.204,0.104,0.204,0.217v0.195
		h-4.416v-0.195c0-0.113,0.059-0.195,0.264-0.217c1.067-0.1,1.317-0.736,2.717-3.921l3.883-9.666h1.19c0.1,0,0.19,0.06,0.231,0.149
		l4.355,11.058c0.594,1.493,1.006,2.2,2.096,2.379c0.122,0.021,0.182,0.081,0.182,0.198v0.214h-5.777V96.958z M115.157,90.71
		l-2.056-5.506c-0.021-0.054-0.04-0.069-0.062-0.069c-0.021,0-0.042,0.018-0.06,0.069l-2.22,5.506c-0.027,0.081,0,0.161,0.102,0.161
		h4.194C115.157,90.872,115.197,90.792,115.157,90.71"/>
</g>
</svg>
