<svg id="Layer_1" xmlns="http://www.w3.org/2000/svg" viewBox="0 0 445 90"><style>.st0{display:none}.st1{display:inline}.st2{fill:#fff}.st3{fill:#56e07b}.st4{fill:#2f285a}</style><g id="GREEN_WHITE" class="st0"><g class="st1"><path class="st2" d="M89.9 22.9c11.2 0 18 6.1 18 15.3s-6.7 15.3-18 15.3h-2.6v12.8c0 .4-.4.9-1 .9H74.7c-.4 0-.9-.4-.9-.9V23.9c0-.5.4-1 .9-1h15.2zm.5 19c2.2 0 3.8-1.5 3.8-3.8 0-2.2-1.5-3.8-3.8-3.8h-3.3v7.6h3.3zM138.3 55.6c.4 0 .8.4.8.9l-.9 9.8c-.1.4-.5.9-1 .9H114c-.5 0-1-.4-1-.9V23.9c0-.5.4-1 1-1h11.3c.5 0 1 .5 1 1v31.8l12-.1zM188.8 66.3c.2.4-.1.8-.6.8h-12.7c-.6 0-1.1-.3-1.4-.8l-1.9-6.7h-12.1l-1.9 6.7c-.3.5-.8.8-1.4.8h-12.7c-.5 0-.8-.4-.6-.8L158 23.7c.2-.4.9-.8 1.5-.8h13.1c.6 0 1.4.5 1.5.8l14.7 42.6zm-22.6-28.1l-3.5 12.2h6.9l-3.4-12.2zM223.6 22.9c.6 0 1 .5.7 1l-14.2 25.5v16.8c0 .4-.4.9-1 .9h-11.3c-.5 0-1-.4-1-.9V49.4l-14.2-25.5c-.3-.6.1-1 .7-1h13.3c.6 0 1.2.5 1.5 1l5.3 11.5 5.3-11.5c.3-.6.8-1 1.5-1h13.4zM259.4 22.9c.6 0 1 .5 1 .9v9.7c0 .6-.4 1-1 1h-16.3v5.8H256c.6 0 .9.5.8.8l-.9 9c-.1.4-.5.8-1.1.8h-11.7v15.3c0 .4-.4.9-1 .9h-11.4c-.5 0-.9-.5-.9-1V23.8c0-.5.4-.9.9-.9h28.7zM277.9 22.9c.6 0 1 .5 1 1v42.4c0 .4-.4.9-1 .9h-11.4c-.5 0-.9-.4-.9-.9V23.9c0-.5.5-1 .9-1h11.4zM321.6 22.9c.6 0 1 .5 1 1v42.4c0 .4-.4.9-1 .9h-11.1c-.5 0-1-.3-1.4-.8l-11.1-20v19.9c0 .4-.4.9-1 .9h-11.4c-.5 0-.9-.4-.9-.9V23.9c0-.5.4-1 .9-1h11.1c.6 0 1.2.3 1.5.8l11.1 20V23.9c0-.5.5-1 .9-1h11.4zM344.2 22.9c13.6 0 22.6 8.8 22.6 22.1 0 13.2-9 22.1-22.6 22.1h-14.9c-.5 0-.9-.4-.9-1V23.9c0-.5.5-1 .9-1h14.9zm.8 32.7c4.9 0 8.3-4.2 8.3-10.6S350 34.4 345 34.4h-3.3v21.2h3.3zM402.4 55.6c.5 0 1 .4 1 .8v9.8c0 .4-.5.9-1 .9h-29.8c-.5 0-.9-.5-1-1V23.8c0-.6.3-.9.9-.9h29.2c.6 0 1 .5 1 .9v9.7c0 .6-.5 1-1 1H385v5.1h13.6c.6 0 .9.5.8.8l-.9 9c-.1.4-.5.8-1.1.8H385v5.5l17.4-.1zM444.9 66.1c.3.6-.1 1-.7 1h-13.7c-.6 0-1.2-.4-1.5-1l-6.7-14h-.8v14.1c0 .4-.5.9-1 .9h-11.3c-.5 0-1-.4-1-.9V23.9c0-.5.5-1 1-1h16.9c9.9 0 16.4 5.8 16.4 14.5 0 5.1-3.1 10.2-7.9 12.2l10.3 16.5zm-19.6-24.9c2.2 0 3.7-1.3 3.7-3.4s-1.5-3.4-3.7-3.4h-3.8v6.8h3.8z"/></g><g class="st1"><path class="st3" d="M22.1 17.5c-7.1 4.1-9.5 13.1-5.4 20.2L25 51.9l4.5 7.8L38 74.4l4.3-7.4-19.2-33c-2-3.5-.8-8.1 2.7-10.1s8-.8 10.1 2.7.8 8.1-2.7 10.1l3.7 6.4C44 39 46.4 30 42.3 22.9s-13.1-9.5-20.2-5.4z"/><path class="st3" d="M14.8 4.7C.6 12.9-4.2 30.9 4 45l25.6 44.2 4.3-7.4-23.5-40.5C4.3 30.7 7.9 17.2 18.5 11s24.1-2.5 30.3 8.1c6.1 10.6 2.5 24.1-8.1 30.3l3.7 6.4c14.1-8.2 19-26.2 10.8-40.3S28.9-3.5 14.8 4.7z"/></g></g><g id="GREEN_NAVI"><path class="st4" d="M89.9 22.9c11.2 0 18 6.1 18 15.3s-6.7 15.3-18 15.3h-2.6v12.8c0 .4-.4.9-1 .9H74.7c-.4 0-.9-.4-.9-.9V23.9c0-.5.4-1 .9-1h15.2zm.5 19c2.2 0 3.8-1.5 3.8-3.8 0-2.2-1.5-3.8-3.8-3.8h-3.3v7.6h3.3zM138.3 55.6c.4 0 .8.4.8.9l-.9 9.8c-.1.4-.5.9-1 .9H114c-.5 0-1-.4-1-.9V23.9c0-.5.4-1 1-1h11.3c.5 0 1 .5 1 1v31.8l12-.1zM188.8 66.3c.2.4-.1.8-.6.8h-12.7c-.6 0-1.1-.3-1.4-.8l-1.9-6.7h-12.1l-1.9 6.7c-.3.5-.8.8-1.4.8h-12.7c-.5 0-.8-.4-.6-.8L158 23.7c.2-.4.9-.8 1.5-.8h13.1c.6 0 1.4.5 1.5.8l14.7 42.6zm-22.6-28.1l-3.5 12.2h6.9l-3.4-12.2zM223.6 22.9c.6 0 1 .5.7 1l-14.2 25.5v16.8c0 .4-.4.9-1 .9h-11.3c-.5 0-1-.4-1-.9V49.4l-14.2-25.5c-.3-.6.1-1 .7-1h13.3c.6 0 1.2.5 1.5 1l5.3 11.5 5.3-11.5c.3-.6.8-1 1.5-1h13.4zM259.4 22.9c.6 0 1 .5 1 .9v9.7c0 .6-.4 1-1 1h-16.3v5.8H256c.6 0 .9.5.8.8l-.9 9c-.1.4-.5.8-1.1.8h-11.7v15.3c0 .4-.4.9-1 .9h-11.4c-.5 0-.9-.5-.9-1V23.8c0-.5.4-.9.9-.9h28.7zM277.9 22.9c.6 0 1 .5 1 1v42.4c0 .4-.4.9-1 .9h-11.4c-.5 0-.9-.4-.9-.9V23.9c0-.5.5-1 .9-1h11.4zM321.6 22.9c.6 0 1 .5 1 1v42.4c0 .4-.4.9-1 .9h-11.1c-.5 0-1-.3-1.4-.8l-11.1-20v19.9c0 .4-.4.9-1 .9h-11.4c-.5 0-.9-.4-.9-.9V23.9c0-.5.4-1 .9-1h11.1c.6 0 1.2.3 1.5.8l11.1 20V23.9c0-.5.5-1 .9-1h11.4zM344.2 22.9c13.6 0 22.6 8.8 22.6 22.1 0 13.2-9 22.1-22.6 22.1h-14.9c-.5 0-.9-.4-.9-1V23.9c0-.5.5-1 .9-1h14.9zm.8 32.7c4.9 0 8.3-4.2 8.3-10.6S350 34.4 345 34.4h-3.3v21.2h3.3zM402.4 55.6c.5 0 1 .4 1 .8v9.8c0 .4-.5.9-1 .9h-29.8c-.5 0-.9-.5-1-1V23.8c0-.6.3-.9.9-.9h29.2c.6 0 1 .5 1 .9v9.7c0 .6-.5 1-1 1H385v5.1h13.6c.6 0 .9.5.8.8l-.9 9c-.1.4-.5.8-1.1.8H385v5.5l17.4-.1zM444.9 66.1c.3.6-.1 1-.7 1h-13.7c-.6 0-1.2-.4-1.5-1l-6.7-14h-.8v14.1c0 .4-.5.9-1 .9h-11.3c-.5 0-1-.4-1-.9V23.9c0-.5.5-1 1-1h16.9c9.9 0 16.4 5.8 16.4 14.5 0 5.1-3.1 10.2-7.9 12.2l10.3 16.5zm-19.6-24.9c2.2 0 3.7-1.3 3.7-3.4s-1.5-3.4-3.7-3.4h-3.8v6.8h3.8z"/><g><path class="st3" d="M22.1 17.5c-7.1 4.1-9.5 13.1-5.4 20.2L25 51.9l4.5 7.8L38 74.4l4.3-7.4-19.2-33c-2-3.5-.8-8.1 2.7-10.1s8-.8 10.1 2.7.8 8.1-2.7 10.1l3.7 6.4C44 39 46.4 30 42.3 22.9s-13.1-9.5-20.2-5.4z"/><path class="st3" d="M14.8 4.7C.6 12.9-4.2 30.9 4 45l25.6 44.2 4.3-7.4-23.5-40.5C4.3 30.7 7.9 17.2 18.5 11s24.1-2.5 30.3 8.1c6.1 10.6 2.5 24.1-8.1 30.3l3.7 6.4c14.1-8.2 19-26.2 10.8-40.3S28.9-3.5 14.8 4.7z"/></g></g><g id="NAVI_WHITE" class="st0"><g class="st1"><path class="st2" d="M89.9 22.9c11.2 0 18 6.1 18 15.3s-6.7 15.3-18 15.3h-2.6v12.8c0 .4-.4.9-1 .9H74.7c-.4 0-.9-.4-.9-.9V23.9c0-.5.4-1 .9-1h15.2zm.5 19c2.2 0 3.8-1.5 3.8-3.8 0-2.2-1.5-3.8-3.8-3.8h-3.3v7.6h3.3zM138.3 55.6c.4 0 .8.4.8.9l-.9 9.8c-.1.4-.5.9-1 .9H114c-.5 0-1-.4-1-.9V23.9c0-.5.4-1 1-1h11.3c.5 0 1 .5 1 1v31.8l12-.1zM188.8 66.3c.2.4-.1.8-.6.8h-12.7c-.6 0-1.1-.3-1.4-.8l-1.9-6.7h-12.1l-1.9 6.7c-.3.5-.8.8-1.4.8h-12.7c-.5 0-.8-.4-.6-.8L158 23.7c.2-.4.9-.8 1.5-.8h13.1c.6 0 1.4.5 1.5.8l14.7 42.6zm-22.6-28.1l-3.5 12.2h6.9l-3.4-12.2zM223.6 22.9c.6 0 1 .5.7 1l-14.2 25.5v16.8c0 .4-.4.9-1 .9h-11.3c-.5 0-1-.4-1-.9V49.4l-14.2-25.5c-.3-.6.1-1 .7-1h13.3c.6 0 1.2.5 1.5 1l5.3 11.5 5.3-11.5c.3-.6.8-1 1.5-1h13.4zM259.4 22.9c.6 0 1 .5 1 .9v9.7c0 .6-.4 1-1 1h-16.3v5.8H256c.6 0 .9.5.8.8l-.9 9c-.1.4-.5.8-1.1.8h-11.7v15.3c0 .4-.4.9-1 .9h-11.4c-.5 0-.9-.5-.9-1V23.8c0-.5.4-.9.9-.9h28.7zM277.9 22.9c.6 0 1 .5 1 1v42.4c0 .4-.4.9-1 .9h-11.4c-.5 0-.9-.4-.9-.9V23.9c0-.5.5-1 .9-1h11.4zM321.6 22.9c.6 0 1 .5 1 1v42.4c0 .4-.4.9-1 .9h-11.1c-.5 0-1-.3-1.4-.8l-11.1-20v19.9c0 .4-.4.9-1 .9h-11.4c-.5 0-.9-.4-.9-.9V23.9c0-.5.4-1 .9-1h11.1c.6 0 1.2.3 1.5.8l11.1 20V23.9c0-.5.5-1 .9-1h11.4zM344.2 22.9c13.6 0 22.6 8.8 22.6 22.1 0 13.2-9 22.1-22.6 22.1h-14.9c-.5 0-.9-.4-.9-1V23.9c0-.5.5-1 .9-1h14.9zm.8 32.7c4.9 0 8.3-4.2 8.3-10.6S350 34.4 345 34.4h-3.3v21.2h3.3zM402.4 55.6c.5 0 1 .4 1 .8v9.8c0 .4-.5.9-1 .9h-29.8c-.5 0-.9-.5-1-1V23.8c0-.6.3-.9.9-.9h29.2c.6 0 1 .5 1 .9v9.7c0 .6-.5 1-1 1H385v5.1h13.6c.6 0 .9.5.8.8l-.9 9c-.1.4-.5.8-1.1.8H385v5.5l17.4-.1zM444.9 66.1c.3.6-.1 1-.7 1h-13.7c-.6 0-1.2-.4-1.5-1l-6.7-14h-.8v14.1c0 .4-.5.9-1 .9h-11.3c-.5 0-1-.4-1-.9V23.9c0-.5.5-1 1-1h16.9c9.9 0 16.4 5.8 16.4 14.5 0 5.1-3.1 10.2-7.9 12.2l10.3 16.5zm-19.6-24.9c2.2 0 3.7-1.3 3.7-3.4s-1.5-3.4-3.7-3.4h-3.8v6.8h3.8z"/></g><g class="st1"><path class="st4" d="M22.1 17.5c-7.1 4.1-9.5 13.1-5.4 20.2L25 51.9l4.5 7.8L38 74.4l4.3-7.4-19.2-33c-2-3.5-.8-8.1 2.7-10.1s8-.8 10.1 2.7.8 8.1-2.7 10.1l3.7 6.4C44 39 46.4 30 42.3 22.9s-13.1-9.5-20.2-5.4z"/><path class="st4" d="M14.8 4.7C.6 12.9-4.2 30.9 4 45l25.6 44.2 4.3-7.4-23.5-40.5C4.3 30.7 7.9 17.2 18.5 11s24.1-2.5 30.3 8.1c6.1 10.6 2.5 24.1-8.1 30.3l3.7 6.4c14.1-8.2 19-26.2 10.8-40.3S28.9-3.5 14.8 4.7z"/></g></g><g id="BLACK" class="st0"><g class="st1"><path d="M88.4 22.6c11.3 0 18.2 6.2 18.2 15.4 0 9.3-6.8 15.4-18.2 15.4h-2.7v13c0 .4-.4.9-1 .9H73.1c-.4 0-.9-.4-.9-.9V23.6c0-.5.4-1 .9-1h15.3zm.6 19.3c2.3 0 3.8-1.6 3.8-3.8s-1.6-3.8-3.8-3.8h-3.4V42l3.4-.1zM137.4 55.7c.4 0 .8.4.8.9l-.9 9.9c-.1.4-.5.9-1 .9h-23.4c-.5 0-1-.4-1-.9V23.6c0-.5.4-1 1-1h11.5c.5 0 1 .5 1 1v32.1h12zM188.4 66.5c.2.4-.1.8-.6.8H175c-.6 0-1.1-.3-1.4-.8l-1.9-6.8h-12.2l-1.9 6.8c-.3.5-.8.8-1.4.8h-12.8c-.5 0-.8-.4-.6-.8l14.7-43.1c.2-.4.9-.8 1.6-.8h13.2c.6 0 1.4.5 1.6.8l14.5 43.1zm-22.8-28.4l-3.5 12.3h7l-3.5-12.3zM223.6 22.6c.6 0 1 .5.7 1L210 49.5v17c0 .4-.4.9-1 .9h-11.4c-.5 0-1-.4-1-.9v-17l-14.3-25.8c-.3-.6.1-1 .7-1h13.5c.6 0 1.2.5 1.5 1l5.3 11.7 5.3-11.7c.3-.6.8-1 1.5-1 0-.1 13.5-.1 13.5-.1zM259.9 22.6c.6 0 1 .5 1 .9v9.8c0 .6-.4 1-1 1h-16.5v5.9h13c.6 0 .9.5.8.8l-.9 9.1c-.1.4-.5.8-1.1.8h-11.9v15.5c0 .4-.4.9-1 .9h-11.5c-.5 0-.9-.5-.9-1V23.5c0-.5.4-.9.9-.9h29.1zM278.5 22.6c.6 0 1 .5 1 1v42.9c0 .4-.4.9-1 .9H267c-.5 0-.9-.4-.9-.9V23.6c0-.5.5-1 .9-1h11.5zM322.7 22.6c.6 0 1 .5 1 1v42.9c0 .4-.4.9-1 .9h-11.2c-.5 0-1-.3-1.4-.8l-11.3-20.2v20.1c0 .4-.4.9-1 .9h-11.5c-.5 0-.9-.4-.9-.9V23.6c0-.5.4-1 .9-1h11.2c.6 0 1.2.3 1.5.8l11.2 20.2v-20c0-.5.5-1 .9-1h11.6zM345.6 22.6c13.8 0 22.9 8.9 22.9 22.4 0 13.4-9.1 22.4-22.9 22.4h-15c-.5 0-.9-.4-.9-1V23.6c0-.5.5-1 .9-1h15zm.8 33.1c5 0 8.4-4.3 8.4-10.7s-3.4-10.7-8.4-10.7H343v21.4h3.4zM404.5 55.7c.5 0 1 .4 1 .8v9.9c0 .4-.5.9-1 .9h-30.2c-.5 0-.9-.5-1-1V23.5c0-.6.3-.9.9-.9h29.5c.6 0 1 .5 1 .9v9.8c0 .6-.5 1-1 1h-16.9v5.1h13.8c.6 0 .9.5.8.8l-.9 9.1c-.1.4-.5.8-1.1.8h-12.6v5.5l17.7.1zM447.4 66.4c.3.6-.1 1-.7 1h-13.9c-.6 0-1.2-.4-1.5-1l-6.7-14.1h-.8v14.3c0 .4-.5.9-1 .9h-11.4c-.5 0-1-.4-1-.9v-43c0-.5.5-1 1-1h17.1c10 0 16.6 5.8 16.6 14.7 0 5.1-3.1 10.3-8 12.4l10.3 16.7zm-19.8-25.2c2.2 0 3.7-1.4 3.7-3.4s-1.5-3.4-3.7-3.4h-3.8v6.9l3.8-.1z"/></g><g class="st1"><path d="M19.9 17.2c-7.1 4.1-9.6 13.3-5.5 20.4L22.8 52l4.6 7.9 8.6 15 4.3-7.5-19.4-33.6c-2.1-3.6-.8-8.1 2.7-10.2s8.1-.8 10.2 2.7c2.1 3.6.8 8.1-2.7 10.2l3.7 6.5c7.1-4.1 9.6-13.3 5.5-20.4S27 13 19.9 17.2z"/><path d="M12.4 4.2C-1.9 12.5-6.7 30.8 1.5 45l25.9 44.7 4.3-7.5L8 41.3c-6.2-10.7-2.5-24.4 8.2-30.6s24.4-2.5 30.6 8.2 2.5 24.4-8.2 30.6l3.7 6.5c14.3-8.2 19.2-26.5 10.9-40.8C45 .9 26.7-4 12.4 4.2z"/></g></g><g id="WHITE" class="st0"><g class="st1"><path class="st2" d="M89.9 22.9c11.2 0 18 6.1 18 15.3s-6.7 15.3-18 15.3h-2.6v12.8c0 .4-.4.9-1 .9H74.7c-.4 0-.9-.4-.9-.9V23.9c0-.5.4-1 .9-1h15.2zm.5 19c2.2 0 3.8-1.5 3.8-3.8 0-2.2-1.5-3.8-3.8-3.8h-3.3v7.6h3.3zM138.3 55.6c.4 0 .8.4.8.9l-.9 9.8c-.1.4-.5.9-1 .9H114c-.5 0-1-.4-1-.9V23.9c0-.5.4-1 1-1h11.3c.5 0 1 .5 1 1v31.8l12-.1zM188.8 66.3c.2.4-.1.8-.6.8h-12.7c-.6 0-1.1-.3-1.4-.8l-1.9-6.7h-12.1l-1.9 6.7c-.3.5-.8.8-1.4.8h-12.7c-.5 0-.8-.4-.6-.8L158 23.7c.2-.4.9-.8 1.5-.8h13.1c.6 0 1.4.5 1.5.8l14.7 42.6zm-22.6-28.1l-3.5 12.2h6.9l-3.4-12.2zM223.6 22.9c.6 0 1 .5.7 1l-14.2 25.5v16.8c0 .4-.4.9-1 .9h-11.3c-.5 0-1-.4-1-.9V49.4l-14.2-25.5c-.3-.6.1-1 .7-1h13.3c.6 0 1.2.5 1.5 1l5.3 11.5 5.3-11.5c.3-.6.8-1 1.5-1h13.4zM259.4 22.9c.6 0 1 .5 1 .9v9.7c0 .6-.4 1-1 1h-16.3v5.8H256c.6 0 .9.5.8.8l-.9 9c-.1.4-.5.8-1.1.8h-11.7v15.3c0 .4-.4.9-1 .9h-11.4c-.5 0-.9-.5-.9-1V23.8c0-.5.4-.9.9-.9h28.7zM277.9 22.9c.6 0 1 .5 1 1v42.4c0 .4-.4.9-1 .9h-11.4c-.5 0-.9-.4-.9-.9V23.9c0-.5.5-1 .9-1h11.4zM321.6 22.9c.6 0 1 .5 1 1v42.4c0 .4-.4.9-1 .9h-11.1c-.5 0-1-.3-1.4-.8l-11.1-20v19.9c0 .4-.4.9-1 .9h-11.4c-.5 0-.9-.4-.9-.9V23.9c0-.5.4-1 .9-1h11.1c.6 0 1.2.3 1.5.8l11.1 20V23.9c0-.5.5-1 .9-1h11.4zM344.2 22.9c13.6 0 22.6 8.8 22.6 22.1 0 13.2-9 22.1-22.6 22.1h-14.9c-.5 0-.9-.4-.9-1V23.9c0-.5.5-1 .9-1h14.9zm.8 32.7c4.9 0 8.3-4.2 8.3-10.6S350 34.4 345 34.4h-3.3v21.2h3.3zM402.4 55.6c.5 0 1 .4 1 .8v9.8c0 .4-.5.9-1 .9h-29.8c-.5 0-.9-.5-1-1V23.8c0-.6.3-.9.9-.9h29.2c.6 0 1 .5 1 .9v9.7c0 .6-.5 1-1 1H385v5.1h13.6c.6 0 .9.5.8.8l-.9 9c-.1.4-.5.8-1.1.8H385v5.5l17.4-.1zM444.9 66.1c.3.6-.1 1-.7 1h-13.7c-.6 0-1.2-.4-1.5-1l-6.7-14h-.8v14.1c0 .4-.5.9-1 .9h-11.3c-.5 0-1-.4-1-.9V23.9c0-.5.5-1 1-1h16.9c9.9 0 16.4 5.8 16.4 14.5 0 5.1-3.1 10.2-7.9 12.2l10.3 16.5zm-19.6-24.9c2.2 0 3.7-1.3 3.7-3.4s-1.5-3.4-3.7-3.4h-3.8v6.8h3.8z"/></g><g class="st1"><path class="st2" d="M22.1 17.5c-7.1 4.1-9.5 13.1-5.4 20.2L25 51.9l4.5 7.8L38 74.4l4.3-7.4-19.2-33c-2-3.5-.8-8.1 2.7-10.1s8-.8 10.1 2.7.8 8.1-2.7 10.1l3.7 6.4C44 39 46.4 30 42.3 22.9s-13.1-9.5-20.2-5.4z"/><path class="st2" d="M14.8 4.7C.6 12.9-4.2 30.9 4 45l25.6 44.2 4.3-7.4-23.5-40.5C4.3 30.7 7.9 17.2 18.5 11s24.1-2.5 30.3 8.1c6.1 10.6 2.5 24.1-8.1 30.3l3.7 6.4c14.1-8.2 19-26.2 10.8-40.3S28.9-3.5 14.8 4.7z"/></g></g></svg>