<svg xmlns="http://www.w3.org/2000/svg" viewBox="0 0 130.4 130.4"><path d="M66.2,2a65.2,65.2,0,1,0,65.2,65.2A65.21,65.21,0,0,0,66.2,2ZM19.5,45.4H49.4V75.3l-15-8.2-15,8.2V45.4Zm5.6,46.7a.52.52,0,0,1-.4-.2L24.2,90H21l-.5,1.8c0,.2-.2.2-.4.2s-.6-.2-.6-.4v-.1L22,83.4a.82.82,0,0,1,.6-.4c.3,0,.6.1.6.4l2.5,8.1v.1A.56.56,0,0,1,25.1,92.1Zm9.4,0a.66.66,0,0,1-.5-.4l-1.8-3.6H30.8v3.6c0,.2-.3.4-.5.4s-.5-.1-.5-.4V83.5c0-.2.1-.3.4-.4h2.2c1.5,0,2.7.6,2.7,2.4a2.18,2.18,0,0,1-1.8,2.4l1.8,3.4v.2A.65.65,0,0,1,34.5,92.1ZM44,84.2H42v7.6c0,.2-.3.4-.5.4s-.5-.1-.5-.4V84.2H39a.46.46,0,0,1-.4-.5c0-.2.1-.5.4-.5h5a.46.46,0,0,1,.4.5C44.3,83.9,44.2,84.2,44,84.2Zm5.4,7.5c0,.2-.3.4-.5.4s-.5-.1-.5-.4V83.5c0-.2.3-.4.5-.4s.5.1.5.4Zm9.5-7.6H55.2v3.1h1.9a.43.43,0,0,1,.4.4.37.37,0,0,1-.4.4H55.2v3.7c0,.2-.3.4-.5.4s-.5-.1-.5-.4V83.5a.46.46,0,0,1,.5-.4H59a.46.46,0,0,1,.4.5C59.3,83.9,59.1,84.1,58.9,84.1Zm5.4,7.6c0,.2-.3.4-.5.4s-.5-.1-.5-.4V83.5c0-.2.3-.4.5-.4s.5.1.5.4Zm7.3-.5a1.32,1.32,0,0,0,1.5-1.4.46.46,0,0,1,.5-.4c.3,0,.5.1.5.6,0,1.2-1,2.1-2.6,2.1a2.36,2.36,0,0,1-2.6-2.6V85.9a2.36,2.36,0,0,1,2.6-2.6c1.6,0,2.6.9,2.6,2.1,0,.5-.2.6-.5.6s-.5-.1-.5-.4c0-.5-.2-1.4-1.6-1.4-1,0-1.6.5-1.6,1.7v3.6C70,90.7,70.5,91.2,71.6,91.2Zm9.8-4a.43.43,0,0,1,.4.4.37.37,0,0,1-.4.4H79.5v3.1h3.8a.46.46,0,0,1,.4.5.37.37,0,0,1-.4.4H79c-.2,0-.5-.1-.5-.4V83.5a.46.46,0,0,1,.5-.4h4.3a.46.46,0,0,1,.4.5c0,.3-.1.5-.4.5H79.5v3.1Zm2.3-30.3H78.3v1.5h5.4v3.8H78.3v1.5h5.4V75.2H54.2V45.4H83.7Zm8.8,35.2a.66.66,0,0,1-.5-.4l-1.8-3.6H88.8v3.6c0,.2-.3.4-.5.4s-.5-.1-.5-.4V83.5c0-.2.1-.3.4-.4h2.2c1.5,0,2.7.6,2.7,2.4a2.18,2.18,0,0,1-1.8,2.4l1.8,3.4v.2A.65.65,0,0,1,92.5,92.1Zm15.6-17.7a17.3,17.3,0,0,1-6.2.9H87.7V45.4h14.2a8.67,8.67,0,0,1,3.6.6,7.35,7.35,0,0,1,4.5,6.7,12.13,12.13,0,0,1,5.7,10.4A12.34,12.34,0,0,1,108.1,74.4Z" transform="translate(-1 -2)" fill="#272727"/><polygon points="20.2 87.2 22.9 87.2 21.6 82.6 20.2 87.2" fill="#272727"/><path d="M34.1,85.7a1.5,1.5,0,0,0-1.7-1.6H30.8v3.2h1.6C33.4,87.3,34.1,86.9,34.1,85.7Z" transform="translate(-1 -2)" fill="#272727"/><path d="M92,85.7a1.5,1.5,0,0,0-1.7-1.6H88.7v3.2h1.6C91.4,87.3,92,86.9,92,85.7Z" transform="translate(-1 -2)" fill="#272727"/></svg>